{
.appVersion = "3234";
.formatVersion = 3;
DisplayStrings = (
"(",
"/braceleft.001",
E,
"Þ",
TaTe,
R,
I,
"/nbspace",
Casar,
H,
P,
Z,
m,
"oö",
s,
"ÁÂÄÀÅÃ",
"æ",
"=≠",
e,
"TaTcTaTcTdTe TgToTœTqTa0,0.WaT-T–T—T-WdWeWgWoWœWqWaTggToTœTqTa",
o,
n,
"ã",
"Ü"
);
axes = (
{
name = Weight;
tag = wght;
}
);
customParameters = (
{
name = panose;
value = (
0,
0,
0,
0,
0,
0,
0,
0,
0,
0
);
},
{
name = unicodeRanges;
value = (
0,
1,
2,
5,
31,
35,
38,
60
);
},
{
name = codePageRanges;
value = (
"1252"
);
},
{
name = blueShift;
value = 18;
},
{
disabled = 1;
name = glyphOrder;
value = (
.notdef,
NULL,
nonmarkingreturn,
space,
exclam,
quotedbl,
numbersign,
dollar,
percent,
ampersand,
quotesingle,
parenleft,
parenright,
asterisk,
plus,
comma,
hyphen,
period,
slash,
zero,
one,
two,
three,
four,
five,
six,
seven,
eight,
nine,
colon,
semicolon,
less,
equal,
greater,
question,
at,
A,
B,
C,
D,
E,
F,
G,
H,
I,
J,
K,
L,
M,
N,
O,
P,
Q,
R,
S,
T,
U,
V,
W,
X,
Y,
Z,
bracketleft,
backslash,
bracketright,
asciicircum,
underscore,
grave,
a,
b,
c,
d,
e,
f,
g,
h,
i,
j,
k,
l,
m,
n,
o,
p,
q,
r,
s,
t,
u,
v,
w,
x,
y,
z,
braceleft,
bar,
braceright,
asciitilde,
Adieresis,
Aring,
Ccedilla,
Eacute,
Ntilde,
Odieresis,
Udieresis,
aacute,
agrave,
acircumflex,
adieresis,
atilde,
aring,
ccedilla,
eacute,
egrave,
ecircumflex,
edieresis,
iacute,
igrave,
icircumflex,
idieresis,
ntilde,
oacute,
ograve,
ocircumflex,
odieresis,
otilde,
uacute,
ugrave,
ucircumflex,
udieresis,
degree,
bullet,
paragraph,
germandbls,
registered,
copyright,
trademark,
acute,
dieresis,
AE,
Oslash,
ae,
oslash,
ellipsis,
uni00A0,
Agrave,
Atilde,
Otilde,
OE,
oe,
endash,
emdash,
quotedblleft,
quotedblright,
quoteleft,
quoteright,
divide,
ydieresis,
fraction,
Acircumflex,
Ecircumflex,
Aacute,
Edieresis,
Egrave,
Iacute,
Icircumflex,
Idieresis,
Igrave,
Oacute,
Ocircumflex,
Ograve,
Uacute,
Ucircumflex,
Ugrave,
dotlessi,
circumflex,
tilde,
ring,
cedilla,
caron,
Eth,
eth,
Yacute,
yacute,
minus,
multiply,
apple,
Thorn,
thorn
);
}
);

glyphs = (
{
glyphname = A;
kernLeft = A;
kernRight = A;
lastChange = "2023-12-15 17:47:40 +0000";
layers = (
{
anchors = (
{
name = bottom;
pos = (300,0);
},
{
name = ogonek;
pos = (581,-1);
},
{
name = top;
pos = (308,680);
}
);
hints = (
{
horizontal = 1;
origin = (0,7);
target = up;
type = BottomGhost;
},
{
horizontal = 1;
origin = (0,1);
target = (1,2);
type = Stem;
},
{
horizontal = 1;
origin = (0,6);
target = down;
type = TopGhost;
}
);
layerId = m01;
shapes = (
{
closed = 1;
nodes = (
(86,0,l),
(159.28,185,l),
(458.05,185,l),
(531,0,l),
(607,0,l),
(328,680,l),
(290,680,l),
(10,0,l)
);
},
{
closed = 1;
nodes = (
(309,563,l),
(432.42,250,l),
(185.02,250,l)
);
}
);
width = 617;
},
{
anchors = (
{
name = bottom;
pos = (343,0);
},
{
name = ogonek;
pos = (617,0);
},
{
name = top;
pos = (339,679);
}
);
hints = (
{
horizontal = 1;
origin = (0,7);
target = up;
type = BottomGhost;
},
{
horizontal = 1;
origin = (0,1);
target = (1,2);
type = Stem;
},
{
horizontal = 1;
origin = (0,6);
target = down;
type = TopGhost;
}
);
layerId = "B86D9C3C-D3FC-40C7-BC9B-EF4509240B31";
shapes = (
{
closed = 1;
nodes = (
(166,0,l),
(215,137,l),
(474,137,l),
(523,0,l),
(684,0,l),
(408,680,l),
(281,680,l),
(5,0,l)
);
},
{
closed = 1;
nodes = (
(344,502,l),
(430,260,l),
(258,260,l)
);
}
);
width = 689;
},
{
anchors = (
{
name = bottom;
pos = (357,0);
},
{
name = ogonek;
pos = (629,0);
},
{
name = top;
pos = (349,679);
}
);
hints = (
{
horizontal = 1;
origin = (0,7);
target = up;
type = BottomGhost;
},
{
horizontal = 1;
origin = (0,1);
target = (1,2);
type = Stem;
},
{
horizontal = 1;
origin = (0,6);
target = down;
type = TopGhost;
}
);
layerId = "20FD933E-5CCA-4ADC-839D-1BAE82A4B007";
shapes = (
{
closed = 1;
nodes = (
(193,0,l),
(234,121,l),
(479,121,l),
(520,0,l),
(710,0,l),
(435,680,l),
(278,680,l),
(3,0,l)
);
},
{
closed = 1;
nodes = (
(356,482,l),
(429,263,l),
(282,263,l)
);
}
);
width = 713;
}
);
note = A;
unicode = 65;
},
{
glyphname = AE;
kernLeft = A;
lastChange = "2023-12-15 17:47:40 +0000";
layers = (
{
hints = (
{
horizontal = 1;
place = (0,66);
type = Stem;
},
{
horizontal = 1;
origin = (0,1);
target = (1,3);
type = Stem;
},
{
horizontal = 1;
place = (307,65);
type = Stem;
},
{
horizontal = 1;
place = (615,65);
type = Stem;
},
{
origin = (0,3);
target = (0,6);
type = Stem;
}
);
layerId = m01;
shapes = (
{
closed = 1;
nodes = (
(90,0,l),
(183,175,l),
(381,175,l),
(381,0,l),
(766,0,l),
(766,67,l),
(451,65,l),
(451,306,l),
(756,308,l),
(756,373,l),
(451,371,l),
(451,614,l),
(766,616,l),
(766,680,l),
(369,680,l),
(10,0,l)
);
},
{
closed = 1;
nodes = (
(374,541,l),
(381,582,l),
(381,240,l),
(217,240,l)
);
}
);
width = 826;
},
{
hints = (
{
horizontal = 1;
origin = (0,15);
target = (0,6);
type = Stem;
},
{
horizontal = 1;
origin = (0,7);
target = (0,10);
type = Stem;
},
{
horizontal = 1;
origin = (0,14);
target = (0,11);
type = Stem;
},
{
horizontal = 1;
origin = (0,1);
target = (1,3);
type = Stem;
},
{
origin = (0,3);
target = (0,6);
type = Stem;
}
);
layerId = "B86D9C3C-D3FC-40C7-BC9B-EF4509240B31";
shapes = (
{
closed = 1;
nodes = (
(166,0,l),
(215,137,l),
(364,137,l),
(364,0,l),
(803,0,l),
(803,136,l),
(514,136,l),
(514,273,l),
(793,273,l),
(793,409,l),
(514,409,l),
(514,544,l),
(803,544,l),
(803,680,l),
(281,680,l),
(5,0,l)
);
},
{
closed = 1;
nodes = (
(349,495,l),
(364,546,l),
(364,260,l),
(258,260,l)
);
}
);
width = 838;
},
{
hints = (
{
horizontal = 1;
place = (261.5,160);
type = Stem;
},
{
horizontal = 1;
place = (520.5,159.5);
type = Stem;
},
{
horizontal = 1;
origin = (0,1);
target = (1,3);
type = Stem;
},
{
horizontal = 1;
origin = (0,14);
target = (1,1);
type = Stem;
},
{
origin = (0,3);
target = (0,6);
type = Stem;
}
);
layerId = "20FD933E-5CCA-4ADC-839D-1BAE82A4B007";
shapes = (
{
closed = 1;
nodes = (
(191,0,l),
(226,124,l),
(358,124,l),
(358,0,l),
(815,0,l),
(815,159,l),
(535,160,l),
(535,262,l),
(805,261,l),
(805,421,l),
(535,422,l),
(535,521,l),
(815,520,l),
(815,680,l),
(252,680,l),
(3,0,l)
);
},
{
closed = 1;
nodes = (
(341,480,l),
(358,534,l),
(358,267,l),
(272,267,l)
);
}
);
width = 842;
}
);
note = AE;
unicode = 198;
},
{
glyphname = B;
lastChange = "2023-12-15 17:47:40 +0000";
layers = (
{
hints = (
{
horizontal = 1;
origin = (0,14);
target = (1,8);
type = Stem;
},
{
horizontal = 1;
origin = (1,0);
target = (2,8);
type = Stem;
},
{
horizontal = 1;
origin = (0,13);
target = (2,0);
type = Stem;
},
{
origin = (0,14);
target = (1,8);
type = Stem;
},
{
origin = (1,4);
target = (0,3);
type = Stem;
},
{
origin = (2,4);
target = (0,9);
type = Stem;
}
);
layerId = m01;
shapes = (
{
closed = 1;
nodes = (
(283,0,ls),
(423,0,o),
(519,76,o),
(519,189.5,cs),
(519,280,o),
(474,352,o),
(389,375,c),
(448,401,o),
(469,461,o),
(469,521,cs),
(469,618,o),
(388,680,o),
(259,680,cs),
(75,680,l),
(75,0,l)
);
},
{
closed = 1;
nodes = (
(145,331,l),
(314,331,ls),
(387,331,o),
(449,276,o),
(449,203,cs),
(449,122,o),
(390,67,o),
(303,67,cs),
(145,67,l)
);
},
{
closed = 1;
nodes = (
(145,613,l),
(259,613,ls),
(352.33,613,o),
(399,578.67,o),
(399,510,cs),
(399,432,o),
(347,401,o),
(279,401,cs),
(145,401,l)
);
}
);
width = 539;
},
{
hints = (
{
horizontal = 1;
origin = (0,14);
target = (1,8);
type = Stem;
},
{
horizontal = 1;
origin = (1,0);
target = (2,8);
type = Stem;
},
{
horizontal = 1;
origin = (0,13);
target = (2,0);
type = Stem;
},
{
origin = (0,14);
target = (1,8);
type = Stem;
},
{
origin = (1,4);
target = (0,3);
type = Stem;
},
{
origin = (2,4);
target = (0,9);
type = Stem;
}
);
layerId = "B86D9C3C-D3FC-40C7-BC9B-EF4509240B31";
shapes = (
{
closed = 1;
nodes = (
(355,0,ls),
(485,0,o),
(561,78,o),
(561,195,cs),
(561,287,o),
(499,348,o),
(423,366,c),
(474,389,o),
(504,441,o),
(504,510,cs),
(504,603,o),
(430,680,o),
(314,680,cs),
(60,680,l),
(60,0,l)
);
},
{
closed = 1;
nodes = (
(210,281,l),
(325,281,ls),
(370,281,o),
(408,243,o),
(408,199,cs),
(408,154,o),
(370,117,o),
(325,117,cs),
(210,117,l)
);
},
{
closed = 1;
nodes = (
(210,562,l),
(282,562,ls),
(325,562,o),
(361,527,o),
(361,483,cs),
(361,440,o),
(325,404,o),
(282,404,cs),
(210,404,l)
);
}
);
width = 581;
},
{
hints = (
{
horizontal = 1;
origin = (0,14);
target = (1,8);
type = Stem;
},
{
horizontal = 1;
origin = (1,0);
target = (2,8);
type = Stem;
},
{
horizontal = 1;
origin = (0,13);
target = (2,0);
type = Stem;
},
{
origin = (0,14);
target = (1,8);
type = Stem;
},
{
origin = (1,4);
target = (0,3);
type = Stem;
},
{
origin = (2,4);
target = (0,9);
type = Stem;
}
);
layerId = "20FD933E-5CCA-4ADC-839D-1BAE82A4B007";
shapes = (
{
closed = 1;
nodes = (
(379,0,ls),
(506,0,o),
(575,79,o),
(575,197,cs),
(575,289,o),
(507,347,o),
(434,363,c),
(483,385,o),
(516,434,o),
(516,506,cs),
(516,598,o),
(444,680,o),
(332,680,cs),
(55,680,l),
(55,0,l)
);
},
{
closed = 1;
nodes = (
(232,264,l),
(329,264,ls),
(364,264,o),
(394,232,o),
(394,198,cs),
(394,165,o),
(363,134,o),
(332,134,cs),
(232,134,l)
);
},
{
closed = 1;
nodes = (
(232,545,l),
(290,545,ls),
(316,545,o),
(348,510,o),
(348,474,cs),
(348,443,o),
(318,405,o),
(283,405,cs),
(232,405,l)
);
}
);
width = 595;
}
);
note = B;
unicode = 66;
},
{
glyphname = C;
kernLeft = COG;
kernRight = DOC;
lastChange = "2023-12-15 17:47:40 +0000";
layers = (
{
anchors = (
{
name = top;
pos = (382,687);
}
);
hints = (
{
horizontal = 1;
origin = (0,25);
target = (0,6);
type = Stem;
},
{
horizontal = 1;
origin = (0,19);
target = (0,12);
type = Stem;
},
{
origin = (0,22);
target = (0,9);
type = Stem;
}
);
layerId = m01;
shapes = (
{
closed = 1;
nodes = (
(524,-10,o),
(649,78,o),
(699,208,c),
(622,208,l),
(577,122,o),
(488,62,o),
(384,62,cs),
(235,62,o),
(115,186,o),
(115,339,cs),
(115,515,o),
(262,617,o),
(374,617,cs),
(477,617,o),
(568,571,o),
(621,473,c),
(698,473,l),
(647,602,o),
(525,689,o),
(384,689,cs),
(188,689,o),
(45,525,o),
(45,339,cs),
(45,149,o),
(194,-10,o),
(384,-10,cs)
);
}
);
width = 739;
},
{
anchors = (
{
name = top;
pos = (386,689);
}
);
hints = (
{
horizontal = 1;
origin = (0,25);
target = (0,6);
type = Stem;
},
{
horizontal = 1;
origin = (0,19);
target = (0,12);
type = Stem;
},
{
origin = (0,22);
target = (0,9);
type = Stem;
}
);
layerId = "B86D9C3C-D3FC-40C7-BC9B-EF4509240B31";
shapes = (
{
closed = 1;
nodes = (
(540,-10,o),
(672,91,o),
(718,231,c),
(551,231,l),
(523,171,o),
(455,130,o),
(385,130,cs),
(275,130,o),
(187,224,o),
(187,340,cs),
(187,455,o),
(275,550,o),
(385,550,cs),
(454,550,o),
(522,512,o),
(550,451,c),
(717,451,l),
(671,590,o),
(540,690,o),
(385,690,cs),
(192,690,o),
(35,533,o),
(35,340,cs),
(35,147,o),
(192,-10,o),
(385,-10,cs)
);
}
);
width = 753;
},
{
anchors = (
{
name = top;
pos = (387,690);
}
);
hints = (
{
horizontal = 1;
origin = (0,25);
target = (0,6);
type = Stem;
},
{
horizontal = 1;
origin = (0,12);
target = (0,19);
type = Stem;
},
{
origin = (0,22);
target = (0,9);
type = Stem;
}
);
layerId = "20FD933E-5CCA-4ADC-839D-1BAE82A4B007";
shapes = (
{
closed = 1;
nodes = (
(545,-10,o),
(680,95,o),
(724,239,c),
(527,239,l),
(505,187,o),
(444,153,o),
(385,153,cs),
(288,153,o),
(211,237,o),
(211,340,cs),
(211,435,o),
(279,528,o),
(389,528,cs),
(446,528,o),
(507,492,o),
(526,444,c),
(723,444,l),
(679,586,o),
(545,690,o),
(385,690,cs),
(193,690,o),
(32,536,o),
(32,340,cs),
(32,146,o),
(191,-10,o),
(385,-10,cs)
);
}
);
width = 758;
}
);
note = C;
unicode = 67;
},
{
glyphname = D;
kernRight = DOC;
lastChange = "2023-12-15 17:47:40 +0000";
layers = (
{
anchors = (
{
name = top;
pos = (273,680);
}
);
hints = (
{
horizontal = 1;
origin = (0,8);
target = (1,8);
type = Stem;
},
{
horizontal = 1;
origin = (0,7);
target = (1,0);
type = Stem;
},
{
origin = (0,8);
target = (1,8);
type = Stem;
},
{
origin = (1,4);
target = (0,3);
type = Stem;
}
);
layerId = m01;
shapes = (
{
closed = 1;
nodes = (
(253,0,ls),
(449,0,o),
(603,144,o),
(603,340,cs),
(603,547,o),
(439,680,o),
(253,680,cs),
(75,680,l),
(75,0,l)
);
},
{
closed = 1;
nodes = (
(145,610,l),
(255,610,ls),
(412,610,o),
(535,497,o),
(535,340,cs),
(535,183,o),
(412,70,o),
(255,70,cs),
(145,70,l)
);
}
);
width = 648;
},
{
anchors = (
{
name = top;
pos = (293,678);
}
);
hints = (
{
horizontal = 1;
origin = (0,8);
target = (1,8);
type = Stem;
},
{
horizontal = 1;
origin = (0,7);
target = (1,0);
type = Stem;
},
{
origin = (0,8);
target = (1,8);
type = Stem;
},
{
origin = (1,4);
target = (0,3);
type = Stem;
}
);
layerId = "B86D9C3C-D3FC-40C7-BC9B-EF4509240B31";
shapes = (
{
closed = 1;
nodes = (
(292,0,ls),
(485,0,o),
(630,148,o),
(630,340,cs),
(630,532,o),
(484,680,o),
(292,680,cs),
(60,680,l),
(60,0,l)
);
},
{
closed = 1;
nodes = (
(208,541,l),
(283,541,ls),
(399,541,o),
(477,453,o),
(477,340,cs),
(477,227,o),
(398,138,o),
(283,138,cs),
(208,138,l)
);
}
);
width = 665;
},
{
anchors = (
{
name = top;
pos = (300,677);
}
);
hints = (
{
horizontal = 1;
origin = (0,8);
target = (1,8);
type = Stem;
},
{
horizontal = 1;
origin = (0,7);
target = (1,0);
type = Stem;
},
{
origin = (0,8);
target = (1,8);
type = Stem;
},
{
origin = (1,4);
target = (0,3);
type = Stem;
}
);
layerId = "20FD933E-5CCA-4ADC-839D-1BAE82A4B007";
shapes = (
{
closed = 1;
nodes = (
(305,0,ls),
(497,0,o),
(639,149,o),
(639,340,cs),
(639,527,o),
(499,680,o),
(305,680,cs),
(55,680,l),
(55,0,l)
);
},
{
closed = 1;
nodes = (
(229,518,l),
(292,518,ls),
(395,518,o),
(458,438,o),
(458,340,cs),
(458,242,o),
(393,161,o),
(292,161,cs),
(229,161,l)
);
}
);
width = 671;
}
);
note = D;
unicode = 68;
},
{
glyphname = Dcroat;
lastChange = "2023-12-15 17:47:40 +0000";
layers = (
{
hints = (
{
horizontal = 1;
origin = (0,12);
target = (1,12);
type = Stem;
},
{
horizontal = 1;
origin = (0,10);
target = (0,9);
type = Stem;
},
{
horizontal = 1;
origin = (0,7);
target = (1,4);
type = Stem;
},
{
origin = (0,12);
target = (1,12);
type = Stem;
},
{
origin = (1,8);
target = (0,3);
type = Stem;
}
);
layerId = m01;
shapes = (
{
closed = 1;
nodes = (
(253,0,ls),
(449,0,o),
(603,144,o),
(603,340,cs),
(603,540,o),
(445,680,o),
(253,680,cs),
(75,680,l),
(75,352,l),
(8,352,l),
(8,295,l),
(75,295,l),
(75,0,l)
);
},
{
closed = 1;
nodes = (
(145,295,l),
(323,295,l),
(323,352,l),
(145,352,l),
(145,610,l),
(255,610,ls),
(412,610,o),
(535,497,o),
(535,340,cs),
(535,183,o),
(412,70,o),
(255,70,cs),
(145,70,l)
);
}
);
width = 648;
},
{
hints = (
{
horizontal = 1;
origin = (0,12);
target = (1,12);
type = Stem;
},
{
horizontal = 1;
origin = (0,10);
target = (0,9);
type = Stem;
},
{
horizontal = 1;
origin = (0,7);
target = (1,4);
type = Stem;
},
{
origin = (0,12);
target = (1,12);
type = Stem;
},
{
origin = (1,8);
target = (0,3);
type = Stem;
}
);
layerId = "B86D9C3C-D3FC-40C7-BC9B-EF4509240B31";
shapes = (
{
closed = 1;
nodes = (
(292,0,ls),
(485,0,o),
(630,148,o),
(630,340,cs),
(630,532,o),
(484,680,o),
(292,680,cs),
(60,680,l),
(60,376,l),
(0,376,l),
(0,293,l),
(60,293,l),
(60,0,l)
);
},
{
closed = 1;
nodes = (
(208,293,l),
(350,293,l),
(350,376,l),
(208,376,l),
(208,541,l),
(283,541,ls),
(399,541,o),
(477,453,o),
(477,340,cs),
(477,227,o),
(398,138,o),
(283,138,cs),
(208,138,l)
);
}
);
width = 665;
},
{
hints = (
{
horizontal = 1;
origin = (0,12);
target = (1,12);
type = Stem;
},
{
horizontal = 1;
origin = (0,10);
target = (0,9);
type = Stem;
},
{
horizontal = 1;
origin = (0,7);
target = (1,4);
type = Stem;
},
{
origin = (0,12);
target = (1,12);
type = Stem;
},
{
origin = (1,8);
target = (0,3);
type = Stem;
}
);
layerId = "20FD933E-5CCA-4ADC-839D-1BAE82A4B007";
shapes = (
{
closed = 1;
nodes = (
(305,0,ls),
(497,0,o),
(639,149,o),
(639,340,cs),
(639,529,o),
(497,680,o),
(305,680,cs),
(55,680,l),
(55,384,l),
(-3,384,l),
(-3,292,l),
(55,292,l),
(55,0,l)
);
},
{
closed = 1;
nodes = (
(229,292,l),
(359,292,l),
(359,384,l),
(229,384,l),
(229,518,l),
(292,518,ls),
(395,518,o),
(458,438,o),
(458,340,cs),
(458,242,o),
(393,161,o),
(292,161,cs),
(229,161,l)
);
}
);
width = 671;
}
);
unicode = 272;
},
{
glyphname = Eth;
kernRight = COD;
lastChange = "2023-12-15 17:47:40 +0000";
layers = (
{
hints = (
{
horizontal = 1;
origin = (0,12);
target = (1,12);
type = Stem;
},
{
horizontal = 1;
origin = (0,10);
target = (0,9);
type = Stem;
},
{
horizontal = 1;
origin = (0,7);
target = (1,4);
type = Stem;
},
{
origin = (0,12);
target = (1,12);
type = Stem;
},
{
origin = (1,8);
target = (0,3);
type = Stem;
}
);
layerId = m01;
shapes = (
{
closed = 1;
nodes = (
(253,0,ls),
(449,0,o),
(603,144,o),
(603,340,cs),
(603,540,o),
(445,680,o),
(253,680,cs),
(75,680,l),
(75,352,l),
(8,352,l),
(8,295,l),
(75,295,l),
(75,0,l)
);
},
{
closed = 1;
nodes = (
(145,295,l),
(323,295,l),
(323,352,l),
(145,352,l),
(145,610,l),
(255,610,ls),
(412,610,o),
(535,497,o),
(535,340,cs),
(535,183,o),
(412,70,o),
(255,70,cs),
(145,70,l)
);
}
);
width = 648;
},
{
hints = (
{
horizontal = 1;
origin = (0,12);
target = (1,12);
type = Stem;
},
{
horizontal = 1;
origin = (0,10);
target = (0,9);
type = Stem;
},
{
horizontal = 1;
origin = (0,7);
target = (1,4);
type = Stem;
},
{
origin = (0,12);
target = (1,12);
type = Stem;
},
{
origin = (1,8);
target = (0,3);
type = Stem;
}
);
layerId = "B86D9C3C-D3FC-40C7-BC9B-EF4509240B31";
shapes = (
{
closed = 1;
nodes = (
(292,0,ls),
(485,0,o),
(630,148,o),
(630,340,cs),
(630,532,o),
(484,680,o),
(292,680,cs),
(60,680,l),
(60,376,l),
(0,376,l),
(0,293,l),
(60,293,l),
(60,0,l)
);
},
{
closed = 1;
nodes = (
(208,293,l),
(350,293,l),
(350,376,l),
(208,376,l),
(208,541,l),
(283,541,ls),
(399,541,o),
(477,453,o),
(477,340,cs),
(477,227,o),
(398,138,o),
(283,138,cs),
(208,138,l)
);
}
);
width = 665;
},
{
hints = (
{
horizontal = 1;
origin = (0,12);
target = (1,12);
type = Stem;
},
{
horizontal = 1;
origin = (0,10);
target = (0,9);
type = Stem;
},
{
horizontal = 1;
origin = (0,7);
target = (1,4);
type = Stem;
},
{
origin = (0,12);
target = (1,12);
type = Stem;
},
{
origin = (1,8);
target = (0,3);
type = Stem;
}
);
layerId = "20FD933E-5CCA-4ADC-839D-1BAE82A4B007";
shapes = (
{
closed = 1;
nodes = (
(305,0,ls),
(497,0,o),
(639,149,o),
(639,340,cs),
(639,529,o),
(497,680,o),
(305,680,cs),
(55,680,l),
(55,384,l),
(-3,384,l),
(-3,292,l),
(55,292,l),
(55,0,l)
);
},
{
closed = 1;
nodes = (
(229,292,l),
(359,292,l),
(359,384,l),
(229,384,l),
(229,518,l),
(292,518,ls),
(395,518,o),
(458,438,o),
(458,340,cs),
(458,242,o),
(393,161,o),
(292,161,cs),
(229,161,l)
);
}
);
width = 671;
}
);
note = Eth;
unicode = 208;
},
{
glyphname = E;
lastChange = "2023-12-15 17:47:40 +0000";
layers = (
{
anchors = (
{
name = bottom;
pos = (289,0);
},
{
name = ogonek;
pos = (436,0);
},
{
name = top;
pos = (278,680);
}
);
hints = (
{
horizontal = 1;
origin = (0,11);
target = (0,2);
type = Stem;
},
{
horizontal = 1;
origin = (0,3);
target = (0,6);
type = Stem;
},
{
horizontal = 1;
origin = (0,10);
target = (0,7);
type = Stem;
},
{
origin = (0,11);
target = (0,2);
type = Stem;
}
);
layerId = m01;
shapes = (
{
closed = 1;
nodes = (
(479,0,l),
(479,65,l),
(145,65,l),
(145,307,l),
(469,307,l),
(469,373,l),
(145,373,l),
(145,615,l),
(479,615,l),
(479,680,l),
(75,680,l),
(75,0,l)
);
}
);
width = 554;
},
{
anchors = (
{
name = bottom;
pos = (273,0);
},
{
name = ogonek;
pos = (437,0);
},
{
name = top;
pos = (278,680);
}
);
hints = (
{
horizontal = 1;
origin = (0,11);
target = (0,2);
type = Stem;
},
{
horizontal = 1;
origin = (0,3);
target = (0,6);
type = Stem;
},
{
horizontal = 1;
origin = (0,10);
target = (0,7);
type = Stem;
},
{
origin = (0,11);
target = (0,2);
type = Stem;
}
);
layerId = "B86D9C3C-D3FC-40C7-BC9B-EF4509240B31";
shapes = (
{
closed = 1;
nodes = (
(484,0,l),
(484,136,l),
(210,136,l),
(210,273,l),
(474,273,l),
(474,409,l),
(210,409,l),
(210,544,l),
(484,544,l),
(484,680,l),
(60,680,l),
(60,0,l)
);
}
);
width = 534;
},
{
anchors = (
{
name = bottom;
pos = (268,0);
},
{
name = ogonek;
pos = (437,0);
},
{
name = top;
pos = (278,680);
}
);
hints = (
{
horizontal = 1;
origin = (0,11);
target = (0,2);
type = Stem;
},
{
horizontal = 1;
origin = (0,3);
target = (0,6);
type = Stem;
},
{
horizontal = 1;
origin = (0,10);
target = (0,7);
type = Stem;
},
{
origin = (0,11);
target = (0,2);
type = Stem;
}
);
layerId = "20FD933E-5CCA-4ADC-839D-1BAE82A4B007";
shapes = (
{
closed = 1;
nodes = (
(486,0,l),
(486,160,l),
(232,160,l),
(232,262,l),
(476,262,l),
(476,421,l),
(232,421,l),
(232,520,l),
(486,520,l),
(486,680,l),
(55,680,l),
(55,0,l)
);
}
);
width = 527;
}
);
note = E;
unicode = 69;
},
{
glyphname = F;
lastChange = "2023-12-15 17:47:40 +0000";
layers = (
{
hints = (
{
horizontal = 1;
origin = (0,9);
target = up;
type = BottomGhost;
},
{
horizontal = 1;
origin = (0,1);
target = (0,4);
type = Stem;
},
{
horizontal = 1;
origin = (0,8);
target = (0,5);
type = Stem;
},
{
origin = (0,9);
target = (0,0);
type = Stem;
}
);
layerId = m01;
shapes = (
{
closed = 1;
nodes = (
(145,0,l),
(145,307,l),
(469,307,l),
(469,373,l),
(145,373,l),
(145,615,l),
(479,615,l),
(479,680,l),
(75,680,l),
(75,0,l)
);
}
);
width = 499;
},
{
hints = (
{
horizontal = 1;
origin = (0,9);
target = up;
type = BottomGhost;
},
{
horizontal = 1;
origin = (0,1);
target = (0,4);
type = Stem;
},
{
horizontal = 1;
origin = (0,8);
target = (0,5);
type = Stem;
},
{
origin = (0,9);
target = (0,0);
type = Stem;
}
);
layerId = "B86D9C3C-D3FC-40C7-BC9B-EF4509240B31";
shapes = (
{
closed = 1;
nodes = (
(210,0,l),
(210,273,l),
(464,273,l),
(464,409,l),
(210,409,l),
(210,544,l),
(474,544,l),
(474,680,l),
(60,680,l),
(60,0,l)
);
}
);
width = 514;
},
{
hints = (
{
horizontal = 1;
origin = (0,9);
target = up;
type = BottomGhost;
},
{
horizontal = 1;
origin = (0,1);
target = (0,4);
type = Stem;
},
{
horizontal = 1;
origin = (0,8);
target = (0,5);
type = Stem;
},
{
origin = (0,9);
target = (0,0);
type = Stem;
}
);
layerId = "20FD933E-5CCA-4ADC-839D-1BAE82A4B007";
shapes = (
{
closed = 1;
nodes = (
(232,0,l),
(232,262,l),
(462,262,l),
(462,421,l),
(232,421,l),
(232,520,l),
(472,520,l),
(472,680,l),
(55,680,l),
(55,0,l)
);
}
);
width = 519;
}
);
note = F;
unicode = 70;
},
{
glyphname = G;
kernLeft = COG;
kernRight = DOC;
lastChange = "2023-12-15 17:47:40 +0000";
layers = (
{
anchors = (
{
name = bottom;
pos = (396,-9);
},
{
name = top;
pos = (388,689);
}
);
hints = (
{
horizontal = 1;
origin = (0,28);
target = (0,9);
type = Stem;
},
{
horizontal = 1;
origin = (0,5);
target = (0,4);
type = Stem;
},
{
horizontal = 1;
origin = (0,22);
target = (0,15);
type = Stem;
},
{
origin = (0,25);
target = (0,12);
type = Stem;
}
);
layerId = m01;
shapes = (
{
closed = 1;
nodes = (
(557,-8,o),
(709,106,o),
(739,276,cs),
(746,318,l),
(392,318,l),
(392,257,l),
(668,257,l),
(628,139,o),
(519,62,o),
(395,62,cs),
(237,62,o),
(115,189,o),
(115,343,cs),
(115,499,o),
(239,623,o),
(395,623,cs),
(513,623,o),
(614,552,o),
(657,442,c),
(731,442,l),
(686,591,o),
(553,693,o),
(388,693,cs),
(196,693,o),
(45,527,o),
(45,342.5,cs),
(45,147,o),
(204,-8,o),
(395,-8,cs)
);
}
);
width = 791;
},
{
anchors = (
{
name = bottom;
pos = (400,-10);
},
{
name = top;
pos = (400,674);
}
);
hints = (
{
horizontal = 1;
origin = (0,28);
target = (0,9);
type = Stem;
},
{
horizontal = 1;
origin = (0,5);
target = (0,4);
type = Stem;
},
{
horizontal = 1;
origin = (0,22);
target = (0,15);
type = Stem;
},
{
origin = (0,25);
target = (0,12);
type = Stem;
}
);
layerId = "B86D9C3C-D3FC-40C7-BC9B-EF4509240B31";
shapes = (
{
closed = 1;
nodes = (
(594,-10,o),
(749,147,o),
(749,340,cs),
(749,363,l),
(414,363,l),
(414,250,l),
(587,250,l),
(550,147,o),
(466,126,o),
(400,126,cs),
(292,126,o),
(202,223,o),
(202,338,cs),
(202,453,o),
(292,550,o),
(400,550,cs),
(466,550,o),
(534,523,o),
(567,451,c),
(732,451,l),
(685,592,o),
(550,690,o),
(400,690,cs),
(208,690,o),
(50,532,o),
(50,340,cs),
(50,148,o),
(208,-10,o),
(400,-10,cs)
);
}
);
width = 784;
},
{
anchors = (
{
name = bottom;
pos = (401,-10);
},
{
name = top;
pos = (404,669);
}
);
hints = (
{
horizontal = 1;
origin = (0,28);
target = (0,9);
type = Stem;
},
{
horizontal = 1;
origin = (0,5);
target = (0,4);
type = Stem;
},
{
horizontal = 1;
origin = (0,22);
target = (0,15);
type = Stem;
},
{
origin = (0,25);
target = (0,12);
type = Stem;
}
);
layerId = "20FD933E-5CCA-4ADC-839D-1BAE82A4B007";
shapes = (
{
closed = 1;
nodes = (
(606,-11,o),
(762,161,o),
(752,361,cs),
(750,378,l),
(421,378,l),
(421,248,l),
(560,248,l),
(524,150,o),
(448,147,o),
(402,147,cs),
(310,147,o),
(231,234,o),
(231,336,cs),
(231,438,o),
(310,526,o),
(402,526,cs),
(450,526,o),
(507,513,o),
(537,454,c),
(732,454,l),
(685,592,o),
(549,689,o),
(404,689,cs),
(212,689,o),
(52,534,o),
(52,339,cs),
(52,148,o),
(209,-11,o),
(402,-11,cs)
);
}
);
width = 782;
}
);
note = G;
unicode = 71;
},
{
glyphname = H;
lastChange = "2023-12-15 17:47:40 +0000";
layers = (
{
hints = (
{
horizontal = 1;
origin = (0,11);
target = up;
type = BottomGhost;
},
{
horizontal = 1;
origin = (0,1);
target = (0,8);
type = Stem;
},
{
horizontal = 1;
origin = (0,10);
target = down;
type = TopGhost;
},
{
origin = (0,11);
target = (0,0);
type = Stem;
},
{
origin = (0,3);
target = (0,4);
type = Stem;
}
);
layerId = m01;
shapes = (
{
closed = 1;
nodes = (
(145,0,l),
(145,304,l),
(454,304,l),
(454,0,l),
(524,0,l),
(524,680,l),
(454,680,l),
(454,374,l),
(145,374,l),
(145,680,l),
(75,680,l),
(75,0,l)
);
}
);
width = 599;
},
{
hints = (
{
horizontal = 1;
origin = (0,11);
target = up;
type = BottomGhost;
},
{
horizontal = 1;
origin = (0,1);
target = (0,8);
type = Stem;
},
{
horizontal = 1;
origin = (0,10);
target = down;
type = TopGhost;
},
{
origin = (0,11);
target = (0,0);
type = Stem;
},
{
origin = (0,3);
target = (0,4);
type = Stem;
}
);
layerId = "B86D9C3C-D3FC-40C7-BC9B-EF4509240B31";
shapes = (
{
closed = 1;
nodes = (
(210,0,l),
(210,273,l),
(454,273,l),
(454,0,l),
(604,0,l),
(604,680,l),
(454,680,l),
(454,409,l),
(210,409,l),
(210,680,l),
(60,680,l),
(60,0,l)
);
}
);
width = 664;
},
{
hints = (
{
horizontal = 1;
origin = (0,11);
target = up;
type = BottomGhost;
},
{
horizontal = 1;
origin = (0,1);
target = (0,8);
type = Stem;
},
{
horizontal = 1;
origin = (0,10);
target = down;
type = TopGhost;
},
{
origin = (0,11);
target = (0,0);
type = Stem;
},
{
origin = (0,3);
target = (0,4);
type = Stem;
}
);
layerId = "20FD933E-5CCA-4ADC-839D-1BAE82A4B007";
shapes = (
{
closed = 1;
nodes = (
(232,0,l),
(232,263,l),
(454,263,l),
(454,0,l),
(631,0,l),
(631,680,l),
(454,680,l),
(454,421,l),
(232,421,l),
(232,680,l),
(55,680,l),
(55,0,l)
);
}
);
width = 686;
}
);
note = H;
unicode = 72;
},
{
glyphname = I;
lastChange = "2023-12-15 17:47:40 +0000";
layers = (
{
anchors = (
{
name = ogonek;
pos = (234,0);
},
{
name = top;
pos = (145,680);
}
);
hints = (
{
horizontal = 1;
origin = (1,3);
target = (1,2);
type = Stem;
},
{
horizontal = 1;
origin = (2,2);
target = (2,3);
type = Stem;
},
{
origin = (0,3);
target = (0,0);
type = Stem;
}
);
layerId = m01;
shapes = (
{
closed = 1;
nodes = (
(185,20,l),
(185,660,l),
(115,660,l),
(115,20,l)
);
},
{
closed = 1;
nodes = (
(260,0,l),
(260,65,l),
(40,65,l),
(40,0,l)
);
},
{
closed = 1;
nodes = (
(260,615,l),
(260,680,l),
(40,680,l),
(40,615,l)
);
}
);
width = 300;
},
{
anchors = (
{
name = ogonek;
pos = (316,0);
},
{
name = top;
pos = (207,680);
}
);
hints = (
{
horizontal = 1;
origin = (1,3);
target = (1,2);
type = Stem;
},
{
horizontal = 1;
origin = (2,2);
target = (2,3);
type = Stem;
},
{
place = (130.5,150);
type = Stem;
}
);
layerId = "B86D9C3C-D3FC-40C7-BC9B-EF4509240B31";
shapes = (
{
closed = 1;
nodes = (
(280,20,l),
(281,660,l),
(131,660,l),
(130,20,l)
);
},
{
closed = 1;
nodes = (
(360,0,l),
(361,136,l),
(51,136,l),
(50,0,l)
);
},
{
closed = 1;
nodes = (
(360,544,l),
(360,680,l),
(50,680,l),
(50,544,l)
);
}
);
width = 411;
},
{
anchors = (
{
name = ogonek;
pos = (343,0);
},
{
name = top;
pos = (228,680);
}
);
hints = (
{
horizontal = 1;
origin = (1,3);
target = (1,2);
type = Stem;
},
{
horizontal = 1;
origin = (2,2);
target = (2,3);
type = Stem;
},
{
place = (135.5,177);
type = Stem;
}
);
layerId = "20FD933E-5CCA-4ADC-839D-1BAE82A4B007";
shapes = (
{
closed = 1;
nodes = (
(312,20,l),
(313,660,l),
(136,660,l),
(135,20,l)
);
},
{
closed = 1;
nodes = (
(393,0,l),
(395,160,l),
(55,160,l),
(53,0,l)
);
},
{
closed = 1;
nodes = (
(393,520,l),
(393,680,l),
(53,680,l),
(53,520,l)
);
}
);
width = 448;
}
);
note = I;
unicode = 73;
},
{
glyphname = J;
lastChange = "2023-12-15 17:47:40 +0000";
layers = (
{
hints = (
{
horizontal = 1;
origin = (0,15);
target = (0,12);
type = Stem;
},
{
horizontal = 1;
origin = (0,4);
target = down;
type = TopGhost;
},
{
origin = (0,5);
target = (0,2);
type = Stem;
}
);
layerId = m01;
shapes = (
{
closed = 1;
nodes = (
(245,-8,o),
(321,47,o),
(321,170,cs),
(321,680,l),
(251,680,l),
(251,170,ls),
(251,95,o),
(217,61,o),
(159,61,cs),
(129,61,o),
(88,96,o),
(71,119,c),
(30,61,l),
(61,26,o),
(106,-8,o),
(158,-8,cs)
);
}
);
width = 381;
},
{
hints = (
{
horizontal = 1;
origin = (0,15);
target = (0,8);
type = Stem;
},
{
horizontal = 1;
origin = (0,4);
target = down;
type = TopGhost;
},
{
origin = (0,5);
target = (0,2);
type = Stem;
}
);
layerId = "B86D9C3C-D3FC-40C7-BC9B-EF4509240B31";
shapes = (
{
closed = 1;
nodes = (
(381,-10,o),
(484,61,o),
(484,255,cs),
(484,680,l),
(334,680,l),
(334,267,ls),
(334,196,o),
(330,134,o),
(233,134,cs),
(193,134,o),
(150,180,o),
(121,240,c),
(33,111,l),
(49,71,o),
(128,-10,o),
(233,-10,cs)
);
}
);
width = 534;
},
{
hints = (
{
horizontal = 1;
origin = (0,15);
target = (0,8);
type = Stem;
},
{
horizontal = 1;
origin = (0,4);
target = down;
type = TopGhost;
},
{
origin = (0,5);
target = (0,2);
type = Stem;
}
);
layerId = "20FD933E-5CCA-4ADC-839D-1BAE82A4B007";
shapes = (
{
closed = 1;
nodes = (
(426,-11,o),
(538,66,o),
(538,283,cs),
(538,680,l),
(362,680,l),
(362,299,ls),
(362,230,o),
(368,158,o),
(258,158,cs),
(214,158,o),
(171,208,o),
(138,280,c),
(34,128,l),
(45,86,o),
(135,-11,o),
(258,-11,cs)
);
}
);
width = 585;
}
);
note = J;
unicode = 74;
},
{
glyphname = K;
lastChange = "2023-12-15 17:47:40 +0000";
layers = (
{
anchors = (
{
name = bottom;
pos = (248,5);
}
);
hints = (
{
horizontal = 1;
origin = (0,10);
target = up;
type = BottomGhost;
},
{
horizontal = 1;
origin = (0,9);
target = down;
type = TopGhost;
},
{
origin = (0,10);
target = (0,0);
type = Stem;
}
);
layerId = m01;
shapes = (
{
closed = 1;
nodes = (
(145,0,l),
(145,319.1,l),
(374,0,l),
(464,0,l),
(214,340,l),
(464,680,l),
(374,680,l),
(145,360.9,l),
(145,680,l),
(75,680,l),
(75,0,l)
);
}
);
width = 474;
},
{
anchors = (
{
name = bottom;
pos = (289,5);
}
);
hints = (
{
horizontal = 1;
origin = (0,10);
target = up;
type = BottomGhost;
},
{
horizontal = 1;
origin = (0,9);
target = down;
type = TopGhost;
},
{
origin = (0,10);
target = (0,0);
type = Stem;
}
);
layerId = "B86D9C3C-D3FC-40C7-BC9B-EF4509240B31";
shapes = (
{
closed = 1;
nodes = (
(210,0,l),
(210,304,l),
(425,0,l),
(627,0,l),
(356,340,l),
(617,680,l),
(425,680,l),
(210,376,l),
(210,680,l),
(60,680,l),
(60,0,l)
);
}
);
width = 632;
},
{
anchors = (
{
name = bottom;
pos = (303,5);
}
);
hints = (
{
horizontal = 1;
origin = (0,10);
target = up;
type = BottomGhost;
},
{
horizontal = 1;
origin = (0,9);
target = down;
type = TopGhost;
},
{
origin = (0,10);
target = (0,0);
type = Stem;
}
);
layerId = "20FD933E-5CCA-4ADC-839D-1BAE82A4B007";
shapes = (
{
closed = 1;
nodes = (
(232,0,l),
(232,299,l),
(442,0,l),
(681,0,l),
(403,340,l),
(668,680,l),
(442,680,l),
(232,381,l),
(232,680,l),
(55,680,l),
(55,0,l)
);
}
);
width = 685;
}
);
note = K;
unicode = 75;
},
{
glyphname = L;
lastChange = "2023-12-15 17:47:40 +0000";
layers = (
{
anchors = (
{
name = bottom;
pos = (220,0);
},
{
name = top;
pos = (107,681);
}
);
hints = (
{
horizontal = 1;
origin = (0,5);
target = (0,2);
type = Stem;
},
{
horizontal = 1;
origin = (0,4);
target = down;
type = TopGhost;
},
{
origin = (0,5);
target = (0,2);
type = Stem;
}
);
layerId = m01;
shapes = (
{
closed = 1;
nodes = (
(428,0,l),
(428,70,l),
(145,70,l),
(145,680,l),
(75,680,l),
(75,0,l)
);
}
);
width = 468;
},
{
anchors = (
{
name = bottom;
pos = (255,0);
},
{
name = top;
pos = (131,679);
}
);
hints = (
{
horizontal = 1;
origin = (0,5);
target = (0,2);
type = Stem;
},
{
horizontal = 1;
origin = (0,4);
target = down;
type = TopGhost;
},
{
origin = (0,5);
target = (0,2);
type = Stem;
}
);
layerId = "B86D9C3C-D3FC-40C7-BC9B-EF4509240B31";
shapes = (
{
closed = 1;
nodes = (
(504,0,l),
(504,136,l),
(210,136,l),
(210,680,l),
(60,680,l),
(60,0,l)
);
}
);
width = 544;
},
{
anchors = (
{
name = bottom;
pos = (267,0);
},
{
name = top;
pos = (139,678);
}
);
hints = (
{
horizontal = 1;
origin = (0,5);
target = (0,2);
type = Stem;
},
{
horizontal = 1;
origin = (0,4);
target = down;
type = TopGhost;
},
{
origin = (0,5);
target = (0,2);
type = Stem;
}
);
layerId = "20FD933E-5CCA-4ADC-839D-1BAE82A4B007";
shapes = (
{
closed = 1;
nodes = (
(529,0,l),
(529,158,l),
(232,158,l),
(232,680,l),
(55,680,l),
(55,0,l)
);
}
);
width = 569;
}
);
note = L;
unicode = 76;
},
{
glyphname = M;
lastChange = "2023-12-15 17:47:40 +0000";
layers = (
{
hints = (
{
horizontal = 1;
origin = (0,12);
target = up;
type = BottomGhost;
},
{
horizontal = 1;
origin = (0,11);
target = down;
type = TopGhost;
}
);
layerId = m01;
shapes = (
{
closed = 1;
nodes = (
(82,0,l),
(187,484,l),
(375,4,l),
(409,4,l),
(596,484,l),
(702,0,l),
(773,0,l),
(624,682,l),
(598,682,l),
(392,143,l),
(186,682,l),
(159,682,l),
(10,0,l)
);
}
);
width = 783;
},
{
hints = (
{
horizontal = 1;
origin = (0,12);
target = up;
type = BottomGhost;
},
{
horizontal = 1;
origin = (0,11);
target = down;
type = TopGhost;
}
);
layerId = "B86D9C3C-D3FC-40C7-BC9B-EF4509240B31";
shapes = (
{
closed = 1;
nodes = (
(180,0,l),
(260,469,l),
(393,0,l),
(540,0,l),
(673,469,l),
(753,0,l),
(918,0,l),
(786,680,l),
(608,680,l),
(467,203,l),
(325,680,l),
(147,680,l),
(15,0,l)
);
}
);
width = 933;
},
{
hints = (
{
horizontal = 1;
origin = (0,12);
target = up;
type = BottomGhost;
},
{
horizontal = 1;
origin = (0,11);
target = down;
type = TopGhost;
},
{
horizontal = 1;
origin = (0,2);
target = up;
type = BottomGhost;
}
);
layerId = "20FD933E-5CCA-4ADC-839D-1BAE82A4B007";
shapes = (
{
closed = 1;
nodes = (
(213,0,l),
(284,464,l),
(399,-1,l),
(584,-1,l),
(699,464,l),
(770,0,l),
(966,0,l),
(840,679,l),
(611,679,l),
(492,223,l),
(371,679,l),
(143,679,l),
(17,0,l)
);
}
);
width = 983;
}
);
note = M;
unicode = 77;
},
{
glyphname = N;
lastChange = "2023-12-15 17:47:40 +0000";
layers = (
{
anchors = (
{
name = bottom;
pos = (319,0);
},
{
name = top;
pos = (282,673);
}
);
hints = (
{
horizontal = 1;
origin = (0,9);
target = up;
type = BottomGhost;
},
{
horizontal = 1;
origin = (0,8);
target = down;
type = TopGhost;
},
{
horizontal = 1;
origin = (0,2);
target = up;
type = BottomGhost;
},
{
origin = (0,9);
target = (0,0);
type = Stem;
},
{
origin = (0,6);
target = (0,3);
type = Stem;
}
);
layerId = m01;
shapes = (
{
closed = 1;
nodes = (
(145,0,l),
(145,501,l),
(497,1,l),
(527,1,l),
(527,680,l),
(457,680,l),
(457,180,l),
(105,680,l),
(75,680,l),
(75,0,l)
);
}
);
width = 602;
},
{
anchors = (
{
name = bottom;
pos = (318,0);
},
{
name = top;
pos = (328,677);
}
);
hints = (
{
horizontal = 1;
origin = (0,9);
target = up;
type = BottomGhost;
},
{
horizontal = 1;
origin = (0,8);
target = down;
type = TopGhost;
},
{
origin = (0,9);
target = (0,0);
type = Stem;
},
{
origin = (0,2);
target = (0,3);
type = Stem;
}
);
layerId = "B86D9C3C-D3FC-40C7-BC9B-EF4509240B31";
shapes = (
{
closed = 1;
nodes = (
(210,0,l),
(210,424,l),
(444,0,l),
(594,0,l),
(594,680,l),
(444,680,l),
(444,256,l),
(210,680,l),
(60,680,l),
(60,0,l)
);
}
);
width = 654;
},
{
anchors = (
{
name = bottom;
pos = (318,0);
},
{
name = top;
pos = (343,678);
}
);
hints = (
{
horizontal = 1;
origin = (0,9);
target = up;
type = BottomGhost;
},
{
horizontal = 1;
origin = (0,8);
target = down;
type = TopGhost;
},
{
origin = (0,9);
target = (0,0);
type = Stem;
},
{
origin = (0,6);
target = (0,3);
type = Stem;
}
);
layerId = "20FD933E-5CCA-4ADC-839D-1BAE82A4B007";
shapes = (
{
closed = 1;
nodes = (
(232,0,l),
(232,398,l),
(426,0,l),
(616,0,l),
(616,680,l),
(440,680,l),
(440,281,l),
(245,680,l),
(55,680,l),
(55,0,l)
);
}
);
width = 671;
}
);
note = N;
unicode = 78;
},
{
glyphname = Eng;
lastChange = "2023-12-15 17:47:40 +0000";
layers = (
{
hints = (
{
horizontal = 1;
origin = (1,9);
target = (1,8);
type = Stem;
},
{
origin = (1,5);
target = (1,2);
type = Stem;
}
);
layerId = m01;
shapes = (
{
ref = N;
},
{
closed = 1;
nodes = (
(469,-175,o),
(527,-101,o),
(527,-16,cs),
(527,135,l),
(457,135,l),
(457,-17,ls),
(457,-71,o),
(426,-107,o),
(375,-107,c),
(375,-175,l),
(387,-175,l)
);
}
);
width = 602;
},
{
hints = (
{
horizontal = 1;
origin = (1,9);
target = (1,8);
type = Stem;
},
{
origin = (1,5);
target = (1,2);
type = Stem;
}
);
layerId = "B86D9C3C-D3FC-40C7-BC9B-EF4509240B31";
shapes = (
{
ref = N;
},
{
closed = 1;
nodes = (
(544,-230,o),
(593,-132,o),
(593,-23,cs),
(593,114,l),
(443,114,l),
(443,-19,ls),
(443,-56,o),
(429,-90,o),
(384,-90,c),
(384,-230,l),
(401,-230,l)
);
}
);
width = 654;
},
{
hints = (
{
horizontal = 1;
origin = (1,9);
target = (1,8);
type = Stem;
},
{
origin = (1,5);
target = (1,2);
type = Stem;
}
);
layerId = "20FD933E-5CCA-4ADC-839D-1BAE82A4B007";
shapes = (
{
alignment = -1;
ref = N;
},
{
closed = 1;
nodes = (
(569,-248,o),
(615,-142,o),
(615,-25,cs),
(615,107,l),
(438,107,l),
(438,-20,ls),
(438,-51,o),
(430,-84,o),
(387,-84,c),
(387,-248,l),
(406,-248,l)
);
}
);
width = 671;
}
);
unicode = 330;
},
{
glyphname = O;
kernLeft = COG;
kernRight = DOC;
lastChange = "2023-12-15 17:47:40 +0000";
layers = (
{
anchors = (
{
name = top;
pos = (396,692);
}
);
hints = (
{
horizontal = 1;
origin = (0,11);
target = (1,11);
type = Stem;
},
{
horizontal = 1;
origin = (0,5);
target = (1,5);
type = Stem;
},
{
origin = (0,8);
target = (1,2);
type = Stem;
},
{
origin = (1,8);
target = (0,2);
type = Stem;
}
);
layerId = m01;
shapes = (
{
closed = 1;
nodes = (
(581,-8,o),
(744,143,o),
(744,342,cs),
(744,536,o),
(588,691,o),
(394,691,cs),
(202,691,o),
(45,534,o),
(45,342,cs),
(45,151,o),
(203,-8,o),
(394,-8,cs)
);
},
{
closed = 1;
nodes = (
(239,62,o),
(115,187,o),
(115,342,cs),
(115,497,o),
(239,621,o),
(394,621,cs),
(549,621,o),
(674,497,o),
(674,342,cs),
(674,186,o),
(550,62,o),
(394,62,cs)
);
}
);
width = 789;
},
{
anchors = (
{
name = top;
pos = (384,689);
}
);
hints = (
{
horizontal = 1;
origin = (0,11);
target = (1,11);
type = Stem;
},
{
horizontal = 1;
origin = (0,5);
target = (1,5);
type = Stem;
},
{
origin = (0,8);
target = (1,2);
type = Stem;
},
{
origin = (1,8);
target = (0,2);
type = Stem;
}
);
layerId = "B86D9C3C-D3FC-40C7-BC9B-EF4509240B31";
shapes = (
{
closed = 1;
nodes = (
(573,-10,o),
(735,152,o),
(735,340,cs),
(735,528,o),
(573,690,o),
(385,690,cs),
(197,690,o),
(35,528,o),
(35,340,cs),
(35,152,o),
(197,-10,o),
(385,-10,cs)
);
},
{
closed = 1;
nodes = (
(280,140,o),
(185,236,o),
(185,341,cs),
(185,446,o),
(280,541,o),
(385,541,cs),
(490,541,o),
(585,446,o),
(585,341,cs),
(585,236,o),
(490,140,o),
(385,140,cs)
);
}
);
width = 770;
},
{
anchors = (
{
name = top;
pos = (380,688);
}
);
hints = (
{
horizontal = 1;
origin = (0,11);
target = (1,11);
type = Stem;
},
{
horizontal = 1;
origin = (1,5);
target = (0,5);
type = Stem;
},
{
origin = (0,8);
target = (1,2);
type = Stem;
},
{
origin = (1,8);
target = (0,2);
type = Stem;
}
);
layerId = "20FD933E-5CCA-4ADC-839D-1BAE82A4B007";
shapes = (
{
closed = 1;
nodes = (
(570,-11,o),
(732,155,o),
(732,339,cs),
(732,525,o),
(568,690,o),
(382,690,cs),
(195,690,o),
(32,526,o),
(32,339,cs),
(32,152,o),
(195,-11,o),
(382,-11,cs)
);
},
{
closed = 1;
nodes = (
(294,166,o),
(208,252,o),
(208,341,cs),
(208,429,o),
(294,514,o),
(382,514,cs),
(470,514,o),
(555,429,o),
(555,341,cs),
(555,253,o),
(470,166,o),
(382,166,cs)
);
}
);
width = 764;
}
);
note = O;
unicode = 79;
},
{
glyphname = Oslash;
lastChange = "2023-12-15 17:47:40 +0000";
layers = (
{
hints = (
{
horizontal = 1;
origin = (0,23);
target = (1,9);
type = Stem;
},
{
horizontal = 1;
origin = (0,11);
target = (2,5);
type = Stem;
},
{
origin = (0,14);
target = (2,2);
type = Stem;
},
{
origin = (1,6);
target = (0,2);
type = Stem;
}
);
layerId = m01;
shapes = (
{
closed = 1;
nodes = (
(579,-8,o),
(744,140,o),
(744,342,cs),
(744,427,o),
(715,504,o),
(661,568,c),
(704,610,l),
(665,649,l),
(622,607,l),
(560,660,o),
(482,691,o),
(394,691,cs),
(194,691,o),
(45,527,o),
(45,342,cs),
(45,246,o),
(84,167,o),
(129,114,c),
(85,70,l),
(124,31,l),
(168,75,l),
(217,34,o),
(297,-8,o),
(394,-8,cs)
);
},
{
closed = 1;
nodes = (
(327,62,o),
(268,83,o),
(218,125,c),
(612,518,l),
(653,467,o),
(674,409,o),
(674,342,cs),
(674,186,o),
(550,62,o),
(394,62,cs)
);
},
{
closed = 1;
nodes = (
(136,214,o),
(115,274,o),
(115,342,cs),
(115,496,o),
(240,621,o),
(394,621,cs),
(462,621,o),
(522,600,o),
(573,557,c),
(179,164,l)
);
}
);
width = 789;
},
{
hints = (
{
horizontal = 1;
origin = (0,23);
target = (1,9);
type = Stem;
},
{
horizontal = 1;
origin = (0,11);
target = (2,5);
type = Stem;
},
{
origin = (0,14);
target = (2,2);
type = Stem;
},
{
origin = (1,6);
target = (0,2);
type = Stem;
}
);
layerId = "B86D9C3C-D3FC-40C7-BC9B-EF4509240B31";
shapes = (
{
closed = 1;
nodes = (
(573,-10,o),
(735,152,o),
(735,340,cs),
(735,420.06,o),
(705.62,495.41,o),
(657.36,555.54,c),
(738,634.93,l),
(681.43,691.5,l),
(600.82,612.13,l),
(540.65,660.52,o),
(465.19,690,o),
(385,690,cs),
(197,690,o),
(35,528,o),
(35,340,cs),
(35,261.67,o),
(63.12,187.86,o),
(109.52,128.4,c),
(32,52.07,l),
(88.57,-4.5,l),
(165.29,71.04,l),
(226.09,20.77,o),
(303.08,-10,o),
(385,-10,cs)
);
},
{
closed = 1;
nodes = (
(344.72,139.99,o),
(305.92,154.12,o),
(273.38,177.46,c),
(549.89,449.71,l),
(571.83,417.78,o),
(585,380.08,o),
(585,340.99,cs),
(585,235.99,o),
(490,139.99,o),
(385,139.99,cs)
);
},
{
closed = 1;
nodes = (
(197.31,266.58,o),
(185,303.21,o),
(185,341,cs),
(185,446,o),
(280,541,o),
(385,541,cs),
(423.89,541,o),
(461.42,527.96,o),
(493.25,506.21,c),
(217.96,235.17,l)
);
}
);
width = 770;
},
{
hints = (
{
horizontal = 1;
origin = (0,23);
target = (1,9);
type = Stem;
},
{
horizontal = 1;
origin = (2,5);
target = (0,11);
type = Stem;
},
{
horizontal = 1;
origin = (0,19);
target = up;
type = BottomGhost;
},
{
origin = (0,14);
target = (2,2);
type = Stem;
},
{
origin = (1,6);
target = (0,2);
type = Stem;
}
);
layerId = "20FD933E-5CCA-4ADC-839D-1BAE82A4B007";
shapes = (
{
closed = 1;
nodes = (
(571,-11,o),
(732,156,o),
(732,339,cs),
(732,418,o),
(702,493,o),
(656,551,c),
(749,643,l),
(687,706,l),
(594,614,l),
(534,661,o),
(460,690,o),
(382,690,cs),
(198,690,o),
(32,528,o),
(32,339,cs),
(32,267,o),
(56,195,o),
(103,133,c),
(14,46,l),
(77,-16,l),
(164,70,l),
(229,16,o),
(305,-11,o),
(382,-11,cs)
);
},
{
closed = 1;
nodes = (
(351,166,o),
(319,178,o),
(292,195,c),
(529,427,l),
(545,401,o),
(555,370,o),
(555,341,cs),
(555,253,o),
(470,166,o),
(382,166,cs)
);
},
{
closed = 1;
nodes = (
(218,284,o),
(208,313,o),
(208,341,cs),
(208,429,o),
(293,514,o),
(382,514,cs),
(411,514,o),
(441,504,o),
(467,489,c),
(231,259,l)
);
}
);
width = 764;
}
);
note = Oslash;
unicode = 216;
},
{
glyphname = OE;
kernLeft = COG;
lastChange = "2023-12-15 17:47:40 +0000";
layers = (
{
hints = (
{
horizontal = 1;
origin = (0,16);
target = (0,2);
type = Stem;
},
{
horizontal = 1;
origin = (0,3);
target = (0,6);
type = Stem;
},
{
horizontal = 1;
origin = (0,10);
target = (0,7);
type = Stem;
},
{
horizontal = 1;
origin = (0,16);
target = (1,8);
type = Stem;
},
{
horizontal = 1;
origin = (0,10);
target = (1,5);
type = Stem;
},
{
origin = (0,13);
target = (1,2);
type = Stem;
},
{
origin = (1,7);
target = (0,2);
type = Stem;
}
);
layerId = m01;
shapes = (
{
closed = 1;
nodes = (
(937,0.38,l),
(937,65.38,l),
(603,65.38,l),
(603,307.38,l),
(927,307.38,l),
(927,373.38,l),
(603,373.38,l),
(603,615.38,l),
(937,615.38,l),
(937,680.38,l),
(425,680,ls),
(229,680,o),
(75,536,o),
(75,340,cs),
(75,140,o),
(233,0,o),
(425,0,c)
);
},
{
closed = 1;
nodes = (
(266,70,o),
(143,183,o),
(143,340,cs),
(143,497,o),
(266,610,o),
(423,610,cs),
(533,610,l),
(533,70,l),
(423,70,ls)
);
}
);
width = 998;
},
{
hints = (
{
horizontal = 1;
origin = (0,16);
target = (0,2);
type = Stem;
},
{
horizontal = 1;
origin = (0,3);
target = (0,6);
type = Stem;
},
{
horizontal = 1;
origin = (0,10);
target = (0,7);
type = Stem;
},
{
horizontal = 1;
origin = (0,16);
target = (1,8);
type = Stem;
},
{
horizontal = 1;
origin = (0,10);
target = (1,5);
type = Stem;
},
{
origin = (0,13);
target = (1,2);
type = Stem;
},
{
origin = (1,7);
target = (0,2);
type = Stem;
}
);
layerId = "B86D9C3C-D3FC-40C7-BC9B-EF4509240B31";
shapes = (
{
closed = 1;
nodes = (
(845,0,l),
(845,136,l),
(601,136,l),
(601,273,l),
(835,273,l),
(835,409,l),
(601,409,l),
(601,544,l),
(845,544,l),
(845,680,l),
(398,680,l),
(206,680,o),
(60,532,o),
(60,340,cs),
(60,148,o),
(205,0,o),
(398,0,c)
);
},
{
closed = 1;
nodes = (
(292,138,o),
(213,227,o),
(213,340,cs),
(213,453,o),
(291,541,o),
(407,541,cs),
(452,541,l),
(452,138,l),
(407,138,ls)
);
}
);
width = 905;
},
{
hints = (
{
horizontal = 1;
origin = (0,16);
target = (0,2);
type = Stem;
},
{
horizontal = 1;
origin = (0,3);
target = (0,6);
type = Stem;
},
{
horizontal = 1;
origin = (0,10);
target = (0,7);
type = Stem;
},
{
horizontal = 1;
origin = (0,16);
target = (1,8);
type = Stem;
},
{
horizontal = 1;
origin = (0,10);
target = (1,5);
type = Stem;
},
{
origin = (0,13);
target = (1,2);
type = Stem;
},
{
origin = (1,7);
target = (0,2);
type = Stem;
}
);
layerId = "20FD933E-5CCA-4ADC-839D-1BAE82A4B007";
shapes = (
{
closed = 1;
nodes = (
(814,0,l),
(814,160,l),
(600,160,l),
(600,262,l),
(804,262,l),
(804,421,l),
(600,421,l),
(600,520,l),
(814,520,l),
(814,680,l),
(389,680,ls),
(198,680,o),
(55,531,o),
(55,340,cs),
(55,151,o),
(196,0,o),
(389,0,c)
);
},
{
closed = 1;
nodes = (
(301,161,o),
(236,242,o),
(236,340,cs),
(236,438,o),
(299,518,o),
(402,518,cs),
(425,518,l),
(425,161,l),
(402,161,ls)
);
}
);
width = 874;
}
);
note = OE;
unicode = 338;
},
{
glyphname = P;
lastChange = "2023-12-15 17:47:40 +0000";
layers = (
{
hints = (
{
horizontal = 1;
origin = (0,10);
target = up;
type = BottomGhost;
},
{
horizontal = 1;
origin = (0,1);
target = (1,8);
type = Stem;
},
{
horizontal = 1;
origin = (0,9);
target = (1,0);
type = Stem;
},
{
origin = (0,10);
target = (0,0);
type = Stem;
},
{
origin = (1,4);
target = (0,5);
type = Stem;
}
);
layerId = m01;
shapes = (
{
closed = 1;
nodes = (
(145,0.27,l),
(145,269.27,l),
(293,269.27,ls),
(414,269,o),
(509,355,o),
(509,475.27,cs),
(509,598,o),
(411,680,o),
(293,680.27,cs),
(75,680.27,l),
(75,0.27,l)
);
},
{
closed = 1;
nodes = (
(145,614,l),
(303,614,ls),
(386,614,o),
(439,558,o),
(439,477.06,cs),
(439,398,o),
(383,335,o),
(303,335,cs),
(145,335,l)
);
}
);
width = 529;
},
{
hints = (
{
horizontal = 1;
origin = (0,10);
target = up;
type = BottomGhost;
},
{
horizontal = 1;
origin = (0,1);
target = (1,8);
type = Stem;
},
{
horizontal = 1;
origin = (0,9);
target = (1,0);
type = Stem;
},
{
origin = (0,10);
target = (0,0);
type = Stem;
},
{
origin = (1,4);
target = (0,5);
type = Stem;
}
);
layerId = "B86D9C3C-D3FC-40C7-BC9B-EF4509240B31";
shapes = (
{
closed = 1;
nodes = (
(210,0,l),
(210,243,l),
(342,243,ls),
(452,243,o),
(550,324,o),
(550,462,cs),
(550,591,o),
(452,680,o),
(342,680,c),
(60,680,l),
(60,0,l)
);
},
{
closed = 1;
nodes = (
(210,562,l),
(310,562,ls),
(354,562,o),
(400,524,o),
(400,462,cs),
(400,397,o),
(354,361,o),
(310,361,cs),
(210,361,l)
);
}
);
width = 575;
},
{
hints = (
{
horizontal = 1;
origin = (0,10);
target = up;
type = BottomGhost;
},
{
horizontal = 1;
origin = (0,1);
target = (1,8);
type = Stem;
},
{
horizontal = 1;
origin = (0,9);
target = (1,0);
type = Stem;
},
{
origin = (0,10);
target = (0,0);
type = Stem;
},
{
origin = (1,4);
target = (0,5);
type = Stem;
}
);
layerId = "20FD933E-5CCA-4ADC-839D-1BAE82A4B007";
shapes = (
{
closed = 1;
nodes = (
(232,0,l),
(232,234,l),
(358,234,ls),
(465,234,o),
(564,314,o),
(564,458,cs),
(564,589,o),
(466,680,o),
(358,680,cs),
(55,680,l),
(55,0,l)
);
},
{
closed = 1;
nodes = (
(232,545,l),
(312,545,ls),
(343,545,o),
(387,513,o),
(387,457,cs),
(387,397,o),
(344,369,o),
(312,369,cs),
(232,369,l)
);
}
);
width = 590;
}
);
note = P;
unicode = 80;
},
{
glyphname = Thorn;
lastChange = "2023-12-15 17:47:40 +0000";
layers = (
{
hints = (
{
horizontal = 1;
origin = (0,12);
target = up;
type = BottomGhost;
},
{
horizontal = 1;
origin = (0,1);
target = (1,8);
type = Stem;
},
{
horizontal = 1;
origin = (1,0);
target = (0,9);
type = Stem;
},
{
horizontal = 1;
origin = (0,11);
target = (1,0);
type = Stem;
},
{
origin = (0,12);
target = (0,0);
type = Stem;
},
{
origin = (1,4);
target = (0,5);
type = Stem;
}
);
layerId = m01;
shapes = (
{
closed = 1;
nodes = (
(145,0,l),
(145,169,l),
(293,169,ls),
(415,169,o),
(509,256,o),
(509,375,cs),
(509,499,o),
(410,580,o),
(293,580,cs),
(145,580,l),
(145,680.29,l),
(75,680.29,l),
(75,0,l)
);
},
{
closed = 1;
nodes = (
(145,514,l),
(303,514,ls),
(386,514,o),
(439,457,o),
(439,376.79,cs),
(439,299,o),
(385,235,o),
(303,235,cs),
(145,235,l)
);
}
);
width = 529;
},
{
hints = (
{
horizontal = 1;
origin = (0,12);
target = up;
type = BottomGhost;
},
{
horizontal = 1;
origin = (0,1);
target = (1,8);
type = Stem;
},
{
horizontal = 1;
origin = (1,0);
target = (0,9);
type = Stem;
},
{
origin = (0,12);
target = (0,0);
type = Stem;
},
{
origin = (1,4);
target = (0,5);
type = Stem;
}
);
layerId = "B86D9C3C-D3FC-40C7-BC9B-EF4509240B31";
shapes = (
{
closed = 1;
nodes = (
(210,0,l),
(210,173,l),
(315,173,ls),
(425,173,o),
(523,254,o),
(523,392,cs),
(523,521,o),
(425,610,o),
(315,610,cs),
(210,610,l),
(210,750,l),
(60,750,l),
(60,0,l)
);
},
{
closed = 1;
nodes = (
(210,492,l),
(290,492,ls),
(334,492,o),
(380,454,o),
(380,392,cs),
(380,327,o),
(334,291,o),
(290,291,cs),
(210,291,l)
);
}
);
width = 538;
},
{
hints = (
{
horizontal = 1;
origin = (0,12);
target = up;
type = BottomGhost;
},
{
horizontal = 1;
origin = (0,1);
target = (1,8);
type = Stem;
},
{
horizontal = 1;
origin = (1,0);
target = (0,9);
type = Stem;
},
{
origin = (0,12);
target = (0,0);
type = Stem;
},
{
origin = (1,4);
target = (0,5);
type = Stem;
}
);
layerId = "20FD933E-5CCA-4ADC-839D-1BAE82A4B007";
shapes = (
{
closed = 1;
nodes = (
(232,0,l),
(232,174,l),
(322,174,ls),
(428,174,o),
(528,253,o),
(528,398,cs),
(528,528,o),
(430,620,o),
(322,620,cs),
(232,620,l),
(232,773,l),
(55,773,l),
(55,0,l)
);
},
{
closed = 1;
nodes = (
(232,485,l),
(286,485,ls),
(317,485,o),
(360,453,o),
(360,397,cs),
(360,336,o),
(317,309,o),
(286,309,cs),
(232,309,l)
);
}
);
width = 541;
}
);
note = Thorn;
unicode = 222;
},
{
glyphname = Q;
kernLeft = COG;
lastChange = "2023-12-15 17:47:40 +0000";
layers = (
{
background = {
shapes = (
{
closed = 1;
nodes = (
(744,387,o),
(734.83,432.33,o),
(716.5,475,cs),
(698.17,517.67,o),
(673.17,554.83,o),
(641.5,586.5,cs),
(609.83,618.17,o),
(572.67,643.17,o),
(530,661.5,cs),
(487.33,679.83,o),
(442,689,o),
(394,689,cs),
(346,689,o),
(300.83,679.83,o),
(258.5,661.5,cs),
(216.17,643.17,o),
(179.17,618.17,o),
(147.5,586.5,cs),
(115.83,554.83,o),
(90.83,517.67,o),
(72.5,475,cs),
(54.17,432.33,o),
(45,387,o),
(45,339,cs),
(45,291,o),
(54.17,245.83,o),
(72.5,203.5,cs),
(90.83,161.17,o),
(115.83,124.17,o),
(147.5,92.5,cs),
(179.17,60.83,o),
(216.17,35.83,o),
(258.5,17.5,cs),
(300.83,-0.83,o),
(346,-10,o),
(394,-10,cs),
(422.95,-10,o),
(450.92,-6.67,o),
(477.93,0,c),
(754,0,l),
(754,57,l),
(652,57,l),
(627.5,51.51,o),
(601.28,45.7,o),
(573.36,39.55,c),
(598.36,54.43,o),
(621.07,72.08,o),
(641.5,92.5,cs),
(673.17,124.17,o),
(698.17,161.17,o),
(716.5,203.5,cs),
(734.83,245.83,o),
(744,291,o),
(744,339,cs)
);
},
{
closed = 1;
nodes = (
(674,262.33,o),
(646.67,196.67,o),
(592,142,cs),
(537.33,87.33,o),
(471.33,60,o),
(394,60,cs),
(317.33,60,o),
(251.67,87.33,o),
(197,142,cs),
(142.33,196.67,o),
(115,262.33,o),
(115,339,cs),
(115,416.33,o),
(142.33,482.33,o),
(197,537,cs),
(251.67,591.67,o),
(317.33,619,o),
(394,619,cs),
(471.33,619,o),
(537.33,591.67,o),
(592,537,cs),
(646.67,482.33,o),
(674,416.33,o),
(674,339,cs)
);
}
);
};
hints = (
{
horizontal = 1;
origin = (0,11);
target = (2,11);
type = Stem;
},
{
horizontal = 1;
origin = (0,5);
target = (2,5);
type = Stem;
},
{
horizontal = 1;
origin = (1,3);
target = up;
type = BottomGhost;
},
{
origin = (0,8);
target = (2,2);
type = Stem;
},
{
origin = (2,8);
target = (0,2);
type = Stem;
}
);
layerId = m01;
shapes = (
{
closed = 1;
nodes = (
(581,-8,o),
(744,143,o),
(744,342,cs),
(744,536,o),
(588,691,o),
(394,691,cs),
(202,691,o),
(45,534,o),
(45,342,cs),
(45,151,o),
(203,-8,o),
(394,-8,cs)
);
},
{
closed = 1;
nodes = (
(738,-3,l),
(484,265,l),
(389,265,l),
(645,-3,l)
);
},
{
closed = 1;
nodes = (
(239,62,o),
(115,187,o),
(115,342,cs),
(115,497,o),
(239,621,o),
(394,621,cs),
(549,621,o),
(674,497,o),
(674,342,cs),
(674,186,o),
(550,62,o),
(394,62,cs)
);
}
);
width = 784;
},
{
background = {
shapes = (
{
closed = 1;
nodes = (
(585,236,o),
(490,140,o),
(385,140,cs),
(280,140,o),
(185,236,o),
(185,341,cs),
(185,446,o),
(280,541,o),
(385,541,cs),
(490,541,o),
(585,446,o),
(585,341,cs)
);
},
{
closed = 1;
nodes = (
(620.99,85.33,l),
(690.46,150,o),
(735,241.43,o),
(735,340,cs),
(735,528,o),
(573,690,o),
(385,690,cs),
(197,690,o),
(35,528,o),
(35,340,cs),
(35,152,o),
(197,-10,o),
(385,-10,cs),
(412.54,-10,o),
(439.52,-6.52,o),
(465.51,0,c),
(775,0,l),
(775,119,l),
(694,119,l)
);
}
);
};
hints = (
{
horizontal = 1;
origin = (0,11);
target = (2,11);
type = Stem;
},
{
horizontal = 1;
origin = (0,5);
target = (2,5);
type = Stem;
},
{
horizontal = 1;
origin = (1,3);
target = up;
type = BottomGhost;
},
{
horizontal = 1;
place = (0,130);
type = Stem;
},
{
origin = (0,8);
target = (2,2);
type = Stem;
},
{
origin = (2,8);
target = (0,2);
type = Stem;
}
);
layerId = "B86D9C3C-D3FC-40C7-BC9B-EF4509240B31";
shapes = (
{
closed = 1;
nodes = (
(573,-10,o),
(735,152,o),
(735,340,cs),
(735,528,o),
(573,690,o),
(385,690,cs),
(197,690,o),
(35,528,o),
(35,340,cs),
(35,152,o),
(197,-10,o),
(385,-10,cs)
);
},
{
closed = 1;
nodes = (
(776,0,l),
(505,310,l),
(332,310,l),
(603,0,l)
);
},
{
closed = 1;
nodes = (
(280,140,o),
(185,236,o),
(185,341,cs),
(185,446,o),
(280,541,o),
(385,541,cs),
(490,541,o),
(585,446,o),
(585,341,cs),
(585,236,o),
(490,140,o),
(385,140,cs)
);
}
);
width = 786;
},
{
hints = (
{
horizontal = 1;
origin = (0,11);
target = (2,11);
type = Stem;
},
{
horizontal = 1;
origin = (2,5);
target = (0,5);
type = Stem;
},
{
horizontal = 1;
origin = (1,3);
target = up;
type = BottomGhost;
},
{
horizontal = 1;
place = (1,142);
type = Stem;
},
{
origin = (0,8);
target = (2,2);
type = Stem;
},
{
origin = (2,8);
target = (0,2);
type = Stem;
}
);
layerId = "20FD933E-5CCA-4ADC-839D-1BAE82A4B007";
shapes = (
{
closed = 1;
nodes = (
(570,-11,o),
(732,155,o),
(732,339,cs),
(732,525,o),
(568,690,o),
(382,690,cs),
(195,690,o),
(32,526,o),
(32,339,cs),
(32,152,o),
(195,-11,o),
(382,-11,cs)
);
},
{
closed = 1;
nodes = (
(789,1,l),
(512,325,l),
(313,325,l),
(589,1,l)
);
},
{
closed = 1;
nodes = (
(294,166,o),
(208,252,o),
(208,341,cs),
(208,429,o),
(294,514,o),
(382,514,cs),
(470,514,o),
(555,429,o),
(555,341,cs),
(555,253,o),
(470,166,o),
(382,166,cs)
);
}
);
width = 787;
}
);
note = Q;
unicode = 81;
},
{
glyphname = R;
lastChange = "2023-12-15 17:47:40 +0000";
layers = (
{
anchors = (
{
name = bottom;
pos = (261,10);
},
{
name = top;
pos = (246,680);
}
);
hints = (
{
horizontal = 1;
origin = (0,13);
target = up;
type = BottomGhost;
},
{
horizontal = 1;
origin = (0,1);
target = (1,8);
type = Stem;
},
{
horizontal = 1;
origin = (0,12);
target = (1,0);
type = Stem;
},
{
horizontal = 1;
origin = (0,5);
target = (1,8);
type = Stem;
},
{
origin = (0,13);
target = (0,0);
type = Stem;
},
{
origin = (1,4);
target = (0,8);
type = Stem;
}
);
layerId = m01;
shapes = (
{
closed = 1;
nodes = (
(145,0,l),
(145,269,l),
(226.63,269,l),
(426,0,l),
(520,0,l),
(310.66,269.56,l),
(420,277,o),
(509,358,o),
(509,475,cs),
(509,593,o),
(415,680,o),
(293,680,cs),
(75,680,l),
(75,0,l)
);
},
{
closed = 1;
nodes = (
(145,613,l),
(303,613,ls),
(388,613,o),
(439,555,o),
(439,476.58,cs),
(439,401,o),
(386,336,o),
(303,336,cs),
(145,336,l)
);
}
);
width = 544;
},
{
anchors = (
{
name = bottom;
pos = (273,12);
},
{
name = top;
pos = (267,680);
}
);
hints = (
{
horizontal = 1;
origin = (0,13);
target = up;
type = BottomGhost;
},
{
horizontal = 1;
origin = (0,1);
target = (1,8);
type = Stem;
},
{
horizontal = 1;
origin = (0,12);
target = (1,0);
type = Stem;
},
{
origin = (0,13);
target = (0,0);
type = Stem;
},
{
origin = (1,4);
target = (0,8);
type = Stem;
}
);
layerId = "B86D9C3C-D3FC-40C7-BC9B-EF4509240B31";
shapes = (
{
closed = 1;
nodes = (
(210,0,l),
(210,243,l),
(231,243,l),
(406,0,l),
(573,0,l),
(390,250,l),
(484,275,o),
(550,347,o),
(550,462,cs),
(550,591,o),
(445,680,o),
(335,680,c),
(60,680,l),
(60,0,l)
);
},
{
closed = 1;
nodes = (
(210,562,l),
(310,562,ls),
(354,562,o),
(400,524,o),
(400,462,cs),
(400,397,o),
(354,361,o),
(310,361,cs),
(210,361,l)
);
}
);
width = 573;
},
{
anchors = (
{
name = bottom;
pos = (277,13);
},
{
name = top;
pos = (274,680);
}
);
hints = (
{
horizontal = 1;
origin = (0,13);
target = up;
type = BottomGhost;
},
{
horizontal = 1;
origin = (0,12);
target = (1,0);
type = Stem;
},
{
origin = (0,13);
target = (0,0);
type = Stem;
},
{
origin = (1,4);
target = (0,8);
type = Stem;
}
);
layerId = "20FD933E-5CCA-4ADC-839D-1BAE82A4B007";
shapes = (
{
closed = 1;
nodes = (
(232,0,l),
(232,234,l),
(232,234,l),
(399,0,l),
(591,0,l),
(416,243,l),
(505,274,o),
(564,343,o),
(564,458,cs),
(564,590,o),
(455,680,o),
(349,680,cs),
(55,680,l),
(55,0,l)
);
},
{
closed = 1;
nodes = (
(232,545,l),
(312,545,ls),
(343,545,o),
(387,514,o),
(387,457,cs),
(387,396,o),
(343,369,o),
(312,369,cs),
(232,369,l)
);
}
);
width = 583;
}
);
note = R;
unicode = 82;
},
{
glyphname = S;
lastChange = "2023-12-15 17:47:40 +0000";
layers = (
{
anchors = (
{
name = bottom;
pos = (299,-13);
},
{
name = top;
pos = (282,690);
}
);
hints = (
{
horizontal = 1;
origin = (0,37);
target = (0,30);
type = Stem;
},
{
horizontal = 1;
origin = (0,18);
target = (0,11);
type = Stem;
},
{
origin = (0,21);
target = (0,8);
type = Stem;
},
{
origin = (0,27);
target = (0,2);
type = Stem;
}
);
layerId = m01;
shapes = (
{
closed = 1;
nodes = (
(427,-13,o),
(548,46,o),
(548.16,186.51,cs),
(548,307,o),
(449,346,o),
(332.13,375.91,cs),
(249,397,o),
(128,423,o),
(128.16,516.61,cs),
(128,594,o),
(196,630,o),
(280.51,630,cs),
(373.51,630,o),
(426.8,600.67,o),
(440.37,542,c),
(516.09,542,l),
(491.24,640.67,o),
(412.71,690,o),
(280.51,690,cs),
(158,690,o),
(56,628,o),
(55.94,499.21,cs),
(55.88,412.39,o),
(125.2,352.9,o),
(263.9,320.74,cs),
(343,302,o),
(476,271,o),
(476,181.51,cs),
(476,85,o),
(394,51,o),
(298.96,51.01,cs),
(192.32,51.01,o),
(132.59,87.01,o),
(119.76,159.01,c),
(37.01,159.01,l),
(61.01,44.34,o),
(148,-13,o),
(299,-13,cs)
);
}
);
width = 574;
},
{
anchors = (
{
name = bottom;
pos = (318,-16);
},
{
name = top;
pos = (308,690);
}
);
hints = (
{
horizontal = 1;
origin = (0,37);
target = (0,30);
type = Stem;
},
{
horizontal = 1;
origin = (0,18);
target = (0,11);
type = Stem;
},
{
origin = (0,21);
target = (0,8);
type = Stem;
},
{
origin = (0,27);
target = (0,2);
type = Stem;
}
);
layerId = "B86D9C3C-D3FC-40C7-BC9B-EF4509240B31";
shapes = (
{
closed = 1;
nodes = (
(457,-16,o),
(600,43,o),
(600,203,cs),
(600,349,o),
(475,385,o),
(366,411,cs),
(281,430,o),
(207,443,o),
(207,496,cs),
(207,547,o),
(266,567,o),
(308,567,cs),
(383,567,o),
(424,544,o),
(432,473,c),
(577,473,l),
(572,628,o),
(446,690,o),
(306,690,cs),
(182,690,o),
(52,624,o),
(52,484,cs),
(52,350,o),
(164,312,o),
(268,285,cs),
(359,262,o),
(445,248,o),
(445,186,cs),
(445,125,o),
(371,106,o),
(324,106,cs),
(250,106,o),
(186,143,o),
(182,224,c),
(30,224,l),
(31,58,o),
(168,-16,o),
(318,-16,cs)
);
}
);
width = 630;
},
{
anchors = (
{
name = bottom;
pos = (324,-17);
},
{
name = top;
pos = (317,690);
}
);
hints = (
{
horizontal = 1;
origin = (0,37);
target = (0,30);
type = Stem;
},
{
horizontal = 1;
origin = (0,11);
target = (0,18);
type = Stem;
},
{
origin = (0,21);
target = (0,8);
type = Stem;
},
{
origin = (0,27);
target = (0,2);
type = Stem;
}
);
layerId = "20FD933E-5CCA-4ADC-839D-1BAE82A4B007";
shapes = (
{
closed = 1;
nodes = (
(467,-17,o),
(617,42,o),
(617,208,cs),
(617,363,o),
(484,398,o),
(377,423,cs),
(292,441,o),
(233,450,o),
(233,489,cs),
(233,531,o),
(289,546,o),
(317,546,cs),
(386,546,o),
(423,525,o),
(429,450,c),
(597,450,l),
(599,624,o),
(457,690,o),
(314,690,cs),
(190,690,o),
(51,623,o),
(51,479,cs),
(51,329,o),
(177,298,o),
(269,273,cs),
(364,249,o),
(435,240,o),
(435,187,cs),
(435,138,o),
(363,124,o),
(332,124,cs),
(269,124,o),
(204,162,o),
(203,246,c),
(28,246,l),
(21,63,o),
(175,-17,o),
(324,-17,cs)
);
}
);
width = 649;
}
);
note = S;
unicode = 83;
},
{
glyphname = Germandbls;
lastChange = "2023-12-15 17:47:40 +0000";
layers = (
{
hints = (
{
horizontal = 1;
origin = (0,33);
target = (0,16);
type = Stem;
},
{
horizontal = 1;
origin = (0,32);
target = (0,1);
type = Stem;
},
{
origin = (0,33);
target = (0,0);
type = Stem;
},
{
origin = (0,12);
target = (0,21);
type = Stem;
}
);
layerId = m01;
shapes = (
{
closed = 1;
nodes = (
(140,0,l),
(140,614,l),
(378,614,l),
(256,406,l),
(254,403,o),
(250,392,o),
(250,383,c),
(250,358,o),
(274,347,o),
(295,344,cs),
(383,330,o),
(438,279,o),
(438,212,cs),
(438,123,o),
(383,67,o),
(295,67,cs),
(176,67,l),
(176,0,l),
(295,0,ls),
(427,0,o),
(509,78,o),
(509,205,cs),
(509,310,o),
(451,387,o),
(337,406,c),
(427,560,l),
(441,582,o),
(453,612,o),
(453,633,cs),
(453,658,o),
(431,680,o),
(401,680,c),
(70,680,l),
(70,0,l)
);
}
);
width = 569;
},
{
hints = (
{
horizontal = 1;
origin = (0,33);
target = (0,16);
type = Stem;
},
{
horizontal = 1;
origin = (0,32);
target = (0,1);
type = Stem;
},
{
origin = (0,33);
target = (0,0);
type = Stem;
},
{
origin = (0,12);
target = (0,21);
type = Stem;
}
);
layerId = "B86D9C3C-D3FC-40C7-BC9B-EF4509240B31";
shapes = (
{
closed = 1;
nodes = (
(210,0,l),
(210,547,l),
(355,547,l),
(278,426,l),
(265,410,o),
(258,383,o),
(258,351,cs),
(258,320,o),
(282,288,o),
(325,281,cs),
(373,274,o),
(433,243,o),
(433,199,cs),
(433,149,o),
(385,135,o),
(345,135,cs),
(245,135,l),
(245,0,l),
(375,0,ls),
(497,0,o),
(581,78,o),
(581,195,cs),
(581,287,o),
(527,375,o),
(402,402,c),
(466,505,l),
(481,524,o),
(506,572,o),
(506,607,cs),
(506,654,o),
(474,680,o),
(418,680,c),
(60,680,l),
(60,0,l)
);
}
);
width = 631;
},
{
hints = (
{
horizontal = 1;
origin = (0,33);
target = (0,16);
type = Stem;
},
{
horizontal = 1;
origin = (0,32);
target = (0,1);
type = Stem;
},
{
origin = (0,33);
target = (0,0);
type = Stem;
},
{
origin = (0,12);
target = (0,21);
type = Stem;
}
);
layerId = "20FD933E-5CCA-4ADC-839D-1BAE82A4B007";
shapes = (
{
closed = 1;
nodes = (
(233,0,l),
(233,525,l),
(347,525,l),
(285,433,l),
(269,412,o),
(261,380,o),
(261,340,c),
(261,307,o),
(285,268,o),
(335,260,cs),
(370,255,o),
(431,231,o),
(431,195,cs),
(431,158,o),
(386,158,o),
(362,158,cs),
(268,158,l),
(268,0,l),
(402,0,ls),
(520,0,o),
(605,78,o),
(605,192,cs),
(605,279,o),
(552,371,o),
(424,401,c),
(479,487,l),
(494,505,o),
(524,559,o),
(524,598,cs),
(524,653,o),
(488,680,o),
(424,680,c),
(57,680,l),
(57,0,l)
);
}
);
width = 652;
}
);
unicode = 7838;
},
{
glyphname = T;
lastChange = "2023-12-15 17:47:40 +0000";
layers = (
{
anchors = (
{
name = bottom;
pos = (260,5);
},
{
name = top;
pos = (261,680);
}
);
hints = (
{
horizontal = 1;
origin = (0,4);
target = (0,5);
type = Stem;
},
{
origin = (0,7);
target = (0,0);
type = Stem;
}
);
layerId = m01;
shapes = (
{
closed = 1;
nodes = (
(295,2,l),
(295,616,l),
(500,616,l),
(500,682,l),
(20,682,l),
(20,616,l),
(225,616,l),
(225,2,l)
);
}
);
width = 520;
},
{
anchors = (
{
name = bottom;
pos = (303,0);
},
{
name = top;
pos = (299,678);
}
);
hints = (
{
horizontal = 1;
origin = (0,7);
target = up;
type = BottomGhost;
},
{
horizontal = 1;
origin = (0,4);
target = (0,5);
type = Stem;
},
{
origin = (0,7);
target = (0,0);
type = Stem;
}
);
layerId = "B86D9C3C-D3FC-40C7-BC9B-EF4509240B31";
shapes = (
{
closed = 1;
nodes = (
(374,0,l),
(374,544,l),
(578,544,l),
(578,680,l),
(20,680,l),
(20,544,l),
(224,544,l),
(224,0,l)
);
}
);
width = 598;
},
{
anchors = (
{
name = bottom;
pos = (317,-2);
},
{
name = top;
pos = (312,677);
}
);
hints = (
{
horizontal = 1;
origin = (0,7);
target = up;
type = BottomGhost;
},
{
horizontal = 1;
origin = (0,5);
target = (0,4);
type = Stem;
},
{
origin = (0,7);
target = (0,0);
type = Stem;
}
);
layerId = "20FD933E-5CCA-4ADC-839D-1BAE82A4B007";
shapes = (
{
closed = 1;
nodes = (
(400,-1,l),
(400,520,l),
(604,520,l),
(604,679,l),
(20,679,l),
(20,520,l),
(224,520,l),
(224,-1,l)
);
}
);
width = 624;
}
);
note = T;
unicode = 84;
},
{
glyphname = U;
lastChange = "2023-12-15 17:47:40 +0000";
layers = (
{
anchors = (
{
name = ogonek;
pos = (376,1);
},
{
name = top;
pos = (313,666);
}
);
hints = (
{
horizontal = 1;
origin = (0,17);
target = (0,8);
type = Stem;
},
{
horizontal = 1;
origin = (0,13);
target = down;
type = TopGhost;
},
{
origin = (0,14);
target = (0,11);
type = Stem;
},
{
origin = (0,5);
target = (0,2);
type = Stem;
}
);
layerId = m01;
shapes = (
{
closed = 1;
nodes = (
(465,-9,o),
(567,77,o),
(567,225,cs),
(567,680,l),
(497,680,l),
(497,215,ls),
(497,114,o),
(423,61,o),
(314,61,cs),
(209,61,o),
(130,110,o),
(130,215,cs),
(130,680,l),
(60,680,l),
(60,225,ls),
(60,77,o),
(162,-9,o),
(314,-9,cs)
);
}
);
width = 627;
},
{
anchors = (
{
name = ogonek;
pos = (393,2);
},
{
name = top;
pos = (326,666);
}
);
hints = (
{
horizontal = 1;
origin = (0,17);
target = (0,8);
type = Stem;
},
{
horizontal = 1;
origin = (0,13);
target = down;
type = TopGhost;
},
{
origin = (0,14);
target = (0,11);
type = Stem;
},
{
origin = (0,5);
target = (0,2);
type = Stem;
}
);
layerId = "B86D9C3C-D3FC-40C7-BC9B-EF4509240B31";
shapes = (
{
closed = 1;
nodes = (
(503,-10,o),
(607,84,o),
(607,265,cs),
(607,680,l),
(457,680,l),
(457,287,ls),
(457,193,o),
(429,140,o),
(326,140,cs),
(224,140,o),
(195,193,o),
(195,287,cs),
(195,680,l),
(45,680,l),
(45,265,ls),
(45,84,o),
(149,-10,o),
(326,-10,cs)
);
}
);
width = 652;
},
{
anchors = (
{
name = ogonek;
pos = (399,2);
},
{
name = top;
pos = (330,666);
}
);
hints = (
{
horizontal = 1;
origin = (0,17);
target = (0,8);
type = Stem;
},
{
horizontal = 1;
origin = (0,13);
target = down;
type = TopGhost;
},
{
origin = (0,14);
target = (0,11);
type = Stem;
},
{
origin = (0,5);
target = (0,2);
type = Stem;
}
);
layerId = "20FD933E-5CCA-4ADC-839D-1BAE82A4B007";
shapes = (
{
closed = 1;
nodes = (
(516,-10,o),
(620,86,o),
(620,278,cs),
(620,680,l),
(444,680,l),
(444,311,ls),
(444,219,o),
(431,166,o),
(330,166,cs),
(229,166,o),
(217,221,o),
(217,311,cs),
(217,680,l),
(40,680,l),
(40,278,ls),
(40,86,o),
(145,-10,o),
(330,-10,cs)
);
}
);
width = 660;
}
);
note = U;
unicode = 85;
},
{
glyphname = V;
kernLeft = VWY;
kernRight = VWY;
lastChange = "2023-12-15 17:47:40 +0000";
layers = (
{
hints = (
{
horizontal = 1;
origin = (0,6);
target = down;
type = TopGhost;
}
);
layerId = m01;
shapes = (
{
closed = 1;
nodes = (
(338,3,l),
(627,680,l),
(551,680,l),
(307,103,l),
(331,103,l),
(86,680,l),
(10,680,l),
(300,3,l)
);
}
);
width = 637;
},
{
hints = (
{
horizontal = 1;
origin = (0,7);
target = up;
type = BottomGhost;
},
{
horizontal = 1;
origin = (0,6);
target = down;
type = TopGhost;
}
);
layerId = "B86D9C3C-D3FC-40C7-BC9B-EF4509240B31";
shapes = (
{
closed = 1;
nodes = (
(409,0,l),
(684,680,l),
(522,680,l),
(321,128,l),
(367,128,l),
(167,680,l),
(5,680,l),
(280,0,l)
);
}
);
width = 689;
},
{
hints = (
{
horizontal = 1;
origin = (0,7);
target = up;
type = BottomGhost;
},
{
horizontal = 1;
origin = (0,6);
target = down;
type = TopGhost;
}
);
layerId = "20FD933E-5CCA-4ADC-839D-1BAE82A4B007";
shapes = (
{
closed = 1;
nodes = (
(433,-1,l),
(703,680,l),
(512,680,l),
(326,136,l),
(379,136,l),
(194,680,l),
(3,680,l),
(273,-1,l)
);
}
);
width = 706;
}
);
note = V;
unicode = 86;
},
{
glyphname = W;
kernLeft = VWY;
kernRight = VWY;
lastChange = "2023-12-15 17:47:40 +0000";
layers = (
{
anchors = (
{
name = top;
pos = (409,682);
}
);
hints = (
{
horizontal = 1;
origin = (0,15);
target = up;
type = BottomGhost;
},
{
horizontal = 1;
origin = (0,14);
target = down;
type = TopGhost;
}
);
layerId = m01;
shapes = (
{
closed = 1;
nodes = (
(206,0,l),
(418,566,l),
(396,566,l),
(608,0,l),
(642,0,l),
(788,680,l),
(717,680,l),
(604,155,l),
(622,157,l),
(423,677,l),
(391,677,l),
(191,157,l),
(209,155,l),
(97,680,l),
(25,680,l),
(172,0,l)
);
}
);
width = 813;
},
{
anchors = (
{
name = top;
pos = (474,683);
}
);
hints = (
{
horizontal = 1;
origin = (0,15);
target = up;
type = BottomGhost;
},
{
horizontal = 1;
origin = (0,14);
target = down;
type = TopGhost;
}
);
layerId = "B86D9C3C-D3FC-40C7-BC9B-EF4509240B31";
shapes = (
{
closed = 1;
nodes = (
(330,0,l),
(491,542,l),
(453,542,l),
(613,0,l),
(791,0,l),
(923,680,l),
(758,680,l),
(667,144,l),
(696,146,l),
(545,680,l),
(398,680,l),
(247,146,l),
(276,144,l),
(185,680,l),
(20,680,l),
(152,0,l)
);
}
);
width = 943;
},
{
anchors = (
{
name = top;
pos = (496,683);
}
);
hints = (
{
horizontal = 1;
origin = (0,15);
target = up;
type = BottomGhost;
},
{
horizontal = 1;
origin = (0,10);
target = down;
type = TopGhost;
},
{
horizontal = 1;
origin = (0,14);
target = down;
type = TopGhost;
}
);
layerId = "20FD933E-5CCA-4ADC-839D-1BAE82A4B007";
shapes = (
{
closed = 1;
nodes = (
(371,0,l),
(515,534,l),
(472,534,l),
(615,0,l),
(841,0,l),
(968,680,l),
(772,680,l),
(688,140,l),
(721,142,l),
(586,681,l),
(400,681,l),
(266,142,l),
(298,140,l),
(214,680,l),
(18,680,l),
(145,0,l)
);
}
);
width = 986;
}
);
note = W;
unicode = 87;
},
{
glyphname = X;
lastChange = "2023-12-15 17:47:40 +0000";
layers = (
{
hints = (
{
horizontal = 1;
origin = (0,11);
target = up;
type = BottomGhost;
},
{
horizontal = 1;
origin = (0,9);
target = down;
type = TopGhost;
}
);
layerId = m01;
shapes = (
{
closed = 1;
nodes = (
(107,0,l),
(303,290,l),
(499,0,l),
(585,0,l),
(346,340,l),
(585,680,l),
(499,680,l),
(303,390,l),
(107,680,l),
(20,680,l),
(260,339,l),
(21,0,l)
);
}
);
width = 606;
},
{
hints = (
{
horizontal = 1;
origin = (0,11);
target = up;
type = BottomGhost;
},
{
horizontal = 1;
origin = (0,7);
target = down;
type = TopGhost;
},
{
horizontal = 1;
origin = (0,9);
target = down;
type = TopGhost;
}
);
layerId = "B86D9C3C-D3FC-40C7-BC9B-EF4509240B31";
shapes = (
{
closed = 1;
nodes = (
(189,0,l),
(334,236,l),
(479,0,l),
(662,0,l),
(426,340,l),
(662,680,l),
(479,680,l),
(334,444,l),
(189,680,l),
(6,680,l),
(242,340,l),
(6,0,l)
);
}
);
width = 668;
},
{
hints = (
{
horizontal = 1;
origin = (0,11);
target = up;
type = BottomGhost;
},
{
horizontal = 1;
origin = (0,9);
target = down;
type = TopGhost;
}
);
layerId = "20FD933E-5CCA-4ADC-839D-1BAE82A4B007";
shapes = (
{
closed = 1;
nodes = (
(216,0,l),
(344,218,l),
(472,0,l),
(688,0,l),
(453,340,l),
(688,680,l),
(472,680,l),
(344,462,l),
(216,680,l),
(1,680,l),
(236,340,l),
(1,0,l)
);
}
);
width = 689;
}
);
note = X;
unicode = 88;
},
{
glyphname = Y;
kernLeft = VWY;
kernRight = VWY;
lastChange = "2023-12-15 17:47:40 +0000";
layers = (
{
anchors = (
{
name = top;
pos = (304,672);
}
);
hints = (
{
horizontal = 1;
origin = (0,8);
target = up;
type = BottomGhost;
},
{
horizontal = 1;
origin = (0,6);
target = down;
type = TopGhost;
},
{
origin = (0,8);
target = (0,0);
type = Stem;
}
);
layerId = m01;
shapes = (
{
closed = 1;
nodes = (
(338,0,l),
(338,320.02,l),
(595,680,l),
(506,680,l),
(303,389,l),
(100,680,l),
(10,680,l),
(268,319.86,l),
(268,0,l)
);
}
);
width = 605;
},
{
anchors = (
{
name = top;
pos = (337,677);
}
);
hints = (
{
horizontal = 1;
origin = (0,8);
target = up;
type = BottomGhost;
},
{
horizontal = 1;
origin = (0,4);
target = down;
type = TopGhost;
},
{
horizontal = 1;
origin = (0,6);
target = down;
type = TopGhost;
},
{
origin = (0,8);
target = (0,0);
type = Stem;
}
);
layerId = "B86D9C3C-D3FC-40C7-BC9B-EF4509240B31";
shapes = (
{
closed = 1;
nodes = (
(409,0,l),
(409,325,l),
(660,680,l),
(481,680,l),
(334,445,l),
(187,680,l),
(8,680,l),
(259,325,l),
(259,0,l)
);
}
);
width = 668;
},
{
anchors = (
{
name = top;
pos = (348,679);
}
);
hints = (
{
horizontal = 1;
origin = (0,8);
target = up;
type = BottomGhost;
},
{
horizontal = 1;
origin = (0,6);
target = down;
type = TopGhost;
},
{
origin = (0,8);
target = (0,0);
type = Stem;
}
);
layerId = "20FD933E-5CCA-4ADC-839D-1BAE82A4B007";
shapes = (
{
closed = 1;
nodes = (
(433,0,l),
(433,327,l),
(682,680,l),
(473,680,l),
(344,464,l),
(216,680,l),
(7,680,l),
(256,327,l),
(256,0,l)
);
}
);
width = 689;
}
);
note = Y;
unicode = 89;
},
{
glyphname = Z;
lastChange = "2023-12-15 17:47:40 +0000";
layers = (
{
anchors = (
{
name = top;
pos = (277,681);
}
);
hints = (
{
horizontal = 1;
origin = (0,7);
target = (0,2);
type = Stem;
},
{
horizontal = 1;
origin = (0,4);
target = (0,5);
type = Stem;
}
);
layerId = m01;
shapes = (
{
closed = 1;
nodes = (
(538,0,l),
(538,65,l),
(152,65,l),
(555,680,l),
(46,680,l),
(46,615,l),
(428,615,l),
(25,0,l)
);
}
);
width = 580;
},
{
anchors = (
{
name = top;
pos = (277,680);
}
);
hints = (
{
horizontal = 1;
origin = (0,7);
target = (0,2);
type = Stem;
},
{
horizontal = 1;
origin = (0,4);
target = (0,5);
type = Stem;
}
);
layerId = "B86D9C3C-D3FC-40C7-BC9B-EF4509240B31";
shapes = (
{
closed = 1;
nodes = (
(532,0,l),
(532,136,l),
(262,136,l),
(548,680,l),
(40,680,l),
(40,544,l),
(306,544,l),
(20,0,l)
);
}
);
width = 568;
},
{
anchors = (
{
name = top;
pos = (277,680);
}
);
hints = (
{
horizontal = 1;
origin = (0,7);
target = (0,2);
type = Stem;
},
{
horizontal = 1;
origin = (0,4);
target = (0,5);
type = Stem;
},
{
origin = (0,7);
target = (0,3);
type = Stem;
}
);
layerId = "20FD933E-5CCA-4ADC-839D-1BAE82A4B007";
shapes = (
{
closed = 1;
nodes = (
(530,0,l),
(530,160,l),
(299,160,l),
(546,680,l),
(38,680,l),
(38,520,l),
(265,520,l),
(18,0,l)
);
}
);
width = 564;
}
);
note = Z;
unicode = 90;
},
{
glyphname = a;
kernLeft = cod;
lastChange = "2023-12-15 17:47:40 +0000";
layers = (
{
anchors = (
{
name = ogonek;
pos = (480,0);
},
{
name = top;
pos = (259,451);
}
);
hints = (
{
horizontal = 1;
origin = (0,16);
target = (1,11);
type = Stem;
},
{
horizontal = 1;
origin = (0,10);
target = (1,5);
type = Stem;
},
{
horizontal = 1;
origin = (0,3);
target = up;
type = BottomGhost;
},
{
horizontal = 1;
origin = (0,6);
target = down;
type = TopGhost;
},
{
origin = (0,13);
target = (1,2);
type = Stem;
},
{
origin = (0,3);
target = (0,4);
type = Stem;
}
);
layerId = m01;
shapes = (
{
closed = 1;
nodes = (
(331,-10,o),
(386,24,o),
(425,75.13,c),
(425,0,l),
(495,0,l),
(495,440,l),
(425,440,l),
(425,364.87,l),
(386,416,o),
(331,450,o),
(259,450,cs),
(135,450,o),
(45,341,o),
(45,220,cs),
(45,99,o),
(135,-10,o),
(259,-10,cs)
);
},
{
closed = 1;
nodes = (
(180,60,o),
(115,135,o),
(115,220,cs),
(115,305,o),
(180,380,o),
(270,380,cs),
(360,380,o),
(425,305,o),
(425,220,cs),
(425,135,o),
(360,60,o),
(270,60,cs)
);
}
);
width = 565;
},
{
anchors = (
{
name = ogonek;
pos = (509,1);
},
{
name = top;
pos = (269,450);
}
);
hints = (
{
horizontal = 1;
origin = (0,16);
target = (1,11);
type = Stem;
},
{
horizontal = 1;
origin = (0,10);
target = (1,5);
type = Stem;
},
{
horizontal = 1;
origin = (0,3);
target = (1,11);
type = Stem;
},
{
horizontal = 1;
origin = (0,6);
target = (1,5);
type = Stem;
},
{
origin = (0,13);
target = (1,2);
type = Stem;
},
{
origin = (0,3);
target = (0,4);
type = Stem;
}
);
layerId = "B86D9C3C-D3FC-40C7-BC9B-EF4509240B31";
shapes = (
{
closed = 1;
nodes = (
(310,-10,o),
(375,8,o),
(405,53,c),
(405,0,l),
(555,0,l),
(555,440,l),
(405,440,l),
(405,387,l),
(366,435,o),
(310,451,o),
(254,451,cs),
(129,451,o),
(35,342,o),
(35,220,cs),
(35,98,o),
(129,-10,o),
(254,-10,cs)
);
},
{
closed = 1;
nodes = (
(240,110,o),
(195,162,o),
(195,220,cs),
(195,278,o),
(240,330,o),
(300,330,cs),
(360,330,o),
(405,278,o),
(405,220,cs),
(405,162,o),
(360,110,o),
(300,110,cs)
);
}
);
width = 615;
},
{
associatedMasterId = m01;
layerId = "89EEE211-8437-42B1-A783-907AC904CBB6";
width = 600;
},
{
anchors = (
{
name = ogonek;
pos = (519,1);
},
{
name = top;
pos = (272,450);
}
);
hints = (
{
horizontal = 1;
origin = (0,16);
target = (1,11);
type = Stem;
},
{
horizontal = 1;
origin = (0,6);
target = (1,5);
type = Stem;
},
{
horizontal = 1;
origin = (0,3);
target = (1,11);
type = Stem;
},
{
horizontal = 1;
origin = (0,10);
target = (1,5);
type = Stem;
},
{
origin = (0,13);
target = (1,2);
type = Stem;
},
{
origin = (0,3);
target = (0,4);
type = Stem;
}
);
layerId = "20FD933E-5CCA-4ADC-839D-1BAE82A4B007";
shapes = (
{
closed = 1;
nodes = (
(303,-10,o),
(371,3,o),
(398,46,c),
(398,0,l),
(575,0,l),
(575,440,l),
(398,440,l),
(398,394,l),
(359,441,o),
(303,451,o),
(252,451,cs),
(127,451,o),
(32,342,o),
(32,220,cs),
(32,98,o),
(127,-10,o),
(252,-10,cs)
);
},
{
closed = 1;
nodes = (
(260,127,o),
(222,171,o),
(222,220,cs),
(222,269,o),
(260,313,o),
(310,313,cs),
(360,313,o),
(398,269,o),
(398,220,cs),
(398,171,o),
(360,127,o),
(310,127,cs)
);
}
);
width = 632;
}
);
note = a;
unicode = 97;
},
{
glyphname = adieresis;
lastChange = "2023-12-15 17:47:40 +0000";
layers = (
{
background = {
shapes = (
{
closed = 1;
nodes = (
(177.67,517,o),
(188.33,521.33,o),
(197,530,cs),
(205.67,538.67,o),
(210,549.17,o),
(210,561.5,cs),
(210,573.83,o),
(205.67,584.33,o),
(197,593,cs),
(188.33,601.67,o),
(177.67,606,o),
(165,606,cs),
(152.33,606,o),
(141.83,601.67,o),
(133.5,593,cs),
(125.17,584.33,o),
(121,573.83,o),
(121,561.5,cs),
(121,549.17,o),
(125.17,538.67,o),
(133.5,530,cs),
(141.83,521.33,o),
(152.33,517,o),
(165,517,cs)
);
},
{
closed = 1;
nodes = (
(359.67,517,o),
(370.33,521.33,o),
(379,530,cs),
(387.67,538.67,o),
(392,549.17,o),
(392,561.5,cs),
(392,573.83,o),
(387.67,584.33,o),
(379,593,cs),
(370.33,601.67,o),
(359.67,606,o),
(347,606,cs),
(334.33,606,o),
(323.83,601.67,o),
(315.5,593,cs),
(307.17,584.33,o),
(303,573.83,o),
(303,561.5,cs),
(303,549.17,o),
(307.17,538.67,o),
(315.5,530,cs),
(323.83,521.33,o),
(334.33,517,o),
(347,517,cs)
);
}
);
};
layerId = m01;
shapes = (
{
ref = a;
},
{
pos = (24,-246);
ref = dieresiscomb;
}
);
width = 565;
},
{
layerId = "B86D9C3C-D3FC-40C7-BC9B-EF4509240B31";
shapes = (
{
ref = a;
},
{
pos = (-11,-265);
ref = dieresiscomb;
}
);
width = 615;
},
{
layerId = "20FD933E-5CCA-4ADC-839D-1BAE82A4B007";
shapes = (
{
alignment = -1;
ref = a;
},
{
alignment = -1;
pos = (-23,-271);
ref = dieresiscomb;
}
);
width = 632;
}
);
note = adieresis;
unicode = 228;
},
{
glyphname = b;
kernRight = bop;
lastChange = "2023-12-15 17:47:40 +0000";
layers = (
{
hints = (
{
horizontal = 1;
origin = (0,16);
target = (1,11);
type = Stem;
},
{
horizontal = 1;
origin = (0,5);
target = (1,5);
type = Stem;
},
{
horizontal = 1;
origin = (0,11);
target = up;
type = BottomGhost;
},
{
origin = (0,11);
target = (0,12);
type = Stem;
},
{
origin = (1,8);
target = (0,2);
type = Stem;
}
);
layerId = m01;
shapes = (
{
closed = 1;
nodes = (
(430,-10,o),
(520,99,o),
(520,220,cs),
(520,341,o),
(430,450,o),
(306,450,cs),
(234,450,o),
(179,416,o),
(140,365,c),
(140,750,l),
(70,750,l),
(70,0,l),
(140,0,l),
(140,75,l),
(179,24,o),
(234,-10,o),
(306,-10,cs)
);
},
{
closed = 1;
nodes = (
(205,60,o),
(140,135,o),
(140,220,cs),
(140,305,o),
(205,380,o),
(295,380,cs),
(385,380,o),
(450,305,o),
(450,220,cs),
(450,135,o),
(385,60,o),
(295,60,cs)
);
}
);
width = 560;
},
{
hints = (
{
horizontal = 1;
origin = (0,16);
target = (1,11);
type = Stem;
},
{
horizontal = 1;
origin = (0,5);
target = (1,5);
type = Stem;
},
{
horizontal = 1;
origin = (0,11);
target = (1,11);
type = Stem;
},
{
origin = (0,11);
target = (0,12);
type = Stem;
},
{
origin = (1,8);
target = (0,2);
type = Stem;
}
);
layerId = "B86D9C3C-D3FC-40C7-BC9B-EF4509240B31";
shapes = (
{
closed = 1;
nodes = (
(486,-10,o),
(580,98,o),
(580,220,cs),
(580,342,o),
(486,451,o),
(361,451,cs),
(304,451,o),
(249,435,o),
(210,387,c),
(210,750,l),
(60,750,l),
(60,0,l),
(210,0,l),
(210,53,l),
(240,8,o),
(304,-10,o),
(361,-10,cs)
);
},
{
closed = 1;
nodes = (
(255,110,o),
(210,162,o),
(210,220,cs),
(210,278,o),
(255,330,o),
(315,330,cs),
(375,330,o),
(420,278,o),
(420,220,cs),
(420,162,o),
(375,110,o),
(315,110,cs)
);
}
);
width = 615;
},
{
hints = (
{
horizontal = 1;
origin = (0,16);
target = (1,11);
type = Stem;
},
{
horizontal = 1;
origin = (0,5);
target = (1,5);
type = Stem;
},
{
horizontal = 1;
origin = (0,11);
target = (1,11);
type = Stem;
},
{
origin = (0,11);
target = (0,12);
type = Stem;
},
{
origin = (1,8);
target = (0,2);
type = Stem;
}
);
layerId = "20FD933E-5CCA-4ADC-839D-1BAE82A4B007";
shapes = (
{
closed = 1;
nodes = (
(505,-10,o),
(600,98,o),
(600,220,cs),
(600,342,o),
(505,451,o),
(379,451,cs),
(327,451,o),
(272,441,o),
(233,394,c),
(233,750,l),
(57,750,l),
(57,0,l),
(233,0,l),
(233,46,l),
(260,3,o),
(327,-10,o),
(379,-10,cs)
);
},
{
closed = 1;
nodes = (
(272,127,o),
(233,171,o),
(233,220,cs),
(233,269,o),
(272,313,o),
(322,313,cs),
(372,313,o),
(410,269,o),
(410,220,cs),
(410,171,o),
(372,127,o),
(322,127,cs)
);
}
);
width = 633;
}
);
note = b;
unicode = 98;
},
{
glyphname = c;
kernLeft = cod;
kernRight = bop;
lastChange = "2023-12-15 17:47:40 +0000";
layers = (
{
anchors = (
{
name = bottom;
pos = (259,-10);
},
{
name = top;
pos = (266,450);
}
);
hints = (
{
horizontal = 1;
origin = (0,25);
target = (0,6);
type = Stem;
},
{
horizontal = 1;
origin = (0,19);
target = (0,12);
type = Stem;
},
{
origin = (0,22);
target = (0,9);
type = Stem;
}
);
layerId = m01;
shapes = (
{
closed = 1;
nodes = (
(357,-10,o),
(442,45,o),
(477,144,c),
(398,144,l),
(371,95,o),
(321,63,o),
(265,63,cs),
(178,63,o),
(112,135,o),
(112,220,cs),
(112,314,o),
(186,376,o),
(272,376,cs),
(324,376,o),
(381,339,o),
(405,282,c),
(481,282,l),
(452,386,o),
(362,449,o),
(265,449,cs),
(139,449,o),
(40,346,o),
(40,220,cs),
(40,85,o),
(152,-10,o),
(259,-10,cs)
);
}
);
width = 521;
},
{
anchors = (
{
name = bottom;
pos = (282,0);
},
{
name = top;
pos = (284,448);
}
);
hints = (
{
horizontal = 1;
origin = (0,25);
target = (0,6);
type = Stem;
},
{
horizontal = 1;
origin = (0,19);
target = (0,12);
type = Stem;
},
{
origin = (0,22);
target = (0,9);
type = Stem;
}
);
layerId = "B86D9C3C-D3FC-40C7-BC9B-EF4509240B31";
shapes = (
{
closed = 1;
nodes = (
(414,-10,o),
(503,66,o),
(518,164,c),
(372,164,l),
(367,124,o),
(331,104,o),
(285,104,cs),
(215,104,o),
(195,168,o),
(195,219,cs),
(195,269,o),
(217,334,o),
(285,334,cs),
(337,334,o),
(370,307,o),
(372,264,c),
(521,264,l),
(514,366,o),
(423,451,o),
(280,451,cs),
(133,451,o),
(35,346,o),
(35,220,cs),
(35,94,o),
(127,-10,o),
(280,-10,cs)
);
}
);
width = 552;
},
{
anchors = (
{
name = bottom;
pos = (290,3);
},
{
name = top;
pos = (290,447);
}
);
hints = (
{
horizontal = 1;
origin = (0,25);
target = (0,6);
type = Stem;
},
{
horizontal = 1;
origin = (0,12);
target = (0,19);
type = Stem;
},
{
horizontal = 1;
origin = (0,25);
target = (0,3);
type = Stem;
},
{
horizontal = 1;
origin = (0,15);
target = (0,19);
type = Stem;
},
{
origin = (0,22);
target = (0,9);
type = Stem;
}
);
layerId = "20FD933E-5CCA-4ADC-839D-1BAE82A4B007";
shapes = (
{
closed = 1;
nodes = (
(433,-10,o),
(523,73,o),
(532,171,c),
(363,171,l),
(366,134,o),
(334,118,o),
(292,118,cs),
(227,118,o),
(223,179,o),
(223,219,cs),
(223,254,o),
(227,320,o),
(289,320,cs),
(341,320,o),
(366,296,o),
(361,258,c),
(534,258,l),
(535,359,o),
(443,452,o),
(285,452,cs),
(131,452,o),
(33,346,o),
(33,220,cs),
(33,97,o),
(119,-10,o),
(287,-10,cs)
);
}
);
width = 562;
}
);
note = c;
unicode = 99;
},
{
glyphname = ccedilla;
lastChange = "2023-12-15 17:47:40 +0000";
layers = (
{
layerId = m01;
shapes = (
{
ref = c;
},
{
pos = (-1,-11);
ref = cedillacomb;
}
);
width = 521;
},
{
background = {
shapes = (
{
closed = 1;
nodes = (
(222.06,-259.86,o),
(323.31,-259.59,o),
(352.5,-189.03,cs),
(373.31,-138.71,o),
(353.65,-80.94,o),
(311.23,-71.24,cs),
(299.48,-68.55,o),
(288.44,-68.15,o),
(273.05,-71.54,c),
(302.5,-9.27,l),
(423.92,-1.26,o),
(503.86,71.59,o),
(518,164,c),
(372,164,l),
(367,124,o),
(331,104,o),
(285,104,cs),
(215,104,o),
(195,168,o),
(195,219,cs),
(195,269,o),
(217,334,o),
(285,334,cs),
(337,334,o),
(370,307,o),
(372,264,c),
(521,264,l),
(514,366,o),
(423,451,o),
(280,451,cs),
(133,451,o),
(35,346,o),
(35,220,cs),
(35,105.38,o),
(111.13,8.97,o),
(240.04,-7.51,c),
(184.65,-130.55,l),
(199.25,-128.44,ls),
(220.54,-125.36,o),
(246.55,-118.52,o),
(267.04,-122.49,cs),
(313.48,-131.49,o),
(295.91,-197.38,o),
(218.14,-185.3,cs),
(204.61,-183.2,o),
(190.55,-179.77,o),
(176.96,-174.89,cs),
(170.09,-172.42,l),
(142.89,-229,l),
(151.04,-232.18,ls)
);
}
);
};
layerId = "B86D9C3C-D3FC-40C7-BC9B-EF4509240B31";
shapes = (
{
ref = c;
},
{
pos = (10,2);
ref = cedillacomb;
}
);
width = 552;
},
{
layerId = "20FD933E-5CCA-4ADC-839D-1BAE82A4B007";
shapes = (
{
alignment = -1;
ref = c;
},
{
alignment = -1;
pos = (14,6);
ref = cedillacomb;
}
);
width = 562;
}
);
note = ccedilla;
unicode = 231;
},
{
glyphname = d;
kernLeft = cod;
lastChange = "2023-12-15 17:47:40 +0000";
layers = (
{
hints = (
{
horizontal = 1;
origin = (0,16);
target = (1,11);
type = Stem;
},
{
horizontal = 1;
origin = (0,10);
target = (1,5);
type = Stem;
},
{
horizontal = 1;
origin = (0,3);
target = up;
type = BottomGhost;
},
{
origin = (0,13);
target = (1,2);
type = Stem;
},
{
origin = (0,3);
target = (0,4);
type = Stem;
}
);
layerId = m01;
shapes = (
{
closed = 1;
nodes = (
(326,-10,o),
(381,24,o),
(420,75,c),
(420,0,l),
(490,0,l),
(490,750,l),
(420,750,l),
(420,365,l),
(385,419,o),
(326,450,o),
(254,450,cs),
(130,450,o),
(40,341,o),
(40,220,cs),
(40,99,o),
(130,-10,o),
(254,-10,cs)
);
},
{
closed = 1;
nodes = (
(175,60,o),
(110,135,o),
(110,220,cs),
(110,305,o),
(175,380,o),
(265,380,cs),
(355,380,o),
(420,305,o),
(420,220,cs),
(420,135,o),
(355,60,o),
(265,60,cs)
);
}
);
width = 560;
},
{
hints = (
{
horizontal = 1;
origin = (0,16);
target = (1,11);
type = Stem;
},
{
horizontal = 1;
origin = (0,10);
target = (1,5);
type = Stem;
},
{
horizontal = 1;
origin = (0,3);
target = (1,11);
type = Stem;
},
{
origin = (0,13);
target = (1,2);
type = Stem;
},
{
origin = (0,3);
target = (0,4);
type = Stem;
}
);
layerId = "B86D9C3C-D3FC-40C7-BC9B-EF4509240B31";
shapes = (
{
closed = 1;
nodes = (
(310,-10,o),
(375,8,o),
(405,53,c),
(405,0,l),
(555,0,l),
(555,750,l),
(405,750,l),
(405,387,l),
(366,435,o),
(310,451,o),
(254,451,cs),
(129,451,o),
(35,342,o),
(35,220,cs),
(35,98,o),
(129,-10,o),
(254,-10,cs)
);
},
{
closed = 1;
nodes = (
(240,110,o),
(195,162,o),
(195,220,cs),
(195,278,o),
(240,330,o),
(300,330,cs),
(360,330,o),
(405,278,o),
(405,220,cs),
(405,162,o),
(360,110,o),
(300,110,cs)
);
}
);
width = 615;
},
{
hints = (
{
horizontal = 1;
origin = (0,16);
target = (1,11);
type = Stem;
},
{
horizontal = 1;
origin = (0,10);
target = (1,5);
type = Stem;
},
{
horizontal = 1;
origin = (0,3);
target = (1,11);
type = Stem;
},
{
origin = (0,13);
target = (1,2);
type = Stem;
},
{
origin = (0,3);
target = (0,4);
type = Stem;
}
);
layerId = "20FD933E-5CCA-4ADC-839D-1BAE82A4B007";
shapes = (
{
closed = 1;
nodes = (
(305,-10,o),
(373,3,o),
(400,46,c),
(400,0,l),
(577,0,l),
(577,750,l),
(400,750,l),
(400,394,l),
(360,440,o),
(305,451,o),
(254,451,cs),
(129,451,o),
(33,342,o),
(33,220,cs),
(33,98,o),
(129,-10,o),
(254,-10,cs)
);
},
{
closed = 1;
nodes = (
(262,127,o),
(223,171,o),
(223,220,cs),
(223,269,o),
(262,313,o),
(312,313,cs),
(362,313,o),
(400,269,o),
(400,220,cs),
(400,171,o),
(362,127,o),
(312,127,cs)
);
}
);
width = 633;
}
);
note = d;
unicode = 100;
},
{
glyphname = dcaron;
lastChange = "2023-12-15 17:47:40 +0000";
layers = (
{
hints = (
{
horizontal = 1;
origin = (0,16);
target = (1,11);
type = Stem;
},
{
horizontal = 1;
origin = (0,10);
target = (1,5);
type = Stem;
},
{
horizontal = 1;
origin = (0,3);
target = up;
type = BottomGhost;
},
{
origin = (0,13);
target = (1,2);
type = Stem;
},
{
origin = (0,3);
target = (0,4);
type = Stem;
}
);
layerId = m01;
shapes = (
{
closed = 1;
nodes = (
(326,-10,o),
(381,24,o),
(420,75,c),
(420,0,l),
(490,0,l),
(490,750,l),
(420,750,l),
(420,365,l),
(385,419,o),
(326,450,o),
(254,450,cs),
(130,450,o),
(40,341,o),
(40,220,cs),
(40,99,o),
(130,-10,o),
(254,-10,cs)
);
},
{
closed = 1;
nodes = (
(175,60,o),
(110,135,o),
(110,220,cs),
(110,305,o),
(175,380,o),
(265,380,cs),
(355,380,o),
(420,305,o),
(420,220,cs),
(420,135,o),
(355,60,o),
(265,60,cs)
);
},
{
pos = (465,0);
ref = caroncomb.alt;
}
);
width = 683;
},
{
hints = (
{
horizontal = 1;
origin = (0,16);
target = (1,11);
type = Stem;
},
{
horizontal = 1;
origin = (0,10);
target = (1,5);
type = Stem;
},
{
horizontal = 1;
origin = (0,3);
target = (1,11);
type = Stem;
},
{
origin = (0,13);
target = (1,2);
type = Stem;
},
{
origin = (0,3);
target = (0,4);
type = Stem;
}
);
layerId = "B86D9C3C-D3FC-40C7-BC9B-EF4509240B31";
shapes = (
{
closed = 1;
nodes = (
(310,-10,o),
(375,8,o),
(405,53,c),
(405,0,l),
(555,0,l),
(555,750,l),
(405,750,l),
(405,387,l),
(366,435,o),
(310,451,o),
(254,451,cs),
(129,451,o),
(35,342,o),
(35,220,cs),
(35,98,o),
(129,-10,o),
(254,-10,cs)
);
},
{
closed = 1;
nodes = (
(240,110,o),
(195,162,o),
(195,220,cs),
(195,278,o),
(240,330,o),
(300,330,cs),
(360,330,o),
(405,278,o),
(405,220,cs),
(405,162,o),
(360,110,o),
(300,110,cs)
);
},
{
pos = (549,0);
ref = caroncomb.alt;
}
);
width = 768;
},
{
hints = (
{
horizontal = 1;
origin = (0,16);
target = (1,11);
type = Stem;
},
{
horizontal = 1;
origin = (0,10);
target = (1,5);
type = Stem;
},
{
horizontal = 1;
origin = (0,3);
target = (1,11);
type = Stem;
},
{
origin = (0,13);
target = (1,2);
type = Stem;
},
{
origin = (0,3);
target = (0,4);
type = Stem;
}
);
layerId = "20FD933E-5CCA-4ADC-839D-1BAE82A4B007";
shapes = (
{
closed = 1;
nodes = (
(305,-10,o),
(373,3,o),
(400,46,c),
(400,0,l),
(577,0,l),
(577,750,l),
(400,750,l),
(400,394,l),
(360,440,o),
(305,451,o),
(254,451,cs),
(129,451,o),
(33,342,o),
(33,220,cs),
(33,98,o),
(129,-10,o),
(254,-10,cs)
);
},
{
closed = 1;
nodes = (
(262,127,o),
(223,171,o),
(223,220,cs),
(223,269,o),
(262,313,o),
(312,313,cs),
(362,313,o),
(400,269,o),
(400,220,cs),
(400,171,o),
(362,127,o),
(312,127,cs)
);
},
{
alignment = -1;
pos = (577,0);
ref = caroncomb.alt;
}
);
width = 796;
}
);
unicode = 271;
},
{
glyphname = eth;
layers = (
{
anchors = (
{
name = top;
pos = (270,453);
}
);
hints = (
{
horizontal = 1;
origin = (0,11);
target = (1,11);
type = Stem;
},
{
horizontal = 1;
origin = (1,5);
target = (0,5);
type = Stem;
},
{
horizontal = 1;
origin = (3,7);
target = (3,6);
type = Stem;
},
{
origin = (0,8);
target = (1,2);
type = Stem;
},
{
origin = (1,8);
target = (0,2);
type = Stem;
}
);
layerId = m01;
shapes = (
{
closed = 1;
nodes = (
(396,-7,o),
(500,83,o),
(500,207,cs),
(500,330,o),
(398,422,o),
(270,422,cs),
(142,422,o),
(40,330,o),
(40,207,cs),
(40,83,o),
(144,-7,o),
(270,-7,cs)
);
},
{
closed = 1;
nodes = (
(182,63,o),
(110,124,o),
(110,207,cs),
(110,291,o),
(181,352,o),
(270,352,cs),
(359,352,o),
(430,291,o),
(430,207,cs),
(430,124,o),
(358,63,o),
(270,63,cs)
);
},
{
closed = 1;
nodes = (
(472,696,l),
(432,736,l),
(216,520,l),
(256,480,l)
);
},
{
closed = 1;
nodes = (
(359,649,o),
(424,464,o),
(430,207,c),
(500,207,l),
(504,560,o),
(377,720,o),
(144,736,c),
(144,666,l)
);
}
);
width = 570;
},
{
anchors = (
{
name = top;
pos = (292,450);
}
);
hints = (
{
horizontal = 1;
origin = (0,11);
target = (1,11);
type = Stem;
},
{
horizontal = 1;
origin = (0,5);
target = (1,5);
type = Stem;
},
{
horizontal = 1;
origin = (2,0);
target = down;
type = TopGhost;
},
{
origin = (0,8);
target = (1,2);
type = Stem;
},
{
origin = (1,8);
target = (0,2);
type = Stem;
}
);
layerId = "B86D9C3C-D3FC-40C7-BC9B-EF4509240B31";
shapes = (
{
closed = 1;
nodes = (
(427,-9,o),
(538,79,o),
(538,220,cs),
(538,358,o),
(424,450,o),
(287,450,cs),
(149,450,o),
(35,358,o),
(35,220,cs),
(35,79,o),
(146,-9,o),
(287,-9,cs)
);
},
{
closed = 1;
nodes = (
(206,104,o),
(184,163,o),
(184,219,cs),
(184,274,o),
(208,333,o),
(287,333,cs),
(365,333,o),
(389,274,o),
(389,219,cs),
(389,163,o),
(367,104,o),
(287,104,cs)
);
},
{
closed = 1;
nodes = (
(478,690,l),
(391,760,l),
(175,544,l),
(262,474,l)
);
},
{
closed = 1;
nodes = (
(328,613,o),
(403,499,o),
(389,219,c),
(538,220,l),
(542,573,o),
(418,731,o),
(152,749,c),
(152,629,l)
);
}
);
width = 573;
},
{
anchors = (
{
name = top;
pos = (299,449);
}
);
hints = (
{
horizontal = 1;
origin = (0,11);
target = (1,11);
type = Stem;
},
{
horizontal = 1;
origin = (2,0);
target = down;
type = TopGhost;
},
{
horizontal = 1;
origin = (1,5);
target = (0,5);
type = Stem;
},
{
origin = (0,8);
target = (1,2);
type = Stem;
},
{
origin = (1,8);
target = (0,2);
type = Stem;
}
);
layerId = "20FD933E-5CCA-4ADC-839D-1BAE82A4B007";
shapes = (
{
closed = 1;
nodes = (
(437,-10,o),
(551,78,o),
(551,224,cs),
(551,367,o),
(433,459,o),
(293,459,cs),
(151,459,o),
(33,367,o),
(33,224,cs),
(33,78,o),
(147,-10,o),
(293,-10,cs)
);
},
{
closed = 1;
nodes = (
(214,118,o),
(209,176,o),
(209,223,cs),
(209,268,o),
(217,327,o),
(293,327,cs),
(367,327,o),
(375,268,o),
(375,223,cs),
(375,176,o),
(370,118,o),
(293,118,cs)
);
},
{
closed = 1;
nodes = (
(480,688,l),
(377,768,l),
(161,552,l),
(264,472,l)
);
},
{
closed = 1;
nodes = (
(318,601,o),
(396,511,o),
(375,223,c),
(551,224,l),
(555,577,o),
(432,735,o),
(155,753,c),
(155,617,l)
);
}
);
width = 574;
}
);
note = eth;
unicode = 240;
},
{
color = 6;
glyphname = e;
kernLeft = cod;
kernRight = bop;
lastChange = "2024-01-16 02:12:21 +0000";
layers = (
{
anchors = (
{
name = ogonek;
pos = (432,49);
},
{
name = top;
pos = (272,454);
}
);
hints = (
{
horizontal = 1;
origin = (0,28);
target = (0,6);
type = Stem;
},
{
horizontal = 1;
origin = (0,17);
target = (0,16);
type = Stem;
},
{
horizontal = 1;
origin = (0,22);
target = (0,12);
type = Stem;
},
{
place = (40,73);
type = Stem;
}
);
layerId = m01;
shapes = (
{
closed = 1;
nodes = (
(348,-7,o),
(425,26,o),
(470,83,c),
(417,127,l),
(381,83,o),
(332,63,o),
(270,63,cs),
(190,63,o),
(112,123,o),
(112,216,cs),
(112,310,o),
(176,382,o),
(270,382,cs),
(346,382,o),
(410,330,o),
(426,263,c),
(84,263,l),
(82,198,l),
(500,198,l),
(500,226,ls),
(500,349,o),
(393,452,o),
(270,452,cs),
(142,452,o),
(40,350,o),
(40,222,cs),
(40,83,o),
(149,-7,o),
(281,-7,cs)
);
}
);
width = 540;
},
{
anchors = (
{
name = ogonek;
pos = (446,31);
},
{
name = top;
pos = (295,451);
}
);
background = {
shapes = (
{
closed = 1;
nodes = (
(196,273,l),
(196,273,o),
(201,355,o),
(295,355,cs),
(386,355,o),
(393,273,o),
(393,273,c)
);
},
{
closed = 1;
nodes = (
(537,371,o),
(426,451,o),
(292,451,cs),
(144,451,o),
(35,358,o),
(35,220,cs),
(35,80,o),
(140,-10,o),
(292,-10,cs),
(409,-10,o),
(503,48,o),
(529,164,c),
(376,164,l),
(375,132,o),
(342,97,o),
(289,97,cs),
(230,97,o),
(194,151,o),
(194,202,c),
(536,202,l),
(536,211,o),
(537,221,o),
(537,230,cs)
);
}
);
};
hints = (
{
horizontal = 1;
origin = (0,28);
target = (0,6);
type = Stem;
},
{
horizontal = 1;
origin = (0,17);
target = (0,16);
type = Stem;
},
{
horizontal = 1;
origin = (0,22);
target = (0,12);
type = Stem;
},
{
place = (35,159);
type = Stem;
},
{
origin = (0,15);
target = (0,18);
type = Stem;
}
);
layerId = "B86D9C3C-D3FC-40C7-BC9B-EF4509240B31";
shapes = (
{
closed = 1;
nodes = (
(384,-10,o),
(467,28,o),
(506,72,c),
(421,145,l),
(402,121,o),
(350,94,o),
(289,94,cs),
(230,94,o),
(189,148,o),
(189,239,c),
(189,311,o),
(223,355,o),
(295,355,cs),
(353,355,o),
(393,322,o),
(393,277,c),
(164,277,l),
(164,191,l),
(537,191,l),
(537,219,l),
(537,360,o),
(426,451,o),
(292,451,cs),
(144,451,o),
(35,358,o),
(35,220,cs),
(35,80,o),
(140,-10,o),
(292,-10,cs)
);
}
);
width = 572;
},
{
anchors = (
{
name = ogonek;
pos = (451,25);
},
{
name = top;
pos = (303,450);
}
);
hints = (
{
horizontal = 1;
origin = (0,28);
target = (0,6);
type = Stem;
},
{
horizontal = 1;
origin = (0,17);
target = (0,16);
type = Stem;
},
{
horizontal = 1;
origin = (0,22);
target = (0,12);
type = Stem;
},
{
place = (33,186);
type = Stem;
},
{
place = (385,164);
type = Stem;
},
{
place = (33,187);
type = Stem;
}
);
layerId = "20FD933E-5CCA-4ADC-839D-1BAE82A4B007";
shapes = (
{
closed = 1;
nodes = (
(396,-11,o),
(491,29,o),
(528,68,c),
(430,154,l),
(417,137,o),
(356,104,o),
(295,104,cs),
(243,104,o),
(217,158,o),
(217,245,cs),
(217,304,o),
(239,346,o),
(303,346,cs),
(349,346,o),
(371,326,o),
(382,279,c),
(191,279,l),
(191,191,l),
(559,191,l),
(559,223,ls),
(559,370,o),
(437,451,o),
(299,451,cs),
(145,451,o),
(33,361,o),
(33,219,cs),
(33,79,o),
(137,-11,o),
(296,-11,cs)
);
}
);
width = 594;
}
);
note = e;
unicode = 101;
},
{
glyphname = f;
kernLeft = t;
lastChange = "2023-12-15 17:47:40 +0000";
layers = (
{
hints = (
{
horizontal = 1;
origin = (0,19);
target = up;
type = BottomGhost;
},
{
horizontal = 1;
origin = (0,16);
target = (0,17);
type = Stem;
},
{
horizontal = 1;
origin = (0,11);
target = (0,8);
type = Stem;
},
{
origin = (0,19);
target = (0,0);
type = Stem;
},
{
origin = (0,19);
target = (0,2);
type = Stem;
}
);
layerId = m01;
shapes = (
{
closed = 1;
nodes = (
(189,0,l),
(189,375,l),
(296,375,l),
(296,440,l),
(189,440,l),
(189,630,ls),
(189,669,o),
(207,685,o),
(246,685,cs),
(286,685,l),
(286,750,l),
(256,750,ls),
(162,750,o),
(119,710,o),
(119,617,cs),
(119,440,l),
(20,440,l),
(20,375,l),
(119,375,l),
(119,0,l)
);
}
);
width = 326;
},
{
hints = (
{
horizontal = 1;
origin = (0,19);
target = up;
type = BottomGhost;
},
{
horizontal = 1;
origin = (0,16);
target = (0,17);
type = Stem;
},
{
horizontal = 1;
origin = (0,11);
target = (0,8);
type = Stem;
},
{
origin = (0,19);
target = (0,0);
type = Stem;
}
);
layerId = "B86D9C3C-D3FC-40C7-BC9B-EF4509240B31";
shapes = (
{
closed = 1;
nodes = (
(253,0,l),
(253,325,l),
(356,325,l),
(356,441,l),
(253,441,l),
(253,553,ls),
(253,606,o),
(271,633,o),
(302,633,cs),
(336,633,l),
(336,750,l),
(255,750,ls),
(175,750,o),
(103,690,o),
(103,571,cs),
(103,441,l),
(20,441,l),
(20,325,l),
(103,325,l),
(103,0,l)
);
}
);
width = 386;
},
{
hints = (
{
horizontal = 1;
origin = (0,19);
target = up;
type = BottomGhost;
},
{
horizontal = 1;
origin = (0,16);
target = (0,17);
type = Stem;
},
{
horizontal = 1;
origin = (0,11);
target = (0,8);
type = Stem;
},
{
origin = (0,19);
target = (0,0);
type = Stem;
}
);
layerId = "20FD933E-5CCA-4ADC-839D-1BAE82A4B007";
shapes = (
{
closed = 1;
nodes = (
(274,0,l),
(274,308,l),
(376,308,l),
(376,441,l),
(274,441,l),
(274,527,ls),
(274,585,o),
(292,616,o),
(321,616,cs),
(353,616,l),
(353,750,l),
(255,750,ls),
(179,750,o),
(98,683,o),
(98,556,cs),
(98,441,l),
(20,441,l),
(20,308,l),
(98,308,l),
(98,0,l)
);
}
);
width = 406;
}
);
note = f;
unicode = 102;
},
{
glyphname = g;
kernLeft = cod;
lastChange = "2024-01-16 00:52:41 +0000";
layers = (
{
anchors = (
{
name = top;
pos = (262,453);
}
);
hints = (
{
horizontal = 1;
origin = (0,28);
target = (0,21);
type = Stem;
},
{
horizontal = 1;
origin = (0,14);
target = (1,11);
type = Stem;
},
{
horizontal = 1;
origin = (0,8);
target = (1,5);
type = Stem;
},
{
horizontal = 1;
origin = (0,4);
target = down;
type = TopGhost;
},
{
origin = (0,11);
target = (1,2);
type = Stem;
},
{
origin = (0,18);
target = (0,2);
type = Stem;
}
);
layerId = m01;
shapes = (
{
closed = 1;
nodes = (
(396,-250,o),
(495,-148,o),
(495,-22,cs),
(495,440,l),
(425,440,l),
(425,366,l),
(399,402,o),
(342,450,o),
(260,450,cs),
(135,450,o),
(45,342,o),
(45,220,cs),
(45,98,o),
(135,-10,o),
(260,-10,cs),
(341,-10,o),
(396,34,o),
(425,74,c),
(425,-22,ls),
(425,-109,o),
(357,-180,o),
(270,-180,cs),
(208,-180,o),
(148,-134,o),
(132,-65,c),
(62,-65,l),
(77,-163,o),
(158,-250,o),
(270,-250,cs)
);
},
{
closed = 1;
nodes = (
(183,60,o),
(115,133,o),
(115,220,cs),
(115,307,o),
(183,380,o),
(270,380,cs),
(360,380,o),
(425,305,o),
(425,220,cs),
(425,135,o),
(360,60,o),
(270,60,cs)
);
}
);
width = 565;
},
{
anchors = (
{
name = top;
pos = (263,450);
}
);
hints = (
{
horizontal = 1;
origin = (0,28);
target = (0,21);
type = Stem;
},
{
horizontal = 1;
origin = (0,14);
target = (1,11);
type = Stem;
},
{
horizontal = 1;
origin = (0,8);
target = (1,5);
type = Stem;
},
{
horizontal = 1;
origin = (0,4);
target = (1,5);
type = Stem;
},
{
origin = (0,18);
target = (0,2);
type = Stem;
},
{
origin = (0,11);
target = (1,2);
type = Stem;
}
);
layerId = "B86D9C3C-D3FC-40C7-BC9B-EF4509240B31";
shapes = (
{
closed = 1;
nodes = (
(440,-250,o),
(555,-144,o),
(555,1,cs),
(555,441,l),
(405,441,l),
(405,387,l),
(362,437,o),
(310,451,o),
(254,451,cs),
(129,451,o),
(35,343,o),
(35,221,cs),
(35,99,o),
(129,-10,o),
(254,-10,cs),
(310,-10,o),
(375,8,o),
(405,54,c),
(405,-16,ls),
(405,-79,o),
(358,-139,o),
(292,-139,cs),
(244,-139,o),
(203,-108,o),
(192,-56,c),
(42,-56,l),
(49,-190,o),
(180,-250,o),
(300,-250,cs)
);
},
{
closed = 1;
nodes = (
(240,110,o),
(195,162,o),
(195,221,cs),
(195,279,o),
(240,331,o),
(300,331,cs),
(360,331,o),
(405,279,o),
(405,221,cs),
(405,162,o),
(360,110,o),
(300,110,cs)
);
}
);
width = 615;
},
{
anchors = (
{
name = top;
pos = (263,449);
}
);
hints = (
{
horizontal = 1;
origin = (0,28);
target = (0,21);
type = Stem;
},
{
horizontal = 1;
origin = (0,14);
target = (1,11);
type = Stem;
},
{
horizontal = 1;
origin = (0,8);
target = (1,5);
type = Stem;
},
{
horizontal = 1;
origin = (0,4);
target = (1,5);
type = Stem;
},
{
origin = (0,18);
target = (0,2);
type = Stem;
},
{
origin = (0,11);
target = (1,2);
type = Stem;
}
);
layerId = "20FD933E-5CCA-4ADC-839D-1BAE82A4B007";
shapes = (
{
closed = 1;
nodes = (
(455,-250,o),
(575,-143,o),
(575,9,cs),
(575,441,l),
(398,441,l),
(398,394,l),
(350,449,o),
(299,451,o),
(252,451,cs),
(127,451,o),
(32,343,o),
(32,221,cs),
(32,99,o),
(127,-10,o),
(252,-10,cs),
(300,-10,o),
(368,-1,o),
(398,47,c),
(398,-14,ls),
(398,-69,o),
(358,-125,o),
(299,-125,cs),
(256,-125,o),
(221,-99,o),
(212,-53,c),
(35,-53,l),
(40,-199,o),
(187,-250,o),
(310,-250,cs)
);
},
{
closed = 1;
nodes = (
(259,127,o),
(222,172,o),
(222,221,cs),
(222,270,o),
(259,315,o),
(310,315,cs),
(360,315,o),
(398,270,o),
(398,221,cs),
(398,171,o),
(360,127,o),
(310,127,cs)
);
}
);
width = 632;
}
);
note = g;
unicode = 103;
},
{
glyphname = h;
kernRight = hmn;
lastChange = "2023-12-15 17:47:40 +0000";
layers = (
{
hints = (
{
horizontal = 1;
origin = (0,19);
target = up;
type = BottomGhost;
},
{
horizontal = 1;
origin = (0,13);
target = (0,4);
type = Stem;
},
{
origin = (0,19);
target = (0,0);
type = Stem;
},
{
origin = (0,8);
target = (0,9);
type = Stem;
}
);
layerId = m01;
shapes = (
{
closed = 1;
nodes = (
(140,0,l),
(140,184,ls),
(140,308,o),
(182,379,o),
(290,379,cs),
(354,379,o),
(374,327,o),
(374,275,cs),
(374,0,l),
(444,0,l),
(444,275,ls),
(444,380,o),
(388,449,o),
(279,449,cs),
(214,449,o),
(168,412,o),
(140,364,c),
(140,750,l),
(70,750,l),
(70,0,l)
);
}
);
width = 504;
},
{
hints = (
{
horizontal = 1;
origin = (0,19);
target = up;
type = BottomGhost;
},
{
horizontal = 1;
origin = (0,13);
target = (0,4);
type = Stem;
},
{
origin = (0,19);
target = (0,0);
type = Stem;
},
{
origin = (0,8);
target = (0,9);
type = Stem;
}
);
layerId = "B86D9C3C-D3FC-40C7-BC9B-EF4509240B31";
shapes = (
{
closed = 1;
nodes = (
(210,0,l),
(210,220,ls),
(210,280,o),
(247,330,o),
(294,330,cs),
(341,330,o),
(361,302,o),
(361,250,cs),
(361,0,l),
(511,0,l),
(511,250,ls),
(511,370,o),
(463,451,o),
(345,451,cs),
(287,451,o),
(240,425,o),
(210,387,c),
(210,750,l),
(60,750,l),
(60,0,l)
);
}
);
width = 561;
},
{
hints = (
{
horizontal = 1;
origin = (0,19);
target = up;
type = BottomGhost;
},
{
horizontal = 1;
origin = (0,13);
target = down;
type = TopGhost;
},
{
horizontal = 1;
origin = (0,4);
target = (0,13);
type = Stem;
},
{
origin = (0,19);
target = (0,0);
type = Stem;
},
{
origin = (0,8);
target = (0,9);
type = Stem;
}
);
layerId = "20FD933E-5CCA-4ADC-839D-1BAE82A4B007";
shapes = (
{
closed = 1;
nodes = (
(233,0,l),
(233,232,ls),
(233,271,o),
(269,314,o),
(295,314,cs),
(337,314,o),
(357,294,o),
(357,242,cs),
(357,0,l),
(533,0,l),
(533,242,ls),
(533,367,o),
(488,452,o),
(367,452,cs),
(311,452,o),
(264,429,o),
(233,395,c),
(233,750,l),
(57,750,l),
(57,0,l)
);
}
);
width = 580;
}
);
note = h;
unicode = 104;
},
{
glyphname = i;
lastChange = "2023-12-15 17:47:40 +0000";
layers = (
{
anchors = (
{
name = ogonek;
pos = (130,3);
}
);
hints = (
{
horizontal = 1;
origin = (0,3);
target = up;
type = BottomGhost;
},
{
horizontal = 1;
origin = (0,2);
target = down;
type = TopGhost;
},
{
horizontal = 1;
origin = (1,11);
target = (1,5);
type = Stem;
},
{
origin = (0,3);
target = (0,0);
type = Stem;
},
{
origin = (1,8);
target = (1,2);
type = Stem;
}
);
layerId = m01;
shapes = (
{
closed = 1;
nodes = (
(150,0,l),
(150,440,l),
(80,440,l),
(80,0,l)
);
},
{
closed = 1;
nodes = (
(139,516,o),
(159,536,o),
(159,560.5,cs),
(159,585,o),
(139,605,o),
(114.5,605,cs),
(90,605,o),
(70,585,o),
(70,560.5,cs),
(70,536,o),
(90,516,o),
(114.5,516,cs)
);
}
);
width = 229;
},
{
anchors = (
{
name = ogonek;
pos = (169,3);
}
);
hints = (
{
horizontal = 1;
origin = (0,3);
target = up;
type = BottomGhost;
},
{
horizontal = 1;
origin = (0,2);
target = down;
type = TopGhost;
},
{
horizontal = 1;
origin = (1,11);
target = (1,5);
type = Stem;
},
{
origin = (0,3);
target = (0,0);
type = Stem;
},
{
origin = (1,8);
target = (1,2);
type = Stem;
}
);
layerId = "B86D9C3C-D3FC-40C7-BC9B-EF4509240B31";
shapes = (
{
closed = 1;
nodes = (
(223,0,l),
(223,441,l),
(73,441,l),
(73,0,l)
);
},
{
closed = 1;
nodes = (
(196,504,o),
(236,544,o),
(236,592,cs),
(236,641,o),
(196,680,o),
(148,680,cs),
(99,680,o),
(60,641,o),
(60,592,cs),
(60,544,o),
(99,504,o),
(148,504,cs)
);
}
);
width = 296;
},
{
anchors = (
{
name = ogonek;
pos = (182,3);
}
);
hints = (
{
horizontal = 1;
origin = (0,3);
target = up;
type = BottomGhost;
},
{
horizontal = 1;
origin = (0,2);
target = down;
type = TopGhost;
},
{
horizontal = 1;
origin = (1,11);
target = (1,5);
type = Stem;
},
{
origin = (0,3);
target = (0,0);
type = Stem;
},
{
origin = (1,8);
target = (1,2);
type = Stem;
}
);
layerId = "20FD933E-5CCA-4ADC-839D-1BAE82A4B007";
shapes = (
{
closed = 1;
nodes = (
(247,0,l),
(247,441,l),
(71,441,l),
(71,0,l)
);
},
{
closed = 1;
nodes = (
(215,500,o),
(262,547,o),
(262,603,cs),
(262,660,o),
(215,705,o),
(159,705,cs),
(102,705,o),
(57,660,o),
(57,603,cs),
(57,547,o),
(102,500,o),
(159,500,cs)
);
}
);
width = 318;
}
);
note = i;
unicode = 105;
},
{
glyphname = dotlessi;
lastChange = "2023-12-15 17:47:40 +0000";
layers = (
{
anchors = (
{
name = ogonek;
pos = (135,0);
},
{
name = top;
pos = (115,443);
}
);
hints = (
{
horizontal = 1;
origin = (0,3);
target = up;
type = BottomGhost;
},
{
horizontal = 1;
origin = (0,2);
target = down;
type = TopGhost;
},
{
origin = (0,3);
target = (0,0);
type = Stem;
}
);
layerId = m01;
shapes = (
{
closed = 1;
nodes = (
(150,0,l),
(150,440,l),
(80,440,l),
(80,0,l)
);
}
);
width = 229;
},
{
anchors = (
{
name = ogonek;
pos = (162,3);
},
{
name = top;
pos = (141,442);
}
);
hints = (
{
horizontal = 1;
origin = (0,3);
target = up;
type = BottomGhost;
},
{
horizontal = 1;
origin = (0,2);
target = down;
type = TopGhost;
},
{
origin = (0,3);
target = (0,0);
type = Stem;
}
);
layerId = "B86D9C3C-D3FC-40C7-BC9B-EF4509240B31";
shapes = (
{
closed = 1;
nodes = (
(215,0,l),
(215,441,l),
(65,441,l),
(65,0,l)
);
}
);
width = 280;
},
{
anchors = (
{
name = ogonek;
pos = (171,4);
},
{
name = top;
pos = (150,442);
}
);
hints = (
{
horizontal = 1;
origin = (0,3);
target = up;
type = BottomGhost;
},
{
horizontal = 1;
origin = (0,2);
target = down;
type = TopGhost;
},
{
origin = (0,3);
target = (0,0);
type = Stem;
}
);
layerId = "20FD933E-5CCA-4ADC-839D-1BAE82A4B007";
shapes = (
{
closed = 1;
nodes = (
(237,0,l),
(237,441,l),
(60,441,l),
(60,0,l)
);
}
);
width = 297;
}
);
note = dotlessi;
unicode = 305;
},
{
glyphname = j;
lastChange = "2023-12-15 17:47:40 +0000";
layers = (
{
hints = (
{
horizontal = 1;
origin = (0,15);
target = (0,8);
type = Stem;
},
{
horizontal = 1;
origin = (0,4);
target = down;
type = TopGhost;
},
{
horizontal = 1;
origin = (1,11);
target = (1,5);
type = Stem;
},
{
origin = (0,5);
target = (0,2);
type = Stem;
},
{
origin = (1,8);
target = (1,2);
type = Stem;
}
);
layerId = m01;
shapes = (
{
closed = 1;
nodes = (
(97,-243,o),
(155,-169,o),
(155,-84,cs),
(155,440,l),
(85,440,l),
(85,-83,ls),
(85,-137,o),
(54,-173,o),
(3,-173,cs),
(-22,-173,o),
(-53,-155,o),
(-69,-133,c),
(-115,-185,l),
(-78,-228,o),
(-29,-243,o),
(15,-243,cs)
);
},
{
closed = 1;
nodes = (
(145,515,o),
(165,535,o),
(165,560,cs),
(165,585,o),
(145,605,o),
(120,605,cs),
(95,605,o),
(75,585,o),
(75,560,cs),
(75,535,o),
(95,515,o),
(120,515,cs)
);
}
);
width = 235;
},
{
hints = (
{
horizontal = 1;
origin = (0,15);
target = (0,8);
type = Stem;
},
{
horizontal = 1;
origin = (0,4);
target = down;
type = TopGhost;
},
{
horizontal = 1;
origin = (1,5);
target = down;
type = TopGhost;
},
{
horizontal = 1;
origin = (1,11);
target = (1,5);
type = Stem;
},
{
origin = (0,5);
target = (0,2);
type = Stem;
},
{
origin = (1,8);
target = (1,2);
type = Stem;
}
);
layerId = "B86D9C3C-D3FC-40C7-BC9B-EF4509240B31";
shapes = (
{
closed = 1;
nodes = (
(187,-250,o),
(236,-152,o),
(236,-43,cs),
(236,441,l),
(86,441,l),
(86,-44,ls),
(86,-81,o),
(72,-115,o),
(27,-115,cs),
(-4,-115,o),
(-30,-92,o),
(-47,-73,c),
(-120,-176,l),
(-73,-232,o),
(-8,-250,o),
(44,-250,cs)
);
},
{
closed = 1;
nodes = (
(209,504,o),
(249,544,o),
(249,592,cs),
(249,641,o),
(209,680,o),
(161,680,cs),
(113,680,o),
(73,641,o),
(73,592,cs),
(73,544,o),
(113,504,o),
(161,504,cs)
);
}
);
width = 296;
},
{
hints = (
{
horizontal = 1;
origin = (0,15);
target = (0,8);
type = Stem;
},
{
horizontal = 1;
origin = (0,4);
target = down;
type = TopGhost;
},
{
horizontal = 1;
origin = (1,11);
target = (1,5);
type = Stem;
},
{
origin = (0,5);
target = (0,2);
type = Stem;
},
{
origin = (1,8);
target = (1,2);
type = Stem;
}
);
layerId = "20FD933E-5CCA-4ADC-839D-1BAE82A4B007";
shapes = (
{
closed = 1;
nodes = (
(217,-252,o),
(263,-146,o),
(263,-29,cs),
(263,441,l),
(86,441,l),
(86,-31,ls),
(86,-62,o),
(78,-96,o),
(35,-96,cs),
(2,-96,o),
(-22,-71,o),
(-40,-53,c),
(-122,-173,l),
(-71,-233,o),
(-1,-252,o),
(54,-252,cs)
);
},
{
closed = 1;
nodes = (
(230,500,o),
(277,547,o),
(277,603,cs),
(277,660,o),
(230,705,o),
(175,705,cs),
(119,705,o),
(72,660,o),
(72,603,cs),
(72,547,o),
(119,500,o),
(175,500,cs)
);
}
);
width = 316;
}
);
note = j;
unicode = 106;
},
{
glyphname = jdotless;
lastChange = "2023-12-15 17:47:40 +0000";
layers = (
{
hints = (
{
horizontal = 1;
origin = (0,15);
target = (0,8);
type = Stem;
},
{
horizontal = 1;
origin = (0,4);
target = down;
type = TopGhost;
},
{
origin = (0,5);
target = (0,2);
type = Stem;
}
);
layerId = m01;
shapes = (
{
closed = 1;
nodes = (
(97,-243,o),
(155,-169,o),
(155,-84,cs),
(155,440,l),
(85,440,l),
(85,-85,ls),
(85,-139,o),
(54,-175,o),
(3,-175,cs),
(-22,-175,o),
(-53,-157,o),
(-69,-135,c),
(-115,-185,l),
(-78,-228,o),
(-29,-243,o),
(15,-243,cs)
);
}
);
width = 235;
},
{
hints = (
{
horizontal = 1;
origin = (0,15);
target = (0,8);
type = Stem;
},
{
horizontal = 1;
origin = (0,4);
target = down;
type = TopGhost;
},
{
origin = (0,5);
target = (0,2);
type = Stem;
}
);
layerId = "B86D9C3C-D3FC-40C7-BC9B-EF4509240B31";
shapes = (
{
closed = 1;
nodes = (
(187,-250,o),
(236,-152,o),
(236,-43,cs),
(236,441,l),
(86,441,l),
(86,-39,ls),
(86,-76,o),
(72,-110,o),
(27,-110,cs),
(-4,-110,o),
(-27,-87,o),
(-42,-66,c),
(-120,-176,l),
(-73,-232,o),
(-8,-250,o),
(44,-250,cs)
);
}
);
width = 296;
},
{
hints = (
{
horizontal = 1;
origin = (0,15);
target = (0,8);
type = Stem;
},
{
horizontal = 1;
origin = (0,4);
target = down;
type = TopGhost;
},
{
origin = (0,5);
target = (0,2);
type = Stem;
}
);
layerId = "20FD933E-5CCA-4ADC-839D-1BAE82A4B007";
shapes = (
{
closed = 1;
nodes = (
(217,-252,o),
(263,-146,o),
(263,-29,cs),
(263,441,l),
(86,441,l),
(86,-24,ls),
(86,-55,o),
(78,-88,o),
(35,-88,cs),
(2,-88,o),
(-18,-64,o),
(-33,-43,c),
(-122,-173,l),
(-71,-233,o),
(-1,-252,o),
(54,-252,cs)
);
}
);
width = 316;
}
);
unicode = 567;
},
{
glyphname = k;
lastChange = "2023-12-15 17:47:40 +0000";
layers = (
{
anchors = (
{
name = bottom;
pos = (211,5);
}
);
hints = (
{
horizontal = 1;
origin = (0,10);
target = up;
type = BottomGhost;
},
{
horizontal = 1;
origin = (0,6);
target = down;
type = TopGhost;
},
{
origin = (0,10);
target = (0,0);
type = Stem;
}
);
layerId = m01;
shapes = (
{
closed = 1;
nodes = (
(140,0,l),
(140,211,l),
(313,0,l),
(406,0,l),
(213,227,l),
(394,441,l),
(301,441,l),
(140,243,l),
(140,750,l),
(70,750,l),
(70,0,l)
);
}
);
width = 416;
},
{
anchors = (
{
name = bottom;
pos = (262,3);
}
);
hints = (
{
horizontal = 1;
origin = (0,10);
target = up;
type = BottomGhost;
},
{
horizontal = 1;
origin = (0,6);
target = down;
type = TopGhost;
},
{
origin = (0,10);
target = (0,0);
type = Stem;
}
);
layerId = "B86D9C3C-D3FC-40C7-BC9B-EF4509240B31";
shapes = (
{
closed = 1;
nodes = (
(210,0,l),
(210,195,l),
(365,0,l),
(557,0,l),
(347,231,l),
(537,441,l),
(351,441,l),
(210,266,l),
(210,750,l),
(60,750,l),
(60,0,l)
);
}
);
width = 557;
},
{
anchors = (
{
name = bottom;
pos = (279,2);
}
);
hints = (
{
horizontal = 1;
origin = (0,10);
target = up;
type = BottomGhost;
},
{
horizontal = 1;
origin = (0,6);
target = down;
type = TopGhost;
},
{
origin = (0,10);
target = (0,0);
type = Stem;
}
);
layerId = "20FD933E-5CCA-4ADC-839D-1BAE82A4B007";
shapes = (
{
closed = 1;
nodes = (
(233,0,l),
(233,190,l),
(382,0,l),
(607,0,l),
(392,232,l),
(585,441,l),
(368,441,l),
(233,274,l),
(233,750,l),
(57,750,l),
(57,0,l)
);
}
);
width = 604;
}
);
note = k;
unicode = 107;
},
{
glyphname = l;
lastChange = "2023-12-15 17:47:40 +0000";
layers = (
{
anchors = (
{
name = bottom;
pos = (106,0);
},
{
name = top;
pos = (108,750);
}
);
hints = (
{
horizontal = 1;
origin = (0,3);
target = up;
type = BottomGhost;
},
{
origin = (0,3);
target = (0,0);
type = Stem;
}
);
layerId = m01;
shapes = (
{
closed = 1;
nodes = (
(145,0,l),
(145,750,l),
(75,750,l),
(75,0,l)
);
}
);
width = 220;
},
{
anchors = (
{
name = bottom;
pos = (139,0);
},
{
name = top;
pos = (134,752);
}
);
hints = (
{
horizontal = 1;
origin = (0,3);
target = up;
type = BottomGhost;
},
{
origin = (0,3);
target = (0,0);
type = Stem;
}
);
layerId = "B86D9C3C-D3FC-40C7-BC9B-EF4509240B31";
shapes = (
{
closed = 1;
nodes = (
(210,0,l),
(210,750,l),
(60,750,l),
(60,0,l)
);
}
);
width = 270;
},
{
anchors = (
{
name = bottom;
pos = (150,0);
},
{
name = top;
pos = (143,753);
}
);
hints = (
{
horizontal = 1;
origin = (0,3);
target = up;
type = BottomGhost;
},
{
origin = (0,3);
target = (0,0);
type = Stem;
}
);
layerId = "20FD933E-5CCA-4ADC-839D-1BAE82A4B007";
shapes = (
{
closed = 1;
nodes = (
(232,0,l),
(232,750,l),
(55,750,l),
(55,0,l)
);
}
);
width = 287;
}
);
note = l;
unicode = 108;
},
{
glyphname = m;
kernRight = hmn;
lastChange = "2023-12-15 17:47:40 +0000";
layers = (
{
hints = (
{
horizontal = 1;
origin = (0,28);
target = (0,4);
type = Stem;
},
{
horizontal = 1;
origin = (0,33);
target = down;
type = TopGhost;
},
{
origin = (0,34);
target = (0,0);
type = Stem;
},
{
origin = (0,8);
target = (0,9);
type = Stem;
},
{
origin = (0,17);
target = (0,18);
type = Stem;
}
);
layerId = m01;
shapes = (
{
closed = 1;
nodes = (
(140,2,l),
(140,227,l),
(148,308,o),
(193,382,o),
(268,382,cs),
(332,382,o),
(357,339,o),
(357,277,cs),
(357,2,l),
(427,2,l),
(427,277,ls),
(427,334,o),
(485,382,o),
(539,382,cs),
(603,382,o),
(628,339,o),
(628,277,cs),
(628,2,l),
(698,2,l),
(698,277,ls),
(698,386,o),
(642,452,o),
(541,452,cs),
(479,452,o),
(436,416,o),
(409,368,c),
(383,425,o),
(337,452,o),
(270,452,cs),
(209,452,o),
(167,417,o),
(140,372,c),
(140,442,l),
(70,442,l),
(70,2,l)
);
}
);
width = 758;
},
{
hints = (
{
horizontal = 1;
origin = (0,34);
target = up;
type = BottomGhost;
},
{
horizontal = 1;
origin = (0,28);
target = (0,4);
type = Stem;
},
{
horizontal = 1;
origin = (0,33);
target = (0,4);
type = Stem;
},
{
origin = (0,34);
target = (0,0);
type = Stem;
},
{
origin = (0,8);
target = (0,9);
type = Stem;
},
{
origin = (0,17);
target = (0,18);
type = Stem;
}
);
layerId = "B86D9C3C-D3FC-40C7-BC9B-EF4509240B31";
shapes = (
{
closed = 1;
nodes = (
(210,0,l),
(210,220,ls),
(210,264,o),
(240,330,o),
(291,330,cs),
(341,330,o),
(355,287,o),
(355,244,cs),
(355,0,l),
(505,0,l),
(505,224,ls),
(505,274,o),
(528,330,o),
(586,330,cs),
(636,330,o),
(650,287,o),
(650,244,cs),
(650,0,l),
(800,0,l),
(800,244,ls),
(800,358,o),
(745,451,o),
(630,451,cs),
(561,451,o),
(512,431,o),
(469,376,c),
(438,426,o),
(388,451,o),
(332,451,cs),
(283,451,o),
(240,425,o),
(210,387,c),
(210,441,l),
(60,441,l),
(60,0,l)
);
}
);
width = 850;
},
{
hints = (
{
horizontal = 1;
origin = (0,34);
target = up;
type = BottomGhost;
},
{
horizontal = 1;
origin = (0,28);
target = (0,4);
type = Stem;
},
{
horizontal = 1;
origin = (0,33);
target = (0,4);
type = Stem;
},
{
origin = (0,34);
target = (0,0);
type = Stem;
},
{
origin = (0,8);
target = (0,9);
type = Stem;
},
{
origin = (0,17);
target = (0,18);
type = Stem;
}
);
layerId = "20FD933E-5CCA-4ADC-839D-1BAE82A4B007";
shapes = (
{
closed = 1;
nodes = (
(233,-1,l),
(233,218,l),
(231,249,o),
(256,313,o),
(299,313,cs),
(344,313,o),
(354,270,o),
(354,233,cs),
(354,-1,l),
(531,-1,l),
(531,206,ls),
(531,254,o),
(542,313,o),
(602,313,cs),
(647,313,o),
(657,270,o),
(657,233,cs),
(657,-1,l),
(834,-1,l),
(834,233,ls),
(834,349,o),
(779,451,o),
(660,451,cs),
(588,451,o),
(537,436,o),
(489,379,c),
(456,426,o),
(405,451,o),
(353,451,cs),
(308,451,o),
(264,428,o),
(233,392,c),
(233,441,l),
(57,441,l),
(57,-1,l)
);
}
);
width = 881;
}
);
note = m;
unicode = 109;
},
{
glyphname = n;
kernRight = hmn;
lastChange = "2023-12-15 17:47:40 +0000";
layers = (
{
anchors = (
{
name = bottom;
pos = (265,5);
},
{
name = top;
pos = (267,448);
}
);
hints = (
{
horizontal = 1;
origin = (0,19);
target = up;
type = BottomGhost;
},
{
horizontal = 1;
origin = (0,13);
target = (0,4);
type = Stem;
},
{
horizontal = 1;
origin = (0,18);
target = down;
type = TopGhost;
},
{
origin = (0,19);
target = (0,0);
type = Stem;
},
{
origin = (0,8);
target = (0,9);
type = Stem;
}
);
layerId = m01;
shapes = (
{
closed = 1;
nodes = (
(140,0,l),
(140,184,ls),
(140,292,o),
(182,379,o),
(290,379,cs),
(354,379,o),
(374,327,o),
(374,275,cs),
(374,0,l),
(444,0,l),
(444,275,ls),
(444,386,o),
(385,449,o),
(282,449,cs),
(217,449,o),
(168,412,o),
(140,364,c),
(140,440,l),
(70,440,l),
(70,0,l)
);
}
);
width = 504;
},
{
anchors = (
{
name = bottom;
pos = (287,5);
},
{
name = top;
pos = (309,452);
}
);
hints = (
{
horizontal = 1;
origin = (0,19);
target = up;
type = BottomGhost;
},
{
horizontal = 1;
origin = (0,13);
target = (0,4);
type = Stem;
},
{
horizontal = 1;
origin = (0,18);
target = (0,4);
type = Stem;
},
{
origin = (0,19);
target = (0,0);
type = Stem;
},
{
origin = (0,8);
target = (0,9);
type = Stem;
}
);
layerId = "B86D9C3C-D3FC-40C7-BC9B-EF4509240B31";
shapes = (
{
closed = 1;
nodes = (
(210,0,l),
(210,220,ls),
(210,280,o),
(247,330,o),
(294,330,cs),
(341,330,o),
(361,302,o),
(361,250,cs),
(361,0,l),
(511,0,l),
(511,250,ls),
(511,370,o),
(463,451,o),
(345,451,cs),
(287,451,o),
(240,425,o),
(210,387,c),
(210,441,l),
(60,441,l),
(60,0,l)
);
}
);
width = 561;
},
{
anchors = (
{
name = bottom;
pos = (294,5);
},
{
name = top;
pos = (323,453);
}
);
hints = (
{
horizontal = 1;
origin = (0,19);
target = up;
type = BottomGhost;
},
{
horizontal = 1;
origin = (0,13);
target = down;
type = TopGhost;
},
{
horizontal = 1;
origin = (0,18);
target = (0,4);
type = Stem;
},
{
origin = (0,19);
target = (0,0);
type = Stem;
},
{
origin = (0,8);
target = (0,9);
type = Stem;
}
);
layerId = "20FD933E-5CCA-4ADC-839D-1BAE82A4B007";
shapes = (
{
closed = 1;
nodes = (
(233,0,l),
(233,232,ls),
(233,276,o),
(269,314,o),
(295,314,cs),
(337,314,o),
(357,294,o),
(357,242,cs),
(357,0,l),
(533,0,l),
(533,242,ls),
(533,365,o),
(489,452,o),
(366,452,cs),
(310,452,o),
(264,429,o),
(233,395,c),
(233,441,l),
(57,441,l),
(57,0,l)
);
}
);
width = 580;
}
);
note = n;
unicode = 110;
},
{
glyphname = eng;
lastChange = "2023-12-15 17:47:40 +0000";
layers = (
{
hints = (
{
horizontal = 1;
origin = (1,3);
target = (1,12);
type = Stem;
},
{
origin = (1,9);
target = (1,6);
type = Stem;
}
);
layerId = m01;
shapes = (
{
alignment = -1;
ref = n;
},
{
closed = 1;
nodes = (
(244,-233,l),
(264,-240,o),
(284,-243,o),
(304,-243,cs),
(386,-243,o),
(444,-169,o),
(444,-84,cs),
(444,193,l),
(374,193,l),
(374,-85,ls),
(374,-139,o),
(343,-175,o),
(292,-175,cs),
(284,-175,o),
(275,-173,o),
(266,-170,c)
);
}
);
width = 504;
},
{
hints = (
{
horizontal = 1;
origin = (1,3);
target = (1,12);
type = Stem;
},
{
origin = (1,9);
target = (1,6);
type = Stem;
}
);
layerId = "B86D9C3C-D3FC-40C7-BC9B-EF4509240B31";
shapes = (
{
alignment = -1;
ref = n;
},
{
closed = 1;
nodes = (
(231,-232,l),
(261,-245,o),
(292,-250,o),
(319,-250,cs),
(462,-250,o),
(511,-152,o),
(511,-43,cs),
(511,182,l),
(361,182,l),
(361,-39,ls),
(361,-76,o),
(347,-110,o),
(302,-110,cs),
(292,-110,o),
(284,-108,o),
(276,-104,c)
);
}
);
width = 571;
},
{
hints = (
{
horizontal = 1;
origin = (1,3);
target = (1,12);
type = Stem;
},
{
origin = (1,9);
target = (1,6);
type = Stem;
}
);
layerId = "20FD933E-5CCA-4ADC-839D-1BAE82A4B007";
shapes = (
{
alignment = -1;
ref = n;
},
{
closed = 1;
nodes = (
(227,-232,l),
(260,-247,o),
(295,-252,o),
(324,-252,cs),
(487,-252,o),
(533,-146,o),
(533,-29,cs),
(533,178,l),
(357,178,l),
(357,-24,ls),
(357,-55,o),
(348,-88,o),
(305,-88,cs),
(295,-88,o),
(287,-86,o),
(279,-82,c)
);
}
);
width = 593;
}
);
unicode = 331;
},
{
glyphname = o;
kernLeft = cod;
kernRight = bop;
lastChange = "2023-12-15 17:47:40 +0000";
layers = (
{
anchors = (
{
name = top;
pos = (270,453);
}
);
hints = (
{
horizontal = 1;
origin = (0,11);
target = (1,11);
type = Stem;
},
{
horizontal = 1;
origin = (0,5);
target = (1,5);
type = Stem;
},
{
origin = (0,8);
target = (1,2);
type = Stem;
},
{
origin = (1,8);
target = (0,2);
type = Stem;
}
);
layerId = m01;
shapes = (
{
closed = 1;
nodes = (
(396,-7,o),
(500,93,o),
(500,222,cs),
(500,350,o),
(398,452,o),
(270,452,cs),
(142,452,o),
(40,350,o),
(40,222,cs),
(40,93,o),
(144,-7,o),
(270,-7,cs)
);
},
{
closed = 1;
nodes = (
(182,63,o),
(110,134,o),
(110,222,cs),
(110,311,o),
(181,382,o),
(270,382,cs),
(359,382,o),
(430,311,o),
(430,222,cs),
(430,134,o),
(358,63,o),
(270,63,cs)
);
}
);
width = 540;
},
{
anchors = (
{
name = top;
pos = (302,450);
}
);
hints = (
{
horizontal = 1;
origin = (0,11);
target = (1,11);
type = Stem;
},
{
horizontal = 1;
origin = (0,5);
target = (1,5);
type = Stem;
},
{
origin = (0,8);
target = (1,2);
type = Stem;
},
{
origin = (1,8);
target = (0,2);
type = Stem;
}
);
layerId = "B86D9C3C-D3FC-40C7-BC9B-EF4509240B31";
shapes = (
{
closed = 1;
nodes = (
(447,-9,o),
(558,79,o),
(558,220,cs),
(558,358,o),
(444,450,o),
(297,450,cs),
(149,450,o),
(35,358,o),
(35,220,cs),
(35,79,o),
(146,-9,o),
(297,-9,cs)
);
},
{
closed = 1;
nodes = (
(216,106,o),
(194,165,o),
(194,221,cs),
(194,276,o),
(218,335,o),
(297,335,cs),
(375,335,o),
(399,276,o),
(399,221,cs),
(399,165,o),
(377,106,o),
(297,106,cs)
);
}
);
width = 593;
},
{
anchors = (
{
name = top;
pos = (313,449);
}
);
hints = (
{
horizontal = 1;
origin = (0,11);
target = (1,11);
type = Stem;
},
{
horizontal = 1;
origin = (0,5);
target = (1,5);
type = Stem;
},
{
origin = (0,8);
target = (1,2);
type = Stem;
},
{
origin = (1,8);
target = (0,2);
type = Stem;
}
);
layerId = "20FD933E-5CCA-4ADC-839D-1BAE82A4B007";
shapes = (
{
closed = 1;
nodes = (
(464,-10,o),
(577,74,o),
(577,219,cs),
(577,361,o),
(459,449,o),
(306,449,cs),
(151,449,o),
(33,361,o),
(33,219,cs),
(33,74,o),
(147,-10,o),
(306,-10,cs)
);
},
{
closed = 1;
nodes = (
(227,120,o),
(222,175,o),
(222,221,cs),
(222,264,o),
(230,319,o),
(306,319,cs),
(380,319,o),
(389,264,o),
(389,221,cs),
(389,175,o),
(383,120,o),
(306,120,cs)
);
}
);
width = 611;
}
);
note = o;
unicode = 111;
},
{
glyphname = odieresis;
lastChange = "2023-12-05 16:44:39 +0000";
layers = (
{
background = {
shapes = (
{
closed = 1;
nodes = (
(193,517,o),
(203,521,o),
(212,530,cs),
(221,539,o),
(225,549,o),
(225,562,cs),
(225,574,o),
(221,584,o),
(212,593,cs),
(203,602,o),
(193,606,o),
(180,606,cs),
(167,606,o),
(157,602,o),
(149,593,cs),
(140,584,o),
(136,574,o),
(136,562,cs),
(136,549,o),
(140,539,o),
(149,530,cs),
(157,521,o),
(167,517,o),
(180,517,cs)
);
},
{
closed = 1;
nodes = (
(375,517,o),
(385,521,o),
(394,530,cs),
(403,539,o),
(407,549,o),
(407,562,cs),
(407,574,o),
(403,584,o),
(394,593,cs),
(385,602,o),
(375,606,o),
(362,606,cs),
(349,606,o),
(339,602,o),
(331,593,cs),
(322,584,o),
(318,574,o),
(318,562,cs),
(318,549,o),
(322,539,o),
(331,530,cs),
(339,521,o),
(349,517,o),
(362,517,cs)
);
}
);
};
layerId = m01;
shapes = (
{
ref = o;
},
{
pos = (35,-244);
ref = dieresiscomb;
}
);
width = 540;
},
{
layerId = "B86D9C3C-D3FC-40C7-BC9B-EF4509240B31";
shapes = (
{
ref = o;
},
{
pos = (22,-265);
ref = dieresiscomb;
}
);
width = 593;
},
{
layerId = "20FD933E-5CCA-4ADC-839D-1BAE82A4B007";
shapes = (
{
alignment = -1;
ref = o;
},
{
alignment = -1;
pos = (18,-272);
ref = dieresiscomb;
}
);
width = 611;
}
);
note = odieresis;
unicode = 246;
},
{
glyphname = oslash;
lastChange = "2023-12-15 17:47:40 +0000";
layers = (
{
hints = (
{
horizontal = 1;
origin = (0,3);
target = (1,9);
type = Stem;
},
{
horizontal = 1;
origin = (0,15);
target = (2,5);
type = Stem;
},
{
origin = (0,18);
target = (2,2);
type = Stem;
},
{
origin = (1,6);
target = (0,6);
type = Stem;
}
);
layerId = m01;
shapes = (
{
closed = 1;
nodes = (
(134,40,l),
(173,11,o),
(222,-7,o),
(275,-7,cs),
(401,-7,o),
(505,93,o),
(505,222,cs),
(505,276,o),
(487,325,o),
(457,364,c),
(506,413,l),
(467,452,l),
(418,403,l),
(379,434,o),
(329,452,o),
(275,452,cs),
(147,452,o),
(45,350,o),
(45,222,cs),
(45,167,o),
(64,118,o),
(95,79,c),
(43,27,l),
(82,-12,l)
);
},
{
closed = 1;
nodes = (
(242,63,o),
(210,73,o),
(185,91,c),
(407,313,l),
(425,288,o),
(435,256,o),
(435,222,cs),
(435,134,o),
(363,63,o),
(275,63,cs)
);
},
{
closed = 1;
nodes = (
(126,155,o),
(115,187,o),
(115,222,cs),
(115,311,o),
(186,382,o),
(275,382,cs),
(310,382,o),
(342,371,o),
(368,353,c),
(145,129,l)
);
}
);
width = 550;
},
{
hints = (
{
horizontal = 1;
origin = (0,3);
target = (1,9);
type = Stem;
},
{
horizontal = 1;
origin = (0,15);
target = (2,5);
type = Stem;
},
{
origin = (0,18);
target = (2,2);
type = Stem;
},
{
origin = (1,6);
target = (0,6);
type = Stem;
}
);
layerId = "B86D9C3C-D3FC-40C7-BC9B-EF4509240B31";
shapes = (
{
closed = 1;
nodes = (
(136.55,31.52,l),
(178.31,5.27,o),
(230.22,-9,o),
(287,-9,cs),
(427,-9,o),
(538,79,o),
(538,220,cs),
(538,281.08,o),
(515.67,333.14,o),
(478.9,372.21,c),
(542,435,l),
(506.64,470.36,l),
(440.69,404.73,l),
(398.01,433.77,o),
(344.53,450,o),
(286.99,450,cs),
(148.99,450,o),
(34.99,358,o),
(34.99,220,cs),
(34.99,155.37,o),
(58.31,101.87,o),
(97.16,62.88,c),
(36.99,3,l),
(72.36,-32.36,l)
);
},
{
closed = 1;
nodes = (
(260.86,104,o),
(240.87,110.14,o),
(225.78,120.33,c),
(379.69,273.49,l),
(386.27,256.47,o),
(388.99,237.51,o),
(388.99,219,cs),
(388.99,163,o),
(366.99,104,o),
(286.99,104,cs)
);
},
{
closed = 1;
nodes = (
(186.9,177.9,o),
(183.99,198.65,o),
(183.99,219,cs),
(183.99,274,o),
(207.99,333,o),
(286.99,333,cs),
(314.02,333,o),
(334.57,325.91,o),
(349.88,314.36,c),
(194.49,159.73,l)
);
}
);
width = 573;
},
{
hints = (
{
horizontal = 1;
origin = (0,3);
target = (1,9);
type = Stem;
},
{
horizontal = 1;
origin = (0,15);
target = (2,5);
type = Stem;
},
{
horizontal = 1;
origin = (0,10);
target = down;
type = TopGhost;
},
{
horizontal = 1;
origin = (0,22);
target = up;
type = BottomGhost;
},
{
origin = (0,18);
target = (2,2);
type = Stem;
},
{
origin = (1,6);
target = (0,6);
type = Stem;
}
);
layerId = "20FD933E-5CCA-4ADC-839D-1BAE82A4B007";
shapes = (
{
closed = 1;
nodes = (
(137,29,l),
(180,3,o),
(233,-10,o),
(291,-10,cs),
(436,-10,o),
(549,74,o),
(549,219,cs),
(549,283,o),
(525,336,o),
(486,375,c),
(554,442,l),
(520,476,l),
(448,405,l),
(404,434,o),
(350,449,o),
(291,449,cs),
(150,449,o),
(32,361,o),
(32,219,cs),
(32,151,o),
(56,96,o),
(98,58,c),
(35,-5,l),
(69,-39,l)
);
},
{
closed = 1;
nodes = (
(267,118,o),
(251,123,o),
(239,130,c),
(371,260,l),
(373,246,o),
(374,231,o),
(374,218,cs),
(374,173,o),
(368,118,o),
(291,118,cs)
);
},
{
closed = 1;
nodes = (
(207,186,o),
(207,203,o),
(207,218,cs),
(207,262,o),
(215,317,o),
(291,317,cs),
(315,317,o),
(332,311,o),
(344,301,c),
(211,170,l)
);
}
);
width = 581;
}
);
note = oslash;
unicode = 248;
},
{
glyphname = otilde;
lastChange = "2023-12-15 17:47:40 +0000";
layers = (
{
background = {
shapes = (
{
closed = 1;
nodes = (
(366,506,o),
(386,513,o),
(400,526,cs),
(427,551,o),
(438,587,o),
(433,631,c),
(384,631,l),
(384,606,o),
(382,589,o),
(379,582,cs),
(376,575,o),
(372,570,o),
(366,567,cs),
(360,564,o),
(351,562,o),
(339,562,cs),
(327,562,o),
(317,566,o),
(310,575,cs),
(302,583,o),
(294,592,o),
(286,602,cs),
(277,612,o),
(267,621,o),
(255,630,cs),
(243,638,o),
(225,642,o),
(200,642,cs),
(175,642,o),
(156,636,o),
(143,623,cs),
(116,598,o),
(104,563,o),
(105,518,c),
(154,518,l),
(153,531,o),
(153,542,o),
(156,552,cs),
(161,575,o),
(175,587,o),
(197,587,cs),
(210,587,o),
(221,583,o),
(229,575,cs),
(237,566,o),
(245,557,o),
(254,547,cs),
(262,536,o),
(272,527,o),
(284,519,cs),
(296,510,o),
(315,506,o),
(341,506,cs)
);
}
);
};
layerId = m01;
shapes = (
{
ref = o;
},
{
pos = (36,-226);
ref = tildecomb;
}
);
width = 540;
},
{
layerId = "B86D9C3C-D3FC-40C7-BC9B-EF4509240B31";
shapes = (
{
ref = o;
},
{
pos = (84,-125);
ref = tildecomb;
}
);
width = 593;
},
{
layerId = "20FD933E-5CCA-4ADC-839D-1BAE82A4B007";
shapes = (
{
alignment = -1;
ref = o;
},
{
alignment = -1;
pos = (100,-91);
ref = tildecomb;
}
);
width = 611;
}
);
note = otilde;
unicode = 245;
},
{
glyphname = oe;
kernLeft = cod;
kernRight = bop;
lastChange = "2023-12-15 17:47:40 +0000";
layers = (
{
hints = (
{
horizontal = 1;
origin = (0,32);
target = (1,11);
type = Stem;
},
{
horizontal = 1;
origin = (0,15);
target = (2,6);
type = Stem;
},
{
horizontal = 1;
origin = (0,26);
target = (1,5);
type = Stem;
},
{
origin = (0,29);
target = (1,2);
type = Stem;
},
{
origin = (2,5);
target = (0,16);
type = Stem;
}
);
layerId = m01;
shapes = (
{
closed = 1;
nodes = (
(348,-7,o),
(422,33,o),
(465,100,c),
(509,30,o),
(581,-7,o),
(664,-7,cs),
(746,-7,o),
(831,41,o),
(870,129,c),
(790,129,l),
(760,88,o),
(711,63,o),
(660,63,cs),
(585,63,o),
(516,115,o),
(502,193,c),
(889,193,l),
(889,230,ls),
(889,362,o),
(777,452,o),
(653,452,cs),
(588,452,o),
(511,418,o),
(465,345,c),
(422,412,o),
(350,452,o),
(270,452,cs),
(142,452,o),
(40,350,o),
(40,222,cs),
(40,86,o),
(148,-7,o),
(276,-7,cs)
);
},
{
closed = 1;
nodes = (
(182,63,o),
(110,134,o),
(110,222,cs),
(110,311,o),
(181,382,o),
(270,382,cs),
(359,382,o),
(430,311,o),
(430,222,cs),
(430,134,o),
(358,63,o),
(270,63,cs)
);
},
{
closed = 1;
nodes = (
(520,332,o),
(585,382,o),
(660,382,cs),
(737,382,o),
(797,331,o),
(816,258,c),
(504,258,l)
);
}
);
width = 929;
},
{
hints = (
{
horizontal = 1;
origin = (0,32);
target = (1,11);
type = Stem;
},
{
horizontal = 1;
origin = (0,15);
target = (2,6);
type = Stem;
},
{
horizontal = 1;
origin = (0,26);
target = (2,2);
type = Stem;
},
{
horizontal = 1;
origin = (0,5);
target = (0,12);
type = Stem;
},
{
horizontal = 1;
origin = (0,26);
target = (1,5);
type = Stem;
},
{
origin = (0,29);
target = (1,2);
type = Stem;
},
{
origin = (1,8);
target = (0,15);
type = Stem;
},
{
origin = (2,5);
target = (0,17);
type = Stem;
},
{
origin = (1,8);
target = (2,6);
type = Stem;
}
);
layerId = "B86D9C3C-D3FC-40C7-BC9B-EF4509240B31";
shapes = (
{
closed = 1;
nodes = (
(355.51,-9,o),
(417.07,12.07,o),
(462.08,50.12,c),
(507.24,10.99,o),
(570.88,-11,o),
(646,-11,cs),
(763,-11,o),
(857,47,o),
(883,163,c),
(730,163,l),
(729,131,o),
(696,96,o),
(643,96,cs),
(584,96,o),
(548,150,o),
(548,201,c),
(890,201,l),
(891,229,l),
(891,370,o),
(780,450,o),
(646,450,cs),
(572.66,450,o),
(508.89,427.16,o),
(463.22,387.32,c),
(417.65,427.21,o),
(355.17,450,o),
(287,450,cs),
(149,450,o),
(35,358,o),
(35,220,cs),
(35,79,o),
(146,-9,o),
(287,-9,cs)
);
},
{
closed = 1;
nodes = (
(206,104,o),
(184,163,o),
(184,219,cs),
(184,274,o),
(208,333,o),
(287,333,cs),
(365,333,o),
(389,274,o),
(389,219,cs),
(389,163,o),
(367,104,o),
(287,104,cs)
);
},
{
closed = 1;
nodes = (
(550,290,o),
(555,354,o),
(649,354,cs),
(731,354,o),
(747,283,o),
(747,272,c),
(550,272,l)
);
}
);
width = 923;
},
{
hints = (
{
horizontal = 1;
origin = (0,32);
target = (1,11);
type = Stem;
},
{
horizontal = 1;
origin = (0,15);
target = (2,6);
type = Stem;
},
{
horizontal = 1;
origin = (0,26);
target = (2,2);
type = Stem;
},
{
horizontal = 1;
origin = (0,5);
target = (0,12);
type = Stem;
},
{
horizontal = 1;
origin = (0,5);
target = (0,9);
type = Stem;
},
{
horizontal = 1;
origin = (0,26);
target = (1,5);
type = Stem;
},
{
origin = (0,29);
target = (1,2);
type = Stem;
},
{
origin = (1,8);
target = (0,15);
type = Stem;
},
{
origin = (2,5);
target = (0,17);
type = Stem;
}
);
layerId = "20FD933E-5CCA-4ADC-839D-1BAE82A4B007";
shapes = (
{
closed = 1;
nodes = (
(358,-10,o),
(415,5,o),
(461,33,c),
(507,5,o),
(568,-12,o),
(640,-12,cs),
(769,-12,o),
(866,49,o),
(887,174,c),
(710,174,l),
(719,145,o),
(691,107,o),
(637,107,cs),
(584,107,o),
(559,162,o),
(563,204,c),
(890,204,l),
(892,229,ls),
(904,373,o),
(781,449,o),
(644,449,cs),
(568,449,o),
(508,430,o),
(463,401,c),
(416,432,o),
(357,449,o),
(293,449,cs),
(151,449,o),
(33,361,o),
(33,219,cs),
(33,77,o),
(145,-10,o),
(291,-10,cs)
);
},
{
closed = 1;
nodes = (
(214,118,o),
(209,173,o),
(209,218,cs),
(209,262,o),
(217,317,o),
(293,317,cs),
(367,317,o),
(375,262,o),
(375,218,cs),
(375,173,o),
(370,118,o),
(293,118,cs)
);
},
{
closed = 1;
nodes = (
(564,295,o),
(575,345,o),
(645,345,cs),
(711,345,o),
(724,291,o),
(724,277,c),
(565,277,l)
);
}
);
width = 921;
}
);
note = oe;
unicode = 339;
},
{
glyphname = p;
kernRight = bop;
lastChange = "2023-12-15 17:47:40 +0000";
layers = (
{
hints = (
{
horizontal = 1;
origin = (0,4);
target = (1,11);
type = Stem;
},
{
horizontal = 1;
origin = (0,10);
target = (1,5);
type = Stem;
},
{
horizontal = 1;
origin = (0,15);
target = down;
type = TopGhost;
},
{
origin = (0,16);
target = (0,0);
type = Stem;
},
{
origin = (1,8);
target = (0,7);
type = Stem;
}
);
layerId = m01;
shapes = (
{
closed = 1;
nodes = (
(140,-250,l),
(140,75,l),
(179,24,o),
(234,-10,o),
(306,-10,cs),
(430,-10,o),
(520,99,o),
(520,220,cs),
(520,341,o),
(430,450,o),
(306,450,cs),
(234,450,o),
(179,416,o),
(140,365,c),
(140,440,l),
(70,440,l),
(70,-250,l)
);
},
{
closed = 1;
nodes = (
(205,60,o),
(140,135,o),
(140,220,cs),
(140,305,o),
(205,380,o),
(295,380,cs),
(385,380,o),
(450,305,o),
(450,220,cs),
(450,135,o),
(385,60,o),
(295,60,cs)
);
}
);
width = 560;
},
{
hints = (
{
horizontal = 1;
origin = (0,4);
target = (1,11);
type = Stem;
},
{
horizontal = 1;
origin = (0,10);
target = (1,5);
type = Stem;
},
{
horizontal = 1;
origin = (0,15);
target = (1,5);
type = Stem;
},
{
origin = (0,16);
target = (0,0);
type = Stem;
},
{
origin = (1,8);
target = (0,7);
type = Stem;
}
);
layerId = "B86D9C3C-D3FC-40C7-BC9B-EF4509240B31";
shapes = (
{
closed = 1;
nodes = (
(210,-250,l),
(210,53,l),
(240,8,o),
(304,-10,o),
(361,-10,cs),
(486,-10,o),
(580,98,o),
(580,220,cs),
(580,342,o),
(486,451,o),
(361,451,cs),
(304,451,o),
(249,435,o),
(210,387,c),
(210,441,l),
(60,441,l),
(60,-250,l)
);
},
{
closed = 1;
nodes = (
(255,110,o),
(210,162,o),
(210,220,cs),
(210,278,o),
(255,330,o),
(315,330,cs),
(375,330,o),
(420,278,o),
(420,220,cs),
(420,162,o),
(375,110,o),
(315,110,cs)
);
}
);
width = 615;
},
{
hints = (
{
horizontal = 1;
origin = (0,4);
target = (1,11);
type = Stem;
},
{
horizontal = 1;
origin = (0,15);
target = (1,5);
type = Stem;
},
{
horizontal = 1;
origin = (0,10);
target = (1,5);
type = Stem;
},
{
origin = (0,16);
target = (0,0);
type = Stem;
},
{
origin = (1,8);
target = (0,7);
type = Stem;
}
);
layerId = "20FD933E-5CCA-4ADC-839D-1BAE82A4B007";
shapes = (
{
closed = 1;
nodes = (
(233,-250,l),
(233,46,l),
(260,3,o),
(327,-10,o),
(379,-10,cs),
(505,-10,o),
(600,98,o),
(600,220,cs),
(600,342,o),
(505,451,o),
(379,451,cs),
(327,451,o),
(272,441,o),
(233,394,c),
(233,441,l),
(57,441,l),
(57,-250,l)
);
},
{
closed = 1;
nodes = (
(272,127,o),
(233,171,o),
(233,220,cs),
(233,269,o),
(272,313,o),
(322,313,cs),
(372,313,o),
(410,269,o),
(410,220,cs),
(410,171,o),
(372,127,o),
(322,127,cs)
);
}
);
width = 633;
}
);
note = p;
unicode = 112;
},
{
glyphname = thorn;
lastChange = "2023-12-15 17:47:40 +0000";
layers = (
{
hints = (
{
horizontal = 1;
origin = (0,4);
target = (1,11);
type = Stem;
},
{
horizontal = 1;
origin = (0,10);
target = (1,5);
type = Stem;
},
{
origin = (0,16);
target = (0,0);
type = Stem;
},
{
origin = (1,8);
target = (0,7);
type = Stem;
}
);
layerId = m01;
shapes = (
{
closed = 1;
nodes = (
(140,-250,l),
(140,75,l),
(168,37,o),
(223,-10,o),
(306,-10,cs),
(429,-10,o),
(520,97,o),
(520,220,cs),
(520,343,o),
(429,450,o),
(306,450,cs),
(224,450,o),
(170,405,o),
(140,365,c),
(140,750,l),
(70,750,l),
(70,-250,l)
);
},
{
closed = 1;
nodes = (
(206,60,o),
(140,135,o),
(140,220,cs),
(140,305,o),
(205,380,o),
(295,380,cs),
(385,380,o),
(450,305,o),
(450,220,cs),
(450,135,o),
(385,60,o),
(295,60,cs)
);
}
);
width = 560;
},
{
hints = (
{
horizontal = 1;
origin = (0,4);
target = (1,11);
type = Stem;
},
{
horizontal = 1;
origin = (0,10);
target = (1,5);
type = Stem;
},
{
origin = (0,16);
target = (0,0);
type = Stem;
},
{
origin = (1,8);
target = (0,7);
type = Stem;
}
);
layerId = "B86D9C3C-D3FC-40C7-BC9B-EF4509240B31";
shapes = (
{
closed = 1;
nodes = (
(210,-250,l),
(210,53,l),
(240,8,o),
(304,-10,o),
(361,-10,cs),
(486,-10,o),
(580,98,o),
(580,220,cs),
(580,342,o),
(486,451,o),
(361,451,cs),
(304,451,o),
(249,435,o),
(210,387,c),
(210,750,l),
(60,750,l),
(60,-250,l)
);
},
{
closed = 1;
nodes = (
(255,110,o),
(210,162,o),
(210,220,cs),
(210,278,o),
(255,330,o),
(315,330,cs),
(375,330,o),
(420,278,o),
(420,220,cs),
(420,162,o),
(375,110,o),
(315,110,cs)
);
}
);
width = 615;
},
{
hints = (
{
horizontal = 1;
origin = (0,4);
target = (1,11);
type = Stem;
},
{
horizontal = 1;
origin = (0,10);
target = (1,5);
type = Stem;
},
{
origin = (0,16);
target = (0,0);
type = Stem;
},
{
origin = (1,8);
target = (0,7);
type = Stem;
}
);
layerId = "20FD933E-5CCA-4ADC-839D-1BAE82A4B007";
shapes = (
{
closed = 1;
nodes = (
(233,-250,l),
(233,46,l),
(264,-2,o),
(331,-10,o),
(379,-10,cs),
(505,-10,o),
(600,98,o),
(600,220,cs),
(600,342,o),
(505,451,o),
(379,451,cs),
(331,451,o),
(275,445,o),
(233,394,c),
(233,750,l),
(57,750,l),
(57,-250,l)
);
},
{
closed = 1;
nodes = (
(271,127,o),
(233,171,o),
(233,220,cs),
(233,269,o),
(272,313,o),
(322,313,cs),
(372,313,o),
(410,269,o),
(410,220,cs),
(410,171,o),
(372,127,o),
(322,127,cs)
);
}
);
width = 633;
}
);
note = thorn;
unicode = 254;
},
{
glyphname = q;
kernLeft = cod;
lastChange = "2023-12-15 17:47:40 +0000";
layers = (
{
hints = (
{
horizontal = 1;
origin = (1,15);
target = (1,6);
type = Stem;
},
{
horizontal = 1;
origin = (0,12);
target = (2,11);
type = Stem;
},
{
horizontal = 1;
origin = (0,6);
target = (2,5);
type = Stem;
},
{
horizontal = 1;
origin = (0,2);
target = down;
type = TopGhost;
},
{
origin = (0,9);
target = (2,2);
type = Stem;
},
{
origin = (1,12);
target = (1,9);
type = Stem;
}
);
layerId = m01;
shapes = (
{
closed = 1;
nodes = (
(490,-70,l),
(490,440,l),
(420,440,l),
(420,365,l),
(381,416,o),
(326,450,o),
(254,450,cs),
(130,450,o),
(40,341,o),
(40,220,cs),
(40,99,o),
(130,-10,o),
(254,-10,cs),
(326,-10,o),
(381,24,o),
(420,75,c),
(420,-70,l)
);
},
{
closed = 1;
nodes = (
(562,-253,o),
(605,-232,o),
(630,-178,c),
(581,-144,l),
(570,-160,o),
(554,-184,o),
(532,-184,cs),
(497,-184,o),
(490,-166,o),
(490,-127,cs),
(490,-64,l),
(420,-64,l),
(420,-143,ls),
(420,-208,o),
(466,-253,o),
(532,-253,cs)
);
},
{
closed = 1;
nodes = (
(175,60,o),
(110,135,o),
(110,220,cs),
(110,305,o),
(175,380,o),
(265,380,cs),
(355,380,o),
(420,305,o),
(420,220,cs),
(420,135,o),
(355,60,o),
(265,60,cs)
);
}
);
width = 555;
},
{
hints = (
{
horizontal = 1;
origin = (1,15);
target = (1,6);
type = Stem;
},
{
horizontal = 1;
origin = (0,12);
target = (2,11);
type = Stem;
},
{
horizontal = 1;
origin = (0,6);
target = (2,5);
type = Stem;
},
{
horizontal = 1;
origin = (0,2);
target = (2,5);
type = Stem;
},
{
origin = (1,12);
target = (0,0);
type = Stem;
},
{
origin = (0,9);
target = (2,2);
type = Stem;
}
);
layerId = "B86D9C3C-D3FC-40C7-BC9B-EF4509240B31";
shapes = (
{
closed = 1;
nodes = (
(555,-55,l),
(555,441,l),
(405,441,l),
(405,387,l),
(366,435,o),
(310,451,o),
(254,451,cs),
(129,451,o),
(35,342,o),
(35,220,cs),
(35,98,o),
(129,-10,o),
(254,-10,cs),
(310,-10,o),
(375,8,o),
(405,53,c),
(405,-52,l)
);
},
{
closed = 1;
nodes = (
(659,-250,o),
(715,-228,o),
(761,-176,c),
(691,-77,l),
(675,-96,o),
(645,-122,o),
(614,-122,cs),
(569,-122,o),
(555,-80,o),
(555,-39,cs),
(555,-31,l),
(405,-28,l),
(405,-73,ls),
(405,-154,o),
(476,-250,o),
(612,-250,cs)
);
},
{
closed = 1;
nodes = (
(240,110,o),
(195,162,o),
(195,220,cs),
(195,278,o),
(240,330,o),
(300,330,cs),
(360,330,o),
(405,278,o),
(405,220,cs),
(405,162,o),
(360,110,o),
(300,110,cs)
);
}
);
width = 615;
},
{
hints = (
{
horizontal = 1;
origin = (1,15);
target = (1,6);
type = Stem;
},
{
horizontal = 1;
origin = (0,12);
target = (2,11);
type = Stem;
},
{
horizontal = 1;
origin = (0,2);
target = (2,5);
type = Stem;
},
{
horizontal = 1;
origin = (0,6);
target = (2,5);
type = Stem;
},
{
origin = (1,12);
target = (0,0);
type = Stem;
},
{
origin = (0,9);
target = (2,2);
type = Stem;
}
);
layerId = "20FD933E-5CCA-4ADC-839D-1BAE82A4B007";
shapes = (
{
closed = 1;
nodes = (
(577,-50,l),
(577,441,l),
(400,441,l),
(400,394,l),
(361,441,o),
(305,451,o),
(254,451,cs),
(129,451,o),
(33,342,o),
(33,220,cs),
(33,98,o),
(129,-10,o),
(254,-10,cs),
(305,-10,o),
(373,3,o),
(400,46,c),
(400,-46,l)
);
},
{
closed = 1;
nodes = (
(691,-249,o),
(752,-227,o),
(805,-175,c),
(728,-55,l),
(710,-75,o),
(675,-101,o),
(641,-101,cs),
(593,-101,o),
(577,-51,o),
(577,-10,cs),
(577,-20,l),
(400,-16,l),
(400,-50,ls),
(400,-136,o),
(479,-249,o),
(639,-249,cs)
);
},
{
closed = 1;
nodes = (
(262,127,o),
(223,171,o),
(223,220,cs),
(223,269,o),
(262,313,o),
(312,313,cs),
(362,313,o),
(400,269,o),
(400,220,cs),
(400,171,o),
(362,127,o),
(312,127,cs)
);
}
);
width = 635;
}
);
note = q;
unicode = 113;
},
{
glyphname = r;
lastChange = "2023-12-15 17:47:40 +0000";
layers = (
{
anchors = (
{
name = bottom;
pos = (118,0);
},
{
name = top;
pos = (192,447);
}
);
hints = (
{
horizontal = 1;
origin = (0,17);
target = up;
type = BottomGhost;
},
{
horizontal = 1;
origin = (0,16);
target = down;
type = TopGhost;
},
{
horizontal = 1;
origin = (0,11);
target = (0,4);
type = Stem;
},
{
origin = (0,17);
target = (0,0);
type = Stem;
}
);
layerId = m01;
shapes = (
{
closed = 1;
nodes = (
(140,0,l),
(140,220,ls),
(140,293,o),
(179,371,o),
(244,371,cs),
(263,371,o),
(280,364,o),
(296,349,c),
(296,440,l),
(282,446,o),
(267,449,o),
(252,449,cs),
(203,449,o),
(166,427,o),
(140,354,c),
(140,440,l),
(70,440,l),
(70,0,l)
);
}
);
width = 326;
},
{
anchors = (
{
name = bottom;
pos = (169,0);
},
{
name = top;
pos = (245,446);
}
);
hints = (
{
horizontal = 1;
origin = (0,17);
target = up;
type = BottomGhost;
},
{
horizontal = 1;
origin = (0,16);
target = down;
type = TopGhost;
},
{
horizontal = 1;
origin = (0,11);
target = (0,4);
type = Stem;
},
{
origin = (0,17);
target = (0,0);
type = Stem;
}
);
layerId = "B86D9C3C-D3FC-40C7-BC9B-EF4509240B31";
shapes = (
{
closed = 1;
nodes = (
(210,0,l),
(210,220,ls),
(210,273,o),
(263,330,o),
(319,330,cs),
(342,330,o),
(366,323,o),
(381,305,c),
(381,441,l),
(369,447,o),
(349,451,o),
(336,451,cs),
(281,451,o),
(233,420,o),
(210,387,c),
(210,441,l),
(60,441,l),
(60,0,l)
);
}
);
width = 406;
},
{
anchors = (
{
name = bottom;
pos = (186,0);
},
{
name = top;
pos = (263,446);
}
);
hints = (
{
horizontal = 1;
origin = (0,17);
target = up;
type = BottomGhost;
},
{
horizontal = 1;
origin = (0,11);
target = down;
type = TopGhost;
},
{
horizontal = 1;
origin = (0,16);
target = (0,4);
type = Stem;
},
{
horizontal = 1;
origin = (0,16);
target = down;
type = TopGhost;
},
{
origin = (0,17);
target = (0,0);
type = Stem;
}
);
layerId = "20FD933E-5CCA-4ADC-839D-1BAE82A4B007";
shapes = (
{
closed = 1;
nodes = (
(233,0,l),
(233,220,ls),
(233,266,o),
(298,316,o),
(351,316,cs),
(375,316,o),
(401,309,o),
(416,290,c),
(416,441,l),
(405,447,o),
(383,452,o),
(371,452,cs),
(314,452,o),
(255,418,o),
(233,398,c),
(233,441,l),
(57,441,l),
(57,0,l)
);
}
);
width = 439;
}
);
note = r;
unicode = 114;
},
{
glyphname = s;
lastChange = "2023-12-18 16:03:29 +0000";
layers = (
{
anchors = (
{
name = bottom;
pos = (203,-7);
},
{
name = top;
pos = (196,445);
}
);
hints = (
{
horizontal = 1;
origin = (0,43);
target = (0,36);
type = Stem;
},
{
horizontal = 1;
origin = (0,21);
target = (0,14);
type = Stem;
},
{
origin = (0,24);
target = (0,11);
type = Stem;
},
{
origin = (0,33);
target = (0,2);
type = Stem;
}
);
layerId = m01;
shapes = (
{
closed = 1;
nodes = (
(298,-13,o),
(377,28,o),
(376.83,125.81,cs),
(377,173,o),
(354,208,o),
(309,229,cs),
(271,247,o),
(206,261,o),
(183,267,cs),
(151,277,o),
(115,291,o),
(114.82,333.71,cs),
(115,376,o),
(155,392,o),
(194.95,392,cs),
(242,392,o),
(271,377,o),
(284.57,331,c),
(359.6,331,l),
(340,422,o),
(280,450,o),
(196.93,450,cs),
(115,450,o),
(41,407,o),
(40.84,316.95,cs),
(41,271,o),
(67,240,o),
(108.75,220.27,cs),
(146,203,o),
(204,191,o),
(234,181,cs),
(280,166,o),
(303,145,o),
(302.83,116.85,cs),
(302.83,68.95,o),
(270.8,45,o),
(206.74,45,cs),
(155,45,o),
(116,64,o),
(101.05,123,c),
(27,123,l),
(42.18,32.33,o),
(100.78,-13,o),
(202.81,-13,cs)
);
}
);
width = 402;
},
{
anchors = (
{
name = bottom;
pos = (257,-5);
},
{
name = top;
pos = (254,444);
}
);
hints = (
{
horizontal = 1;
origin = (0,43);
target = (0,36);
type = Stem;
},
{
horizontal = 1;
origin = (0,21);
target = (0,17);
type = Stem;
},
{
horizontal = 1;
origin = (0,21);
target = (0,14);
type = Stem;
},
{
origin = (0,40);
target = (0,39);
type = Stem;
},
{
origin = (0,33);
target = (0,2);
type = Stem;
},
{
origin = (0,24);
target = (0,11);
type = Stem;
}
);
layerId = "B86D9C3C-D3FC-40C7-BC9B-EF4509240B31";
shapes = (
{
closed = 1;
nodes = (
(386,-10,o),
(475,28,o),
(475,132,cs),
(475,196,o),
(441,231,o),
(396,251,cs),
(355,270,o),
(306,276,o),
(265,283,cs),
(222,289,o),
(190,296,o),
(190,317,cs),
(190,336,o),
(221,351,o),
(250,351,cs),
(279,351,o),
(316,342,o),
(321,307,c),
(468,307,l),
(455,408,o),
(370,451,o),
(254,451,cs),
(108,451,o),
(39,401,o),
(39,311,cs),
(39,272,o),
(56,247,o),
(82,230,cs),
(128,199,o),
(203,194,o),
(257,182,cs),
(296,173,o),
(324,160,o),
(324,131,cs),
(324,107,o),
(295,94,o),
(261,94,cs),
(228,94,o),
(169,98,o),
(169,164,c),
(20,164,l),
(28,39,o),
(127,-10,o),
(258,-10,cs)
);
}
);
width = 505;
},
{
anchors = (
{
name = bottom;
pos = (275,-4);
},
{
name = top;
pos = (273,444);
}
);
hints = (
{
horizontal = 1;
origin = (0,43);
target = (0,36);
type = Stem;
},
{
horizontal = 1;
origin = (0,21);
target = (0,17);
type = Stem;
},
{
horizontal = 1;
origin = (0,21);
target = (0,14);
type = Stem;
},
{
origin = (0,24);
target = (0,11);
type = Stem;
},
{
origin = (0,33);
target = (0,2);
type = Stem;
}
);
layerId = "20FD933E-5CCA-4ADC-839D-1BAE82A4B007";
shapes = (
{
closed = 1;
nodes = (
(415,-9,o),
(508,28,o),
(508,134,cs),
(508,204,o),
(470,239,o),
(425,258,cs),
(383,278,o),
(339,281,o),
(292,288,cs),
(246,293,o),
(215,300,o),
(215,313,cs),
(215,328,o),
(243,342,o),
(268,342,cs),
(291,342,o),
(331,330,o),
(333,299,c),
(504,299,l),
(493,403,o),
(400,451,o),
(273,451,cs),
(106,451,o),
(38,399,o),
(38,309,cs),
(38,272,o),
(52,249,o),
(73,233,cs),
(122,198,o),
(203,195,o),
(265,182,cs),
(301,175,o),
(331,165,o),
(331,136,cs),
(331,117,o),
(303,105,o),
(279,105,cs),
(252,105,o),
(187,109,o),
(192,178,c),
(18,178,l),
(23,41,o),
(136,-9,o),
(276,-9,cs)
);
}
);
width = 539;
}
);
note = s;
unicode = 115;
},
{
glyphname = germandbls;
lastChange = "2023-12-15 17:47:40 +0000";
layers = (
{
hints = (
{
horizontal = 1;
origin = (0,38);
target = (0,20);
type = Stem;
},
{
horizontal = 1;
origin = (0,12);
target = (0,11);
type = Stem;
},
{
horizontal = 1;
origin = (0,4);
target = (0,34);
type = Stem;
},
{
origin = (0,38);
target = (0,0);
type = Stem;
},
{
origin = (0,16);
target = (0,25);
type = Stem;
},
{
origin = (0,7);
target = (0,31);
type = Stem;
}
);
layerId = m01;
shapes = (
{
closed = 1;
nodes = (
(142,0,l),
(142,416,ls),
(142,541,o),
(157,617,o),
(271,617,cs),
(336,617,o),
(385,571,o),
(385,512,cs),
(385,451,o),
(335,406,o),
(271,406,cs),
(261,406,l),
(261,344,l),
(295,344,ls),
(371,344,o),
(440,291,o),
(440,212,cs),
(440,131,o),
(371,67,o),
(295,67,cs),
(226,67,l),
(229,0,l),
(295,0,ls),
(411,0,o),
(511,89,o),
(511,205,cs),
(511,298,o),
(446,357,o),
(369,386,c),
(418,411,o),
(459,456,o),
(459,521,cs),
(459,625,o),
(369,685,o),
(271,685,cs),
(117,685,o),
(70,595,o),
(70,441,cs),
(70,0,l)
);
}
);
width = 551;
},
{
hints = (
{
horizontal = 1;
origin = (0,38);
target = (0,20);
type = Stem;
},
{
horizontal = 1;
origin = (0,12);
target = (0,11);
type = Stem;
},
{
horizontal = 1;
origin = (0,4);
target = (0,34);
type = Stem;
},
{
origin = (0,38);
target = (0,0);
type = Stem;
},
{
origin = (0,7);
target = (0,31);
type = Stem;
},
{
origin = (0,16);
target = (0,25);
type = Stem;
}
);
layerId = "B86D9C3C-D3FC-40C7-BC9B-EF4509240B31";
shapes = (
{
closed = 1;
nodes = (
(210,0,l),
(210,500,ls),
(210,522,o),
(226.3,562,o),
(270,562,cs),
(313,562,o),
(341,527,o),
(341,483,cs),
(341,440,o),
(296.24,404,o),
(262,404,cs),
(246,404,l),
(246,281,l),
(305,281,ls),
(350,281,o),
(388,243,o),
(388,199,cs),
(388,154,o),
(339,117,o),
(305,117,cs),
(245,117,l),
(245,0,l),
(335,0,ls),
(456.5,0,o),
(541,78,o),
(541,195,cs),
(541,287,o),
(479,348,o),
(403,366,c),
(454,389,o),
(484,441,o),
(484,510,cs),
(484,603,o),
(400,680,o),
(284,680,cs),
(120,680,o),
(60,603,o),
(60,464,cs),
(60,0,l)
);
}
);
width = 551;
},
{
hints = (
{
horizontal = 1;
origin = (0,38);
target = (0,20);
type = Stem;
},
{
horizontal = 1;
origin = (0,12);
target = (0,11);
type = Stem;
},
{
horizontal = 1;
place = (525,153);
type = Stem;
},
{
horizontal = 1;
origin = (0,4);
target = (0,34);
type = Stem;
},
{
origin = (0,38);
target = (0,0);
type = Stem;
},
{
origin = (0,7);
target = (0,31);
type = Stem;
},
{
origin = (0,12);
target = (0,25);
type = Stem;
},
{
origin = (0,16);
target = (0,25);
type = Stem;
},
{
place = (250.5,300.5);
type = Stem;
}
);
layerId = "20FD933E-5CCA-4ADC-839D-1BAE82A4B007";
shapes = (
{
closed = 1;
nodes = (
(233,0,l),
(233,528,ls),
(233,516,o),
(249,544,o),
(270,544,cs),
(305,544,o),
(326,512,o),
(326,473,cs),
(326,436,o),
(283,403,o),
(259,403,cs),
(241,403,l),
(241,260,l),
(308,260,ls),
(343,260,o),
(371,227,o),
(371,195,cs),
(371,162,o),
(328,134,o),
(308,134,cs),
(251,134,l),
(250,0,l),
(348,0,ls),
(472,0,o),
(551,74,o),
(551,192,cs),
(551,283,o),
(490,345,o),
(414,359,c),
(466,382,o),
(492,436,o),
(492,506,cs),
(492,596,o),
(410,678,o),
(288,678,cs),
(121,678,o),
(57,606,o),
(57,472,cs),
(57,0,l)
);
}
);
width = 551;
}
);
note = germandbls;
unicode = 223;
},
{
glyphname = t;
lastChange = "2023-12-15 17:47:40 +0000";
layers = (
{
hints = (
{
horizontal = 1;
origin = (0,11);
target = up;
type = BottomGhost;
},
{
horizontal = 1;
origin = (0,8);
target = (0,9);
type = Stem;
},
{
origin = (0,11);
target = (0,0);
type = Stem;
},
{
origin = (0,11);
target = (0,2);
type = Stem;
},
{
origin = (0,9);
target = (0,0);
type = Stem;
}
);
layerId = m01;
shapes = (
{
closed = 1;
nodes = (
(205,0,l),
(205,375,l),
(314,375,l),
(314,440,l),
(205,440,l),
(205,611,l),
(135,611,l),
(135,440,l),
(25,440,l),
(25,375,l),
(135,375,l),
(135,0,l)
);
}
);
width = 339;
},
{
hints = (
{
horizontal = 1;
origin = (0,11);
target = up;
type = BottomGhost;
},
{
horizontal = 1;
origin = (0,8);
target = (0,9);
type = Stem;
},
{
origin = (0,11);
target = (0,0);
type = Stem;
}
);
layerId = "B86D9C3C-D3FC-40C7-BC9B-EF4509240B31";
shapes = (
{
closed = 1;
nodes = (
(274,0,l),
(274,325,l),
(374,325,l),
(374,441,l),
(274,441,l),
(274,609,l),
(125,609,l),
(125,441,l),
(25,441,l),
(25,325,l),
(125,325,l),
(125,0,l)
);
}
);
width = 399;
},
{
hints = (
{
horizontal = 1;
origin = (0,11);
target = up;
type = BottomGhost;
},
{
horizontal = 1;
origin = (0,8);
target = (0,9);
type = Stem;
},
{
origin = (0,11);
target = (0,0);
type = Stem;
}
);
layerId = "20FD933E-5CCA-4ADC-839D-1BAE82A4B007";
shapes = (
{
closed = 1;
nodes = (
(297,0,l),
(297,308,l),
(394,308,l),
(394,441,l),
(297,441,l),
(297,608,l),
(122,608,l),
(122,441,l),
(25,441,l),
(25,308,l),
(122,308,l),
(122,0,l)
);
}
);
width = 419;
}
);
note = t;
unicode = 116;
},
{
color = 8;
glyphname = tz;
layers = (
{
layerId = m01;
shapes = (
{
closed = 1;
nodes = (
(220,0,l),
(220,611,l),
(150,611,l),
(150,1,l)
);
},
{
closed = 1;
nodes = (
(524,376,l),
(367,164,l),
(474,164,ls),
(560,164,o),
(616,120,o),
(616,40,cs),
(616,-43,o),
(557,-96,o),
(473,-96,cs),
(453,-96,o),
(430,-90,o),
(410,-79,c),
(369,-136,l),
(401,-153,o),
(438,-161,o),
(476,-161,cs),
(587,-161,o),
(687,-87,o),
(687,39,cs),
(687,154,o),
(606,223,o),
(499,229,c),
(656,440,l),
(30,440,l),
(30,376,l)
);
}
);
width = 737;
},
{
layerId = "B86D9C3C-D3FC-40C7-BC9B-EF4509240B31";
shapes = (
{
closed = 1;
nodes = (
(284,0,l),
(284,609,l),
(135,609,l),
(135,0,l)
);
},
{
closed = 1;
nodes = (
(490,325,l),
(353,113,l),
(504,113,ls),
(571,113,o),
(611,81,o),
(611,14,cs),
(611,-56,o),
(568,-97,o),
(503,-97,cs),
(484,-97,o),
(466,-91,o),
(429,-66,c),
(357,-166,l),
(389,-195,o),
(450,-212,o),
(506,-212,cs),
(635,-212,o),
(752,-127,o),
(752,13,cs),
(752,123,o),
(679,203,o),
(591,221,c),
(734,439,l),
(35,439,l),
(35,325,l)
);
}
);
width = 787;
},
{
layerId = "20FD933E-5CCA-4ADC-839D-1BAE82A4B007";
shapes = (
{
closed = 1;
nodes = (
(292,0,l),
(292,608,l),
(117,608,l),
(117,0,l)
);
},
{
closed = 1;
nodes = (
(499,309,l),
(362,97,l),
(537,97,ls),
(593,97,o),
(626,70,o),
(626,7,cs),
(626,-56,o),
(593,-95,o),
(536,-95,cs),
(520,-95,o),
(507,-90,o),
(457,-55,c),
(372,-173,l),
(397,-204,o),
(472,-228,o),
(539,-228,cs),
(678,-228,o),
(803,-138,o),
(803,6,cs),
(803,112,o),
(735,192,o),
(645,218,c),
(791,441,l),
(20,441,l),
(20,309,l)
);
}
);
width = 833;
}
);
unicode = 42793;
},
{
glyphname = u;
lastChange = "2023-12-15 17:47:40 +0000";
layers = (
{
anchors = (
{
name = ogonek;
pos = (425,2);
},
{
name = top;
pos = (256,435);
}
);
hints = (
{
horizontal = 1;
origin = (0,19);
target = (0,10);
type = Stem;
},
{
horizontal = 1;
origin = (0,15);
target = down;
type = TopGhost;
},
{
horizontal = 1;
origin = (0,3);
target = up;
type = BottomGhost;
},
{
origin = (0,16);
target = (0,13);
type = Stem;
},
{
origin = (0,3);
target = (0,4);
type = Stem;
}
);
layerId = m01;
shapes = (
{
closed = 1;
nodes = (
(292,-9,o),
(341,19,o),
(374,75,c),
(374,0,l),
(444,0,l),
(444,440,l),
(374,440,l),
(374,256,ls),
(374,147,o),
(341,61,o),
(224,61,cs),
(160,61,o),
(140,113,o),
(140,165,cs),
(140,440,l),
(70,440,l),
(70,165,ls),
(70,68,o),
(123,-9,o),
(227,-9,cs)
);
}
);
width = 504;
},
{
anchors = (
{
name = ogonek;
pos = (457,2);
},
{
name = top;
pos = (285,441);
}
);
hints = (
{
horizontal = 1;
origin = (0,19);
target = (0,10);
type = Stem;
},
{
horizontal = 1;
origin = (0,15);
target = down;
type = TopGhost;
},
{
horizontal = 1;
origin = (0,3);
target = (0,10);
type = Stem;
},
{
origin = (0,16);
target = (0,13);
type = Stem;
},
{
origin = (0,3);
target = (0,4);
type = Stem;
}
);
layerId = "B86D9C3C-D3FC-40C7-BC9B-EF4509240B31";
shapes = (
{
closed = 1;
nodes = (
(284,-10,o),
(331,16,o),
(361,54,c),
(361,0,l),
(511,0,l),
(511,441,l),
(361,441,l),
(361,220,ls),
(361,161,o),
(324,110,o),
(277,110,cs),
(230,110,o),
(210,139,o),
(210,190,cs),
(210,441,l),
(60,441,l),
(60,190,ls),
(60,71,o),
(108,-10,o),
(226,-10,cs)
);
}
);
width = 561;
},
{
anchors = (
{
name = ogonek;
pos = (468,2);
},
{
name = top;
pos = (295,443);
}
);
hints = (
{
horizontal = 1;
origin = (0,19);
target = up;
type = BottomGhost;
},
{
horizontal = 1;
origin = (0,15);
target = down;
type = TopGhost;
},
{
horizontal = 1;
origin = (0,3);
target = (0,10);
type = Stem;
},
{
origin = (0,16);
target = (0,13);
type = Stem;
},
{
origin = (0,3);
target = (0,4);
type = Stem;
}
);
layerId = "20FD933E-5CCA-4ADC-839D-1BAE82A4B007";
shapes = (
{
closed = 1;
nodes = (
(281,-10,o),
(328,15,o),
(357,47,c),
(357,0,l),
(533,0,l),
(533,441,l),
(357,441,l),
(357,208,ls),
(357,166,o),
(318,126,o),
(295,126,cs),
(253,126,o),
(233,148,o),
(233,198,cs),
(233,441,l),
(57,441,l),
(57,198,ls),
(57,72,o),
(103,-10,o),
(226,-10,cs)
);
}
);
width = 580;
}
);
note = u;
unicode = 117;
},
{
glyphname = v;
kernLeft = vw;
kernRight = vw;
lastChange = "2023-12-15 17:47:40 +0000";
layers = (
{
hints = (
{
horizontal = 1;
origin = (0,6);
target = up;
type = BottomGhost;
},
{
horizontal = 1;
origin = (0,5);
target = down;
type = TopGhost;
}
);
layerId = m01;
shapes = (
{
closed = 1;
nodes = (
(230,-1,l),
(415,440,l),
(339,440,l),
(213,113,l),
(86,440,l),
(10,440,l),
(196,-1,l)
);
}
);
width = 425;
},
{
hints = (
{
horizontal = 1;
origin = (0,6);
target = up;
type = BottomGhost;
},
{
horizontal = 1;
origin = (0,5);
target = down;
type = TopGhost;
},
{
horizontal = 1;
origin = (0,6);
target = (0,3);
type = Stem;
}
);
layerId = "B86D9C3C-D3FC-40C7-BC9B-EF4509240B31";
shapes = (
{
closed = 1;
nodes = (
(355,0,l),
(523,441,l),
(371,441,l),
(266,126,l),
(161,441,l),
(10,441,l),
(178,0,l)
);
}
);
width = 533;
},
{
hints = (
{
horizontal = 1;
origin = (0,6);
target = up;
type = BottomGhost;
},
{
horizontal = 1;
origin = (0,5);
target = down;
type = TopGhost;
},
{
horizontal = 1;
origin = (0,6);
target = (0,3);
type = Stem;
}
);
layerId = "20FD933E-5CCA-4ADC-839D-1BAE82A4B007";
shapes = (
{
closed = 1;
nodes = (
(397,0,l),
(559,441,l),
(382,441,l),
(284,130,l),
(186,441,l),
(10,441,l),
(172,0,l)
);
}
);
width = 569;
}
);
note = v;
unicode = 118;
},
{
glyphname = w;
kernLeft = vw;
kernRight = vw;
lastChange = "2023-12-15 17:47:40 +0000";
layers = (
{
anchors = (
{
name = bottom;
pos = (363,8);
},
{
name = top;
pos = (361,438);
}
);
hints = (
{
horizontal = 1;
origin = (0,12);
target = up;
type = BottomGhost;
},
{
horizontal = 1;
origin = (0,11);
target = down;
type = TopGhost;
},
{
horizontal = 1;
origin = (0,12);
target = (0,9);
type = Stem;
}
);
layerId = m01;
shapes = (
{
closed = 1;
nodes = (
(244,1,l),
(362,299,l),
(482,1,l),
(529,1,l),
(714,440,l),
(636,440,l),
(504,101,l),
(380,418,l),
(344,418,l),
(220,101,l),
(88,440,l),
(10,440,l),
(197,1,l)
);
}
);
width = 724;
},
{
anchors = (
{
name = bottom;
pos = (418,6);
},
{
name = top;
pos = (418,440);
}
);
hints = (
{
horizontal = 1;
origin = (0,12);
target = up;
type = BottomGhost;
},
{
horizontal = 1;
origin = (0,11);
target = down;
type = TopGhost;
},
{
horizontal = 1;
origin = (0,12);
target = (0,9);
type = Stem;
}
);
layerId = "B86D9C3C-D3FC-40C7-BC9B-EF4509240B31";
shapes = (
{
closed = 1;
nodes = (
(334,0,l),
(419,275,l),
(505,0,l),
(676,0,l),
(831,441,l),
(666,441,l),
(575,153,l),
(477,441,l),
(361,441,l),
(264,153,l),
(174,441,l),
(10,441,l),
(162,0,l)
);
}
);
width = 841;
},
{
anchors = (
{
name = bottom;
pos = (436,5);
},
{
name = top;
pos = (437,441);
}
);
hints = (
{
horizontal = 1;
origin = (0,12);
target = up;
type = BottomGhost;
},
{
horizontal = 1;
origin = (0,8);
target = down;
type = TopGhost;
},
{
horizontal = 1;
origin = (0,12);
target = (0,9);
type = Stem;
},
{
horizontal = 1;
origin = (0,11);
target = down;
type = TopGhost;
}
);
layerId = "20FD933E-5CCA-4ADC-839D-1BAE82A4B007";
shapes = (
{
closed = 1;
nodes = (
(364,0,l),
(438,267,l),
(513,0,l),
(725,0,l),
(870,441,l),
(676,441,l),
(599,170,l),
(509,449,l),
(367,449,l),
(279,170,l),
(203,441,l),
(10,441,l),
(150,0,l)
);
}
);
width = 880;
}
);
note = w;
unicode = 119;
},
{
glyphname = x;
lastChange = "2023-12-15 17:47:40 +0000";
layers = (
{
hints = (
{
horizontal = 1;
origin = (0,11);
target = up;
type = BottomGhost;
},
{
horizontal = 1;
origin = (0,9);
target = down;
type = TopGhost;
}
);
layerId = m01;
shapes = (
{
closed = 1;
nodes = (
(114,0,l),
(224,171,l),
(334,0,l),
(423,0,l),
(269,220,l),
(423,440,l),
(334,440,l),
(224,271,l),
(114,440,l),
(25,440,l),
(179,221,l),
(25,0,l)
);
}
);
width = 448;
},
{
hints = (
{
horizontal = 1;
origin = (0,11);
target = up;
type = BottomGhost;
},
{
horizontal = 1;
origin = (0,9);
target = down;
type = TopGhost;
}
);
layerId = "B86D9C3C-D3FC-40C7-BC9B-EF4509240B31";
shapes = (
{
closed = 1;
nodes = (
(183,0,l),
(275,136,l),
(367,0,l),
(550,0,l),
(371,222,l),
(536,440,l),
(362,440,l),
(275,305,l),
(188,440,l),
(14,440,l),
(179,222,l),
(0,0,l)
);
}
);
width = 550;
},
{
hints = (
{
horizontal = 1;
origin = (0,11);
target = up;
type = BottomGhost;
},
{
horizontal = 1;
origin = (0,9);
target = down;
type = TopGhost;
}
);
layerId = "20FD933E-5CCA-4ADC-839D-1BAE82A4B007";
shapes = (
{
closed = 1;
nodes = (
(206,0,l),
(292,124,l),
(378,0,l),
(592,0,l),
(405,223,l),
(574,440,l),
(371,440,l),
(292,316,l),
(213,440,l),
(10,440,l),
(179,222,l),
(-8,0,l)
);
}
);
width = 584;
}
);
note = x;
unicode = 120;
},
{
glyphname = y;
kernLeft = vw;
kernRight = vw;
lastChange = "2023-12-15 17:47:40 +0000";
layers = (
{
anchors = (
{
name = top;
pos = (226,439);
}
);
hints = (
{
horizontal = 1;
origin = (0,5);
target = down;
type = TopGhost;
}
);
layerId = m01;
shapes = (
{
closed = 1;
nodes = (
(131,-250,l),
(435,440,l),
(357,440,l),
(231,145,l),
(90,440,l),
(10,440,l),
(194,72,l),
(46,-250,l)
);
}
);
width = 445;
},
{
anchors = (
{
name = top;
pos = (264,441);
}
);
hints = (
{
horizontal = 1;
origin = (0,5);
target = down;
type = TopGhost;
}
);
layerId = "B86D9C3C-D3FC-40C7-BC9B-EF4509240B31";
shapes = (
{
closed = 1;
nodes = (
(274,-250,l),
(538,441,l),
(386,441,l),
(281,146,l),
(166,441,l),
(15,441,l),
(205,-32,l),
(118,-250,l)
);
}
);
width = 553;
},
{
anchors = (
{
name = top;
pos = (277,442);
}
);
hints = (
{
horizontal = 1;
origin = (0,5);
target = down;
type = TopGhost;
}
);
layerId = "20FD933E-5CCA-4ADC-839D-1BAE82A4B007";
shapes = (
{
closed = 1;
nodes = (
(322,-250,l),
(572,441,l),
(396,441,l),
(298,146,l),
(191,441,l),
(17,441,l),
(209,-67,l),
(142,-250,l)
);
}
);
width = 589;
}
);
note = y;
unicode = 121;
},
{
glyphname = ydieresis;
lastChange = "2023-12-15 17:47:40 +0000";
layers = (
{
background = {
shapes = (
{
closed = 1;
nodes = (
(135.67,517,o),
(146.33,521.33,o),
(155,530,cs),
(163.67,538.67,o),
(168,549.17,o),
(168,561.5,cs),
(168,573.83,o),
(163.67,584.33,o),
(155,593,cs),
(146.33,601.67,o),
(135.67,606,o),
(123,606,cs),
(110.33,606,o),
(99.83,601.67,o),
(91.5,593,cs),
(83.17,584.33,o),
(79,573.83,o),
(79,561.5,cs),
(79,549.17,o),
(83.17,538.67,o),
(91.5,530,cs),
(99.83,521.33,o),
(110.33,517,o),
(123,517,cs)
);
},
{
closed = 1;
nodes = (
(317.67,517,o),
(328.33,521.33,o),
(337,530,cs),
(345.67,538.67,o),
(350,549.17,o),
(350,561.5,cs),
(350,573.83,o),
(345.67,584.33,o),
(337,593,cs),
(328.33,601.67,o),
(317.67,606,o),
(305,606,cs),
(292.33,606,o),
(281.83,601.67,o),
(273.5,593,cs),
(265.17,584.33,o),
(261,573.83,o),
(261,561.5,cs),
(261,549.17,o),
(265.17,538.67,o),
(273.5,530,cs),
(281.83,521.33,o),
(292.33,517,o),
(305,517,cs)
);
}
);
};
layerId = m01;
shapes = (
{
ref = y;
},
{
pos = (-9,-258);
ref = dieresiscomb;
}
);
width = 445;
},
{
layerId = "B86D9C3C-D3FC-40C7-BC9B-EF4509240B31";
shapes = (
{
ref = y;
},
{
pos = (-16,-274);
ref = dieresiscomb;
}
);
width = 553;
},
{
layerId = "20FD933E-5CCA-4ADC-839D-1BAE82A4B007";
shapes = (
{
alignment = -1;
ref = y;
},
{
alignment = -1;
pos = (-18,-279);
ref = dieresiscomb;
}
);
width = 589;
}
);
note = ydieresis;
unicode = 255;
},
{
glyphname = z;
lastChange = "2023-12-15 17:47:40 +0000";
layers = (
{
anchors = (
{
name = top;
pos = (215,440);
}
);
hints = (
{
horizontal = 1;
origin = (0,7);
target = (0,2);
type = Stem;
},
{
horizontal = 1;
origin = (0,4);
target = (0,5);
type = Stem;
}
);
layerId = m01;
shapes = (
{
closed = 1;
nodes = (
(430,0,l),
(430,65,l),
(149,65,l),
(417,440,l),
(32,440,l),
(32,375,l),
(283,375,l),
(15,0,l)
);
}
);
width = 455;
},
{
anchors = (
{
name = top;
pos = (247,440);
}
);
hints = (
{
horizontal = 1;
origin = (0,7);
target = (0,2);
type = Stem;
},
{
horizontal = 1;
origin = (0,4);
target = (0,5);
type = Stem;
}
);
layerId = "B86D9C3C-D3FC-40C7-BC9B-EF4509240B31";
shapes = (
{
closed = 1;
nodes = (
(474,0,l),
(474,119,l),
(270,119,l),
(472,441,l),
(40,441,l),
(40,327,l),
(242,327,l),
(20,0,l)
);
}
);
width = 504;
},
{
anchors = (
{
name = top;
pos = (258,440);
}
);
hints = (
{
horizontal = 1;
origin = (0,7);
target = (0,2);
type = Stem;
},
{
horizontal = 1;
origin = (0,4);
target = (0,5);
type = Stem;
},
{
origin = (0,7);
target = (0,3);
type = Stem;
}
);
layerId = "20FD933E-5CCA-4ADC-839D-1BAE82A4B007";
shapes = (
{
closed = 1;
nodes = (
(489,0,l),
(489,137,l),
(310,137,l),
(490,441,l),
(43,441,l),
(43,311,l),
(228,311,l),
(22,0,l)
);
}
);
width = 520;
}
);
note = z;
unicode = 122;
},
{
color = 8;
glyphname = Xi;
layers = (
{
layerId = m01;
shapes = (
{
closed = 1;
nodes = (
(474,615,l),
(474,680,l),
(70,680,l),
(70,615,l)
);
},
{
closed = 1;
nodes = (
(474,0,l),
(474,65,l),
(70,65,l),
(70,0,l)
);
},
{
closed = 1;
nodes = (
(434,307,l),
(434,373,l),
(100,373,l),
(100,307,l)
);
}
);
width = 544;
},
{
hints = (
{
horizontal = 1;
origin = (1,3);
target = (1,2);
type = Stem;
},
{
horizontal = 1;
place = (273,271);
type = Stem;
},
{
horizontal = 1;
origin = (0,2);
target = (0,3);
type = Stem;
},
{
origin = (1,3);
target = (1,2);
type = Stem;
}
);
layerId = "B86D9C3C-D3FC-40C7-BC9B-EF4509240B31";
shapes = (
{
closed = 1;
nodes = (
(484,544,l),
(484,680,l),
(60,680,l),
(60,544,l)
);
},
{
closed = 1;
nodes = (
(484,0,l),
(484,136,l),
(60,136,l),
(60,0,l)
);
},
{
closed = 1;
nodes = (
(444,273,l),
(444,409,l),
(90,409,l),
(90,273,l)
);
}
);
width = 534;
},
{
hints = (
{
horizontal = 1;
origin = (1,3);
target = (1,2);
type = Stem;
},
{
horizontal = 1;
origin = (1,2);
target = (0,3);
type = Stem;
},
{
horizontal = 1;
origin = (0,2);
target = (0,3);
type = Stem;
},
{
origin = (1,3);
target = (1,2);
type = Stem;
}
);
layerId = "20FD933E-5CCA-4ADC-839D-1BAE82A4B007";
shapes = (
{
closed = 1;
nodes = (
(486,520,l),
(486,680,l),
(55,680,l),
(55,520,l)
);
},
{
closed = 1;
nodes = (
(486,0,l),
(486,160,l),
(55,160,l),
(55,0,l)
);
},
{
closed = 1;
nodes = (
(446,262,l),
(446,421,l),
(85,421,l),
(85,262,l)
);
}
);
width = 527;
}
);
unicode = 926;
},
{
glyphname = zero;
lastChange = "2023-12-15 17:47:40 +0000";
layers = (
{
hints = (
{
horizontal = 1;
origin = (0,11);
target = (1,11);
type = Stem;
},
{
horizontal = 1;
origin = (0,5);
target = (1,5);
type = Stem;
},
{
origin = (0,8);
target = (1,2);
type = Stem;
},
{
origin = (1,8);
target = (0,2);
type = Stem;
}
);
layerId = m01;
shapes = (
{
closed = 1;
nodes = (
(452,-9,o),
(510,177,o),
(510,341,cs),
(510,505,o),
(452,691,o),
(280,691,cs),
(108,691,o),
(50,505,o),
(50,341,cs),
(50,177,o),
(108,-9,o),
(280,-9,cs)
);
},
{
closed = 1;
nodes = (
(139,62,o),
(120,251,o),
(120,354.79,cs),
(120,474,o),
(166,621,o),
(278,621,cs),
(391,621,o),
(440,468,o),
(440,338,cs),
(440,222,o),
(389,62,o),
(277,62,cs)
);
}
);
width = 560;
},
{
hints = (
{
horizontal = 1;
origin = (0,11);
target = (1,11);
type = Stem;
},
{
horizontal = 1;
origin = (0,5);
target = (1,5);
type = Stem;
},
{
origin = (0,8);
target = (1,2);
type = Stem;
},
{
origin = (1,8);
target = (0,2);
type = Stem;
}
);
layerId = "B86D9C3C-D3FC-40C7-BC9B-EF4509240B31";
shapes = (
{
closed = 1;
nodes = (
(504,-12,o),
(581,186,o),
(581,338,cs),
(581,471,o),
(516,690,o),
(308,690,cs),
(100,690,o),
(35,471,o),
(35,338,cs),
(35,186,o),
(112,-12,o),
(308,-12,cs)
);
},
{
closed = 1;
nodes = (
(211,124,o),
(185,245,o),
(185,339,cs),
(185,425,o),
(211,554,o),
(308,554,cs),
(407,554,o),
(431,425,o),
(431,337,cs),
(431,247,o),
(403,124,o),
(308,124,cs)
);
}
);
width = 616;
},
{
hints = (
{
horizontal = 1;
origin = (0,11);
target = (1,11);
type = Stem;
},
{
horizontal = 1;
origin = (1,5);
target = (0,5);
type = Stem;
},
{
origin = (0,8);
target = (1,2);
type = Stem;
},
{
origin = (1,8);
target = (0,2);
type = Stem;
}
);
layerId = "20FD933E-5CCA-4ADC-839D-1BAE82A4B007";
shapes = (
{
closed = 1;
nodes = (
(521,-13,o),
(605,189,o),
(605,337,cs),
(605,460,o),
(537,690,o),
(317,690,cs),
(97,690,o),
(30,460,o),
(30,337,cs),
(30,189,o),
(113,-13,o),
(317,-13,cs)
);
},
{
closed = 1;
nodes = (
(235,145,o),
(207,243,o),
(207,334,cs),
(207,409,o),
(226,532,o),
(318,532,cs),
(412,532,o),
(428,411,o),
(428,337,cs),
(428,255,o),
(408,145,o),
(318,145,cs)
);
}
);
width = 635;
}
);
note = zero;
unicode = 48;
},
{
glyphname = one;
lastChange = "2023-12-15 17:47:40 +0000";
layers = (
{
hints = (
{
horizontal = 1;
origin = (0,5);
target = up;
type = BottomGhost;
},
{
horizontal = 1;
origin = (0,1);
target = down;
type = TopGhost;
},
{
horizontal = 1;
origin = (0,3);
target = (0,2);
type = Stem;
},
{
origin = (0,5);
target = (0,0);
type = Stem;
}
);
layerId = m01;
shapes = (
{
closed = 1;
nodes = (
(218,0,l),
(218,688,l),
(50,670,l),
(50,609,l),
(148,609,l),
(148,0,l)
);
}
);
width = 287;
},
{
hints = (
{
horizontal = 1;
origin = (0,5);
target = up;
type = BottomGhost;
},
{
horizontal = 1;
origin = (0,1);
target = down;
type = TopGhost;
},
{
origin = (0,5);
target = (0,0);
type = Stem;
}
);
layerId = "B86D9C3C-D3FC-40C7-BC9B-EF4509240B31";
shapes = (
{
closed = 1;
nodes = (
(279,0,l),
(279,680,l),
(50,605,l),
(50,502,l),
(129,502,l),
(129,0,l)
);
}
);
width = 339;
},
{
hints = (
{
horizontal = 1;
origin = (0,5);
target = up;
type = BottomGhost;
},
{
origin = (0,5);
target = (0,0);
type = Stem;
}
);
layerId = "20FD933E-5CCA-4ADC-839D-1BAE82A4B007";
shapes = (
{
closed = 1;
nodes = (
(299,0,l),
(299,677,l),
(50,583,l),
(50,466,l),
(123,466,l),
(123,0,l)
);
}
);
width = 356;
}
);
note = one;
unicode = 49;
},
{
glyphname = two;
lastChange = "2023-12-15 17:47:40 +0000";
layers = (
{
hints = (
{
horizontal = 1;
origin = (0,23);
target = (0,2);
type = Stem;
},
{
horizontal = 1;
origin = (0,9);
target = (0,16);
type = Stem;
},
{
origin = (0,12);
target = (0,13);
type = Stem;
},
{
origin = (0,19);
target = (0,6);
type = Stem;
}
);
layerId = m01;
shapes = (
{
closed = 1;
nodes = (
(542,0,l),
(542,70,l),
(232,70,l),
(469,305,ls),
(513,349,o),
(535,402,o),
(535,464,cs),
(535,595,o),
(427,691,o),
(305,691,cs),
(178,691,o),
(69,590,o),
(75,454,c),
(146,454,l),
(138,537,o),
(210,619,o),
(302,619,cs),
(390,619,o),
(460,550,o),
(460,465,cs),
(460,421.67,o),
(445,385,o),
(415,355,cs),
(63,0,l)
);
}
);
width = 615;
},
{
hints = (
{
horizontal = 1;
origin = (0,23);
target = (0,2);
type = Stem;
},
{
horizontal = 1;
origin = (0,9);
target = (0,16);
type = Stem;
},
{
horizontal = 1;
origin = (0,12);
target = (0,9);
type = Stem;
},
{
origin = (0,12);
target = (0,13);
type = Stem;
},
{
origin = (0,19);
target = (0,6);
type = Stem;
}
);
layerId = "B86D9C3C-D3FC-40C7-BC9B-EF4509240B31";
shapes = (
{
closed = 1;
nodes = (
(522,0,l),
(522,136,l),
(316,136,l),
(388,226,ls),
(447,300,o),
(511,366,o),
(511,469,cs),
(511,601,o),
(422,690,o),
(290,690,cs),
(144,690,o),
(68,578,o),
(65,447,c),
(206,447,l),
(209,518,o),
(242,548,o),
(291,548,cs),
(336,548,o),
(368,518,o),
(368,469,cs),
(368,423,o),
(326,378,o),
(299,344,cs),
(30,0,l)
);
}
);
width = 572;
},
{
hints = (
{
horizontal = 1;
origin = (0,23);
target = (0,2);
type = Stem;
},
{
horizontal = 1;
origin = (0,16);
target = (0,9);
type = Stem;
},
{
origin = (0,12);
target = (0,13);
type = Stem;
},
{
origin = (0,19);
target = (0,6);
type = Stem;
}
);
layerId = "20FD933E-5CCA-4ADC-839D-1BAE82A4B007";
shapes = (
{
closed = 1;
nodes = (
(515,0,l),
(515,158,l),
(344,158,l),
(361,200,ls),
(425,284,o),
(503,354,o),
(503,471,cs),
(503,603,o),
(420,690,o),
(285,690,cs),
(133,690,o),
(68,574,o),
(62,445,c),
(226,445,l),
(233,512,o),
(253,524,o),
(287,524,cs),
(318,524,o),
(337,507,o),
(337,470,cs),
(337,423,o),
(286,376,o),
(260,340,cs),
(19,0,l)
);
}
);
width = 558;
}
);
note = two;
unicode = 50;
},
{
glyphname = three;
lastChange = "2023-12-15 17:47:40 +0000";
layers = (
{
hints = (
{
horizontal = 1;
origin = (0,40);
target = (0,33);
type = Stem;
},
{
horizontal = 1;
origin = (0,26);
target = (0,25);
type = Stem;
},
{
horizontal = 1;
origin = (0,11);
target = (0,18);
type = Stem;
},
{
origin = (0,21);
target = (0,8);
type = Stem;
},
{
origin = (0,30);
target = (0,2);
type = Stem;
}
);
layerId = m01;
shapes = (
{
closed = 1;
nodes = (
(373,-10,o),
(482,67,o),
(482,198,cs),
(482,277,o),
(446,334,o),
(386,367,c),
(436,397,o),
(465,446,o),
(465,510,cs),
(465,625,o),
(364,692,o),
(257,692,cs),
(176,692,o),
(95,658,o),
(59,569,c),
(133,551,l),
(158,601,o),
(208,625,o),
(254,625,cs),
(334,625,o),
(395,584,o),
(395,509,cs),
(395,437,o),
(338,399,o),
(257,399,cs),
(209,399,l),
(210,326,l),
(257,326,ls),
(345,326,o),
(406,282,o),
(406,199,cs),
(406,113,o),
(341,60,o),
(254,60,cs),
(204,60,o),
(150,94,o),
(123,151,c),
(50,131,l),
(89,29,o),
(170,-10,o),
(257,-10,cs)
);
}
);
width = 532;
},
{
hints = (
{
horizontal = 1;
origin = (0,40);
target = (0,33);
type = Stem;
},
{
horizontal = 1;
origin = (0,26);
target = (0,25);
type = Stem;
},
{
horizontal = 1;
origin = (0,11);
target = (0,18);
type = Stem;
},
{
origin = (0,30);
target = (0,2);
type = Stem;
},
{
origin = (0,21);
target = (0,8);
type = Stem;
}
);
layerId = "B86D9C3C-D3FC-40C7-BC9B-EF4509240B31";
shapes = (
{
closed = 1;
nodes = (
(417,-10,o),
(524,72,o),
(524,214,cs),
(524,278,o),
(498,340,o),
(432,371,c),
(470,398,o),
(494,452,o),
(494,494,cs),
(494,631,o),
(393,690,o),
(271,690,cs),
(154,690,o),
(55,618,o),
(47,486,c),
(198,486,l),
(202,533,o),
(226,558,o),
(275,558,cs),
(315,558,o),
(346,534,o),
(346,494,cs),
(346,451,o),
(327,418,o),
(281,418,cs),
(219,418,l),
(219,302,l),
(281,302,ls),
(337,302,o),
(375,274,o),
(375,214,cs),
(375,165,o),
(337,125,o),
(287,125,cs),
(233,125,o),
(197,144,o),
(186,200,c),
(35,200,l),
(42,44,o),
(157,-10,o),
(285,-10,cs)
);
}
);
width = 559;
},
{
hints = (
{
horizontal = 1;
origin = (0,40);
target = (0,33);
type = Stem;
},
{
horizontal = 1;
origin = (0,26);
target = (0,25);
type = Stem;
},
{
horizontal = 1;
origin = (0,11);
target = (0,18);
type = Stem;
},
{
origin = (0,14);
target = (0,15);
type = Stem;
},
{
origin = (0,30);
target = (0,2);
type = Stem;
},
{
origin = (0,21);
target = (0,8);
type = Stem;
},
{
origin = (0,26);
target = (0,8);
type = Stem;
}
);
layerId = "20FD933E-5CCA-4ADC-839D-1BAE82A4B007";
shapes = (
{
closed = 1;
nodes = (
(432,-10,o),
(538,74,o),
(538,219,cs),
(538,278,o),
(515,342,o),
(447,372,c),
(481,398,o),
(504,454,o),
(504,489,cs),
(504,633,o),
(403,689,o),
(276,689,cs),
(147,689,o),
(42,605,o),
(43,458,c),
(220,464,l),
(217,510,o),
(232,536,o),
(282,536,cs),
(309,536,o),
(330,517,o),
(330,489,cs),
(330,456,o),
(323,424,o),
(289,424,cs),
(222,424,l),
(222,294,l),
(289,294,ls),
(334,294,o),
(365,271,o),
(365,219,cs),
(365,182,o),
(336,147,o),
(298,147,cs),
(243,147,o),
(213,161,o),
(207,216,c),
(30,223,l),
(26,49,o),
(153,-10,o),
(294,-10,cs)
);
}
);
width = 568;
}
);
note = three;
unicode = 51;
},
{
glyphname = four;
lastChange = "2023-12-15 17:47:40 +0000";
layers = (
{
hints = (
{
horizontal = 1;
origin = (1,3);
target = up;
type = BottomGhost;
},
{
horizontal = 1;
origin = (0,6);
target = (0,2);
type = Stem;
},
{
horizontal = 1;
origin = (0,5);
target = down;
type = TopGhost;
},
{
origin = (1,3);
target = (1,0);
type = Stem;
},
{
origin = (1,3);
target = (0,0);
type = Stem;
}
);
layerId = m01;
shapes = (
{
closed = 1;
nodes = (
(515,262,l),
(515,332,l),
(100,332,l),
(131,301,l),
(130,680,l),
(60,680,l),
(60,262,l)
);
},
{
closed = 1;
nodes = (
(414,0,l),
(413,680,l),
(343,680,l),
(343,0,l)
);
}
);
width = 565;
},
{
hints = (
{
horizontal = 1;
origin = (1,3);
target = up;
type = BottomGhost;
},
{
horizontal = 1;
origin = (0,6);
target = (0,2);
type = Stem;
},
{
horizontal = 1;
origin = (0,5);
target = down;
type = TopGhost;
},
{
origin = (0,6);
target = (0,3);
type = Stem;
},
{
origin = (1,3);
target = (1,0);
type = Stem;
}
);
layerId = "B86D9C3C-D3FC-40C7-BC9B-EF4509240B31";
shapes = (
{
closed = 1;
nodes = (
(573,213,l),
(573,351,l),
(122,351,l),
(189,284,l),
(189,680,l),
(50,680,l),
(50,213,l)
);
},
{
closed = 1;
nodes = (
(467,0,l),
(467,680,l),
(318,680,l),
(318,0,l)
);
}
);
width = 613;
},
{
hints = (
{
horizontal = 1;
origin = (1,3);
target = up;
type = BottomGhost;
},
{
horizontal = 1;
origin = (0,6);
target = (0,2);
type = Stem;
},
{
horizontal = 1;
origin = (0,5);
target = down;
type = TopGhost;
},
{
origin = (1,3);
target = (1,0);
type = Stem;
}
);
layerId = "20FD933E-5CCA-4ADC-839D-1BAE82A4B007";
shapes = (
{
closed = 1;
nodes = (
(592,197,l),
(592,357,l),
(129,357,l),
(208,278,l),
(209,680,l),
(47,680,l),
(47,197,l)
);
},
{
closed = 1;
nodes = (
(485,0,l),
(485,680,l),
(310,680,l),
(310,0,l)
);
}
);
width = 629;
}
);
note = four;
unicode = 52;
},
{
glyphname = five;
lastChange = "2023-12-15 17:47:40 +0000";
layers = (
{
hints = (
{
horizontal = 1;
origin = (0,30);
target = (0,23);
type = Stem;
},
{
horizontal = 1;
origin = (0,5);
target = (0,17);
type = Stem;
},
{
horizontal = 1;
origin = (0,12);
target = (0,9);
type = Stem;
},
{
origin = (0,20);
target = (0,2);
type = Stem;
}
);
layerId = m01;
shapes = (
{
closed = 1;
nodes = (
(396,-12,o),
(497,92,o),
(497,220,cs),
(497,359,o),
(381,444,o),
(274.1,444,cs),
(244.83,444,o),
(213.13,438.67,o),
(179,428,c),
(225,610,l),
(471,610,l),
(471,680,l),
(172,680,l),
(94,375,l),
(170,341,l),
(198.67,362.33,o),
(233.19,373,o),
(273.57,373,cs),
(357,373,o),
(425,298,o),
(425,215,cs),
(425,138,o),
(367,59,o),
(257.5,59,cs),
(212,59,o),
(157,88,o),
(128,137,c),
(67,101,l),
(108,31,o),
(184,-12,o),
(266,-12,cs)
);
}
);
width = 550;
},
{
hints = (
{
horizontal = 1;
origin = (0,30);
target = (0,23);
type = Stem;
},
{
horizontal = 1;
origin = (0,17);
target = (0,5);
type = Stem;
},
{
horizontal = 1;
origin = (0,12);
target = (0,9);
type = Stem;
},
{
origin = (0,20);
target = (0,2);
type = Stem;
}
);
layerId = "B86D9C3C-D3FC-40C7-BC9B-EF4509240B31";
shapes = (
{
closed = 1;
nodes = (
(390,-10,o),
(516,78,o),
(516,229,cs),
(516,358,o),
(444,455,o),
(292,456,cs),
(278,456,o),
(265,455,o),
(250,454,c),
(274,546,l),
(489,546,l),
(489,680,l),
(169,680,l),
(85,377,l),
(161,320,l),
(210,333,o),
(229,336,o),
(245,336,cs),
(309,336,o),
(367,305,o),
(367,230,cs),
(367,158,o),
(307,129,o),
(245,129,cs),
(215,129,o),
(175,144,o),
(149,174,c),
(45,85,l),
(96,28,o),
(171,-10,o),
(243,-10,cs)
);
}
);
width = 556;
},
{
hints = (
{
horizontal = 1;
origin = (0,30);
target = (0,23);
type = Stem;
},
{
horizontal = 1;
origin = (0,17);
target = (0,5);
type = Stem;
},
{
horizontal = 1;
origin = (0,12);
target = (0,9);
type = Stem;
},
{
origin = (0,20);
target = (0,2);
type = Stem;
}
);
layerId = "20FD933E-5CCA-4ADC-839D-1BAE82A4B007";
shapes = (
{
closed = 1;
nodes = (
(388,-9,o),
(522,73,o),
(522,232,cs),
(522,358,o),
(465,459,o),
(298,460,cs),
(289,460,o),
(282,460,o),
(274,463,c),
(290,525,l),
(495,525,l),
(495,680,l),
(168,680,l),
(82,378,l),
(158,313,l),
(214,323,o),
(228,324,o),
(235,324,cs),
(293,324,o),
(348,307,o),
(348,235,cs),
(348,165,o),
(287,152,o),
(241,152,cs),
(216,152,o),
(181,163,o),
(156,186,c),
(38,80,l),
(92,27,o),
(167,-9,o),
(235,-9,cs)
);
}
);
width = 558;
}
);
note = five;
unicode = 53;
},
{
glyphname = six;
lastChange = "2023-12-15 17:47:40 +0000";
layers = (
{
hints = (
{
horizontal = 1;
origin = (0,15);
target = (1,11);
type = Stem;
},
{
horizontal = 1;
origin = (0,5);
target = (1,5);
type = Stem;
},
{
horizontal = 1;
origin = (0,8);
target = down;
type = TopGhost;
},
{
origin = (0,12);
target = (1,2);
type = Stem;
},
{
origin = (1,8);
target = (0,2);
type = Stem;
}
);
layerId = m01;
shapes = (
{
closed = 1;
nodes = (
(392,-11,o),
(493,88,o),
(493,218,cs),
(493,347,o),
(396,437,o),
(256,443,c),
(236,430,l),
(444,680,l),
(352,680,l),
(86,359,ls),
(52,318,o),
(35,271,o),
(35,216,cs),
(35,88,o),
(138,-11,o),
(264,-11,cs)
);
},
{
closed = 1;
nodes = (
(180,59,o),
(106,128,o),
(106,216,cs),
(106,308,o),
(185,371,o),
(266,371,cs),
(353,371,o),
(422,300,o),
(422,213,cs),
(422,129,o),
(355,59,o),
(265,59,cs)
);
}
);
width = 528;
},
{
hints = (
{
horizontal = 1;
origin = (0,15);
target = (1,11);
type = Stem;
},
{
horizontal = 1;
origin = (0,8);
target = down;
type = TopGhost;
},
{
origin = (0,12);
target = (1,2);
type = Stem;
},
{
origin = (1,8);
target = (0,2);
type = Stem;
}
);
layerId = "B86D9C3C-D3FC-40C7-BC9B-EF4509240B31";
shapes = (
{
closed = 1;
nodes = (
(417,-10,o),
(532,92,o),
(532,228,cs),
(532,347,o),
(443,450,o),
(322,464,c),
(317,457,l),
(479,680,l),
(304,680,l),
(95,387,ls),
(63,343,o),
(35,288,o),
(35,228,cs),
(35,92,o),
(147,-10,o),
(284,-10,cs)
);
},
{
closed = 1;
nodes = (
(227,130,o),
(183,174,o),
(183,228,cs),
(183,282,o),
(227,326,o),
(284,326,cs),
(340,326,o),
(385,282,o),
(385,228,cs),
(385,174,o),
(340,130,o),
(284,130,cs)
);
}
);
width = 567;
},
{
hints = (
{
horizontal = 1;
origin = (0,15);
target = (1,11);
type = Stem;
},
{
horizontal = 1;
origin = (0,8);
target = down;
type = TopGhost;
},
{
origin = (0,12);
target = (1,2);
type = Stem;
},
{
origin = (1,8);
target = (0,2);
type = Stem;
}
);
layerId = "20FD933E-5CCA-4ADC-839D-1BAE82A4B007";
shapes = (
{
closed = 1;
nodes = (
(425,-10,o),
(545,93,o),
(545,231,cs),
(545,347,o),
(459,454,o),
(344,471,c),
(344,466,l),
(491,680,l),
(288,680,l),
(98,396,ls),
(67,351,o),
(35,294,o),
(35,232,cs),
(35,93,o),
(150,-10,o),
(291,-10,cs)
);
},
{
closed = 1;
nodes = (
(243,154,o),
(209,189,o),
(209,232,cs),
(209,273,o),
(241,311,o),
(290,311,cs),
(336,311,o),
(373,276,o),
(373,233,cs),
(373,189,o),
(335,154,o),
(290,154,cs)
);
}
);
width = 580;
}
);
note = six;
unicode = 54;
},
{
glyphname = seven;
lastChange = "2023-12-15 17:47:40 +0000";
layers = (
{
hints = (
{
horizontal = 1;
origin = (0,6);
target = up;
type = BottomGhost;
},
{
horizontal = 1;
origin = (0,3);
target = (0,2);
type = Stem;
}
);
layerId = m01;
shapes = (
{
closed = 1;
nodes = (
(158,0,l),
(457,677,l),
(30,677,l),
(30,607,l),
(381,607,l),
(363,636,l),
(82,0,l)
);
}
);
width = 487;
},
{
hints = (
{
horizontal = 1;
origin = (0,6);
target = up;
type = BottomGhost;
},
{
horizontal = 1;
origin = (0,2);
target = (0,3);
type = Stem;
}
);
layerId = "B86D9C3C-D3FC-40C7-BC9B-EF4509240B31";
shapes = (
{
closed = 1;
nodes = (
(246,0,l),
(534,680,l),
(35,680,l),
(35,542,l),
(379,542,l),
(338,604,l),
(83,0,l)
);
}
);
width = 554;
},
{
hints = (
{
horizontal = 1;
origin = (0,6);
target = up;
type = BottomGhost;
},
{
horizontal = 1;
origin = (0,2);
target = (0,3);
type = Stem;
},
{
origin = (0,3);
target = (0,1);
type = Stem;
}
);
layerId = "20FD933E-5CCA-4ADC-839D-1BAE82A4B007";
shapes = (
{
closed = 1;
nodes = (
(275,0,l),
(560,681,l),
(37,681,l),
(37,520,l),
(378,520,l),
(330,593,l),
(83,0,l)
);
}
);
width = 576;
}
);
note = seven;
unicode = 55;
},
{
glyphname = eight;
lastChange = "2023-12-15 17:47:40 +0000";
layers = (
{
hints = (
{
horizontal = 1;
origin = (0,23);
target = (1,11);
type = Stem;
},
{
horizontal = 1;
origin = (1,5);
target = (2,11);
type = Stem;
},
{
horizontal = 1;
origin = (0,11);
target = (2,5);
type = Stem;
},
{
origin = (0,20);
target = (1,2);
type = Stem;
},
{
origin = (1,8);
target = (0,2);
type = Stem;
},
{
origin = (0,14);
target = (2,2);
type = Stem;
},
{
origin = (2,8);
target = (0,8);
type = Stem;
}
);
layerId = m01;
shapes = (
{
closed = 1;
nodes = (
(389,-10,o),
(486,70,o),
(486,195.5,cs),
(486,264,o),
(442,331,o),
(372,369,c),
(426,413.67,o),
(453,462.16,o),
(453,514.47,cs),
(453,621,o),
(371,691,o),
(263,691,cs),
(156,691,o),
(73,621,o),
(73,515,cs),
(73,462.33,o),
(100,413.67,o),
(154,369,c),
(84,331,o),
(40,264,o),
(40,194,cs),
(40,69,o),
(140,-10,o),
(263,-10,cs)
);
},
{
closed = 1;
nodes = (
(177,57,o),
(112,126,o),
(112,202,cs),
(112,282,o),
(183,341,o),
(263,341,cs),
(343,341,o),
(414,282,o),
(414,202,cs),
(414,126,o),
(349,57,o),
(263,57,cs)
);
},
{
closed = 1;
nodes = (
(195,398,o),
(145,450,o),
(145,511,cs),
(145,576,o),
(198,623,o),
(263,623,cs),
(328,623,o),
(381,576,o),
(381,511,cs),
(381,450,o),
(331,398,o),
(263,398,cs)
);
}
);
width = 526;
},
{
hints = (
{
horizontal = 1;
origin = (0,23);
target = (1,11);
type = Stem;
},
{
horizontal = 1;
origin = (1,5);
target = (2,11);
type = Stem;
},
{
horizontal = 1;
origin = (0,11);
target = (2,5);
type = Stem;
},
{
origin = (0,20);
target = (1,2);
type = Stem;
},
{
origin = (1,8);
target = (0,2);
type = Stem;
},
{
origin = (0,14);
target = (2,2);
type = Stem;
},
{
origin = (2,8);
target = (0,8);
type = Stem;
}
);
layerId = "B86D9C3C-D3FC-40C7-BC9B-EF4509240B31";
shapes = (
{
closed = 1;
nodes = (
(405,-10,o),
(521,87,o),
(521,223,cs),
(521,284,o),
(493,343,o),
(445,376,c),
(473,408,o),
(490,450,o),
(490,495,cs),
(490,611,o),
(383,690,o),
(278,690,cs),
(173,690,o),
(65,611,o),
(65,494,cs),
(65,450,o),
(82,408,o),
(110,375,c),
(62,338,o),
(35,277,o),
(35,214,cs),
(35,80,o),
(156,-10,o),
(278,-10,cs)
);
},
{
closed = 1;
nodes = (
(225,129,o),
(184,170,o),
(184,223,cs),
(184,276,o),
(225,314,o),
(278,314,cs),
(330,314,o),
(372,276,o),
(372,223,cs),
(372,170,o),
(330,129,o),
(278,129,cs)
);
},
{
closed = 1;
nodes = (
(239,420,o),
(208,451,o),
(208,489,cs),
(208,527,o),
(240,559,o),
(278,559,cs),
(315,559,o),
(347,527,o),
(347,489,cs),
(347,451,o),
(316,420,o),
(278,420,cs)
);
}
);
width = 556;
},
{
hints = (
{
horizontal = 1;
origin = (0,23);
target = (1,11);
type = Stem;
},
{
horizontal = 1;
origin = (1,5);
target = (2,11);
type = Stem;
},
{
horizontal = 1;
origin = (2,5);
target = (0,11);
type = Stem;
},
{
origin = (0,20);
target = (1,2);
type = Stem;
},
{
origin = (1,8);
target = (0,2);
type = Stem;
},
{
origin = (0,14);
target = (2,2);
type = Stem;
},
{
origin = (2,8);
target = (0,8);
type = Stem;
}
);
layerId = "20FD933E-5CCA-4ADC-839D-1BAE82A4B007";
shapes = (
{
closed = 1;
nodes = (
(410,-10,o),
(533,93,o),
(533,232,cs),
(533,291,o),
(510,347,o),
(469,378,c),
(489,406,o),
(502,446,o),
(502,489,cs),
(502,608,o),
(387,690,o),
(283,690,cs),
(179,690,o),
(62,608,o),
(62,487,cs),
(62,446,o),
(76,406,o),
(95,377,c),
(55,340,o),
(33,281,o),
(33,221,cs),
(33,84,o),
(161,-10,o),
(283,-10,cs)
);
},
{
closed = 1;
nodes = (
(241,153,o),
(208,185,o),
(208,230,cs),
(208,274,o),
(239,305,o),
(283,305,cs),
(326,305,o),
(358,274,o),
(358,230,cs),
(358,185,o),
(324,153,o),
(283,153,cs)
);
},
{
closed = 1;
nodes = (
(254,427,o),
(229,451,o),
(229,482,cs),
(229,511,o),
(254,538,o),
(283,538,cs),
(311,538,o),
(336,511,o),
(336,482,cs),
(336,451,o),
(311,427,o),
(283,427,cs)
);
}
);
width = 566;
}
);
note = eight;
unicode = 56;
},
{
glyphname = nine;
lastChange = "2023-12-15 17:47:40 +0000";
layers = (
{
hints = (
{
horizontal = 1;
origin = (0,15);
target = up;
type = BottomGhost;
},
{
horizontal = 1;
origin = (0,13);
target = (1,11);
type = Stem;
},
{
horizontal = 1;
origin = (0,7);
target = (1,5);
type = Stem;
},
{
horizontal = 1;
origin = (0,14);
target = (1,11);
type = Stem;
},
{
origin = (0,10);
target = (1,2);
type = Stem;
},
{
origin = (1,8);
target = (0,4);
type = Stem;
}
);
layerId = m01;
shapes = (
{
closed = 1;
nodes = (
(176,0,l),
(442,321,ls),
(476,362,o),
(493,409,o),
(493,464,cs),
(493,592,o),
(390,691,o),
(264,691,cs),
(136,691,o),
(35,592,o),
(35,462,cs),
(35,333,o),
(132,243,o),
(272,237,c),
(292,250,l),
(84,0,l)
);
},
{
closed = 1;
nodes = (
(175,309,o),
(106,380,o),
(106,467,cs),
(106,551,o),
(173,621,o),
(263,621,cs),
(348,621,o),
(422,552,o),
(422,464,cs),
(422,378,o),
(347,309,o),
(263,309,cs)
);
}
);
width = 528;
},
{
hints = (
{
horizontal = 1;
origin = (0,15);
target = up;
type = BottomGhost;
},
{
horizontal = 1;
origin = (0,7);
target = (1,5);
type = Stem;
},
{
origin = (0,10);
target = (1,2);
type = Stem;
},
{
origin = (1,8);
target = (0,4);
type = Stem;
}
);
layerId = "B86D9C3C-D3FC-40C7-BC9B-EF4509240B31";
shapes = (
{
closed = 1;
nodes = (
(264,0,l),
(473,293,ls),
(504,337,o),
(532,392,o),
(532,452,cs),
(532,588,o),
(420,690,o),
(284,690,cs),
(150,690,o),
(35,588,o),
(35,452,cs),
(35,333,o),
(125,230,o),
(245,216,c),
(247,219,l),
(88,0,l)
);
},
{
closed = 1;
nodes = (
(227,354,o),
(183,398,o),
(183,452,cs),
(183,506,o),
(227,550,o),
(284,550,cs),
(340,550,o),
(385,506,o),
(385,452,cs),
(385,398,o),
(340,354,o),
(284,354,cs)
);
}
);
width = 567;
},
{
hints = (
{
horizontal = 1;
origin = (0,15);
target = up;
type = BottomGhost;
},
{
horizontal = 1;
origin = (1,5);
target = (0,7);
type = Stem;
},
{
origin = (0,10);
target = (1,2);
type = Stem;
},
{
origin = (1,8);
target = (0,4);
type = Stem;
}
);
layerId = "20FD933E-5CCA-4ADC-839D-1BAE82A4B007";
shapes = (
{
closed = 1;
nodes = (
(293,0,l),
(483,284,ls),
(513,329,o),
(545,386,o),
(545,448,cs),
(545,587,o),
(430,690,o),
(291,690,cs),
(155,690,o),
(35,587,o),
(35,449,cs),
(35,333,o),
(123,226,o),
(236,209,c),
(232,209,l),
(89,0,l)
);
},
{
closed = 1;
nodes = (
(244,369,o),
(209,404,o),
(209,447,cs),
(209,491,o),
(245,526,o),
(291,526,cs),
(337,526,o),
(373,491,o),
(373,448,cs),
(373,405,o),
(338,369,o),
(291,369,cs)
);
}
);
width = 580;
}
);
note = nine;
unicode = 57;
},
{
glyphname = fraction;
lastChange = "2023-12-15 17:47:40 +0000";
layers = (
{
hints = (
{
horizontal = 1;
origin = (0,3);
target = up;
type = BottomGhost;
},
{
horizontal = 1;
origin = (0,2);
target = down;
type = TopGhost;
}
);
layerId = m01;
shapes = (
{
closed = 1;
nodes = (
(112,0,l),
(399,679,l),
(331,679,l),
(45,0,l)
);
}
);
width = 444;
},
{
hints = (
{
horizontal = 1;
origin = (0,3);
target = up;
type = BottomGhost;
},
{
horizontal = 1;
origin = (0,2);
target = down;
type = TopGhost;
},
{
origin = (0,3);
target = (0,1);
type = Stem;
}
);
layerId = "B86D9C3C-D3FC-40C7-BC9B-EF4509240B31";
shapes = (
{
closed = 1;
nodes = (
(158,0,l),
(430,680,l),
(292,680,l),
(20,0,l)
);
}
);
width = 450;
},
{
hints = (
{
horizontal = 1;
origin = (0,3);
target = up;
type = BottomGhost;
},
{
horizontal = 1;
origin = (0,2);
target = down;
type = TopGhost;
},
{
origin = (0,3);
target = (0,1);
type = Stem;
}
);
layerId = "20FD933E-5CCA-4ADC-839D-1BAE82A4B007";
shapes = (
{
closed = 1;
nodes = (
(173,0,l),
(440,680,l),
(279,680,l),
(12,0,l)
);
}
);
width = 452;
}
);
note = fraction;
unicode = 8260;
},
{
glyphname = .notdef;
lastChange = "2023-12-15 17:47:40 +0000";
layers = (
{
hints = (
{
horizontal = 1;
origin = (0,3);
target = (1,3);
type = Stem;
},
{
horizontal = 1;
origin = (1,0);
target = (0,2);
type = Stem;
},
{
origin = (0,3);
target = (1,3);
type = Stem;
},
{
origin = (1,2);
target = (0,0);
type = Stem;
}
);
layerId = m01;
shapes = (
{
closed = 1;
nodes = (
(438,0,l),
(438,750,l),
(63,750,l),
(63,0,l)
);
},
{
closed = 1;
nodes = (
(125,688,l),
(375,688,l),
(375,63,l),
(125,63,l)
);
}
);
width = 501;
},
{
hints = (
{
horizontal = 1;
origin = (0,3);
target = (1,3);
type = Stem;
},
{
horizontal = 1;
origin = (1,0);
target = (0,2);
type = Stem;
},
{
origin = (0,3);
target = (1,3);
type = Stem;
},
{
origin = (1,2);
target = (0,0);
type = Stem;
}
);
layerId = "B86D9C3C-D3FC-40C7-BC9B-EF4509240B31";
shapes = (
{
closed = 1;
nodes = (
(438,0,l),
(438,750,l),
(63,750,l),
(63,0,l)
);
},
{
closed = 1;
nodes = (
(125,688,l),
(375,688,l),
(375,63,l),
(125,63,l)
);
}
);
width = 500;
},
{
hints = (
{
horizontal = 1;
origin = (0,3);
target = (1,3);
type = Stem;
},
{
horizontal = 1;
origin = (1,0);
target = (0,2);
type = Stem;
},
{
origin = (0,3);
target = (1,3);
type = Stem;
},
{
origin = (1,2);
target = (0,0);
type = Stem;
}
);
layerId = "20FD933E-5CCA-4ADC-839D-1BAE82A4B007";
shapes = (
{
closed = 1;
nodes = (
(438,0,l),
(438,750,l),
(63,750,l),
(63,0,l)
);
},
{
closed = 1;
nodes = (
(125,688,l),
(375,688,l),
(375,63,l),
(125,63,l)
);
}
);
width = 500;
}
);
note = .notdef;
},
{
glyphname = period;
kernLeft = per;
kernRight = per;
lastChange = "2023-12-15 17:47:40 +0000";
layers = (
{
hints = (
{
horizontal = 1;
origin = (0,11);
target = (0,5);
type = Stem;
},
{
origin = (0,8);
target = (0,2);
type = Stem;
}
);
layerId = m01;
shapes = (
{
closed = 1;
nodes = (
(163,-10,o),
(192,15,o),
(192,46.5,cs),
(192,79,o),
(166,103,o),
(133,103,cs),
(101,103,o),
(75,78,o),
(75,46,cs),
(75,16,o),
(103,-10,o),
(133,-10,cs)
);
}
);
width = 267;
},
{
hints = (
{
horizontal = 1;
origin = (0,11);
target = (0,5);
type = Stem;
},
{
origin = (0,8);
target = (0,2);
type = Stem;
}
);
layerId = "B86D9C3C-D3FC-40C7-BC9B-EF4509240B31";
shapes = (
{
closed = 1;
nodes = (
(183,-1,o),
(219,34,o),
(219,77,cs),
(219,121,o),
(183,156,o),
(140,156,cs),
(97,156,o),
(61,121,o),
(61,77,cs),
(61,34,o),
(96,-1,o),
(140,-1,cs)
);
}
);
width = 280;
},
{
hints = (
{
horizontal = 1;
origin = (0,11);
target = (0,5);
type = Stem;
},
{
origin = (0,8);
target = (0,2);
type = Stem;
}
);
layerId = "20FD933E-5CCA-4ADC-839D-1BAE82A4B007";
shapes = (
{
closed = 1;
nodes = (
(190,2,o),
(228,40,o),
(228,87,cs),
(228,135,o),
(189,174,o),
(142,174,cs),
(96,174,o),
(56,135,o),
(56,87,cs),
(56,40,o),
(94,2,o),
(142,2,cs)
);
}
);
width = 284;
}
);
note = period;
unicode = 46;
},
{
color = 6;
glyphname = comma;
kernLeft = per;
kernRight = per;
layers = (
{
hints = (
{
horizontal = 1;
origin = (0,11);
target = up;
type = BottomGhost;
},
{
horizontal = 1;
origin = (0,11);
target = (0,5);
type = Stem;
},
{
origin = (0,8);
target = (0,2);
type = Stem;
}
);
layerId = m01;
shapes = (
{
closed = 1;
nodes = (
(117,-77,o),
(160,-24,o),
(160,32,cs),
(160,82,o),
(138,112,o),
(97,112,cs),
(65,112,o),
(39,87,o),
(39,55,cs),
(39,22,o),
(66,-1,o),
(97,-1,cs),
(99,-1,l),
(92,-29,o),
(61,-59,o),
(41,-74,c),
(70,-112,l)
);
}
);
width = 232;
},
{
hints = (
{
horizontal = 1;
origin = (0,16);
target = (0,5);
type = Stem;
},
{
horizontal = 1;
origin = (0,11);
target = (0,5);
type = Stem;
},
{
origin = (0,8);
target = (0,2);
type = Stem;
}
);
layerId = "B86D9C3C-D3FC-40C7-BC9B-EF4509240B31";
shapes = (
{
closed = 1;
nodes = (
(143,-90,o),
(203,-15,o),
(203,60,cs),
(203,113,o),
(167,150,o),
(121,150,cs),
(86,150,o),
(41,120,o),
(41,78,cs),
(41,41,o),
(69,7,o),
(96,7,cs),
(101,7,l),
(89,-14,o),
(65,-35,o),
(44,-47,c),
(73,-115,l)
);
}
);
width = 246;
},
{
hints = (
{
horizontal = 1;
origin = (0,16);
target = (0,5);
type = Stem;
},
{
horizontal = 1;
origin = (0,11);
target = (0,5);
type = Stem;
},
{
origin = (0,8);
target = (0,2);
type = Stem;
}
);
layerId = "20FD933E-5CCA-4ADC-839D-1BAE82A4B007";
shapes = (
{
closed = 1;
nodes = (
(157,-96,o),
(217,-12,o),
(217,69,cs),
(217,123,o),
(177,163,o),
(129,163,cs),
(93,163,o),
(42,131,o),
(42,86,cs),
(42,47,o),
(72,10,o),
(98,10,cs),
(106,10,l),
(97,-11,o),
(71,-32,o),
(49,-43,c),
(78,-121,l)
);
}
);
width = 251;
}
);
note = comma;
unicode = 44;
},
{
glyphname = colon;
lastChange = "2023-12-15 17:47:40 +0000";
layers = (
{
background = {
shapes = (
{
closed = 1;
nodes = (
(148.33,377,o),
(162,382.5,o),
(174,393.5,cs),
(186,404.5,o),
(192,417.83,o),
(192,433.5,cs),
(192,449.17,o),
(186.17,462.5,o),
(174.5,473.5,cs),
(162.83,484.5,o),
(149,490,o),
(133,490,cs),
(117,490,o),
(103.33,484.33,o),
(92,473,cs),
(80.67,461.67,o),
(75,448.33,o),
(75,433,cs),
(75,417.67,o),
(80.83,404.5,o),
(92.5,393.5,cs),
(104.17,382.5,o),
(117.67,377,o),
(133,377,cs)
);
},
{
closed = 1;
nodes = (
(148.33,-10,o),
(162,-4.5,o),
(174,6.5,cs),
(186,17.5,o),
(192,30.83,o),
(192,46.5,cs),
(192,62.17,o),
(186.17,75.5,o),
(174.5,86.5,cs),
(162.83,97.5,o),
(149,103,o),
(133,103,cs),
(117,103,o),
(103.33,97.33,o),
(92,86,cs),
(80.67,74.67,o),
(75,61.33,o),
(75,46,cs),
(75,30.67,o),
(80.83,17.5,o),
(92.5,6.5,cs),
(104.17,-4.5,o),
(117.67,-10,o),
(133,-10,cs)
);
}
);
};
hints = (
{
horizontal = 1;
origin = (1,11);
target = (1,5);
type = Stem;
},
{
horizontal = 1;
origin = (0,5);
target = (0,11);
type = Stem;
},
{
origin = (1,8);
target = (1,2);
type = Stem;
}
);
layerId = m01;
shapes = (
{
closed = 1;
nodes = (
(163,337,o),
(192,362,o),
(192,394,cs),
(192,426,o),
(166,450,o),
(133,450,cs),
(101,450,o),
(75,425,o),
(75,393,cs),
(75,363,o),
(103,337,o),
(133,337,cs)
);
},
{
closed = 1;
nodes = (
(163,-10,o),
(192,15,o),
(192,47,cs),
(192,79,o),
(166,103,o),
(133,103,cs),
(101,103,o),
(75,78,o),
(75,46,cs),
(75,16,o),
(103,-10,o),
(133,-10,cs)
);
}
);
width = 267;
},
{
hints = (
{
horizontal = 1;
origin = (1,11);
target = (1,5);
type = Stem;
},
{
horizontal = 1;
origin = (0,5);
target = (0,11);
type = Stem;
},
{
origin = (1,8);
target = (1,2);
type = Stem;
}
);
layerId = "B86D9C3C-D3FC-40C7-BC9B-EF4509240B31";
shapes = (
{
closed = 1;
nodes = (
(196,293,o),
(232,328,o),
(232,371,cs),
(232,415,o),
(196,450,o),
(153,450,cs),
(109,450,o),
(74,415,o),
(74,371,cs),
(74,328,o),
(109,293,o),
(153,293,cs)
);
},
{
closed = 1;
nodes = (
(196,-6,o),
(232,29,o),
(232,72,cs),
(232,116,o),
(196,151,o),
(153,151,cs),
(109,151,o),
(74,116,o),
(74,72,cs),
(74,29,o),
(109,-6,o),
(153,-6,cs)
);
}
);
width = 306;
},
{
hints = (
{
horizontal = 1;
origin = (1,11);
target = (1,5);
type = Stem;
},
{
horizontal = 1;
origin = (0,5);
target = (0,11);
type = Stem;
},
{
origin = (1,8);
target = (1,2);
type = Stem;
}
);
layerId = "20FD933E-5CCA-4ADC-839D-1BAE82A4B007";
shapes = (
{
closed = 1;
nodes = (
(207,278,o),
(245,317,o),
(245,363,cs),
(245,411,o),
(206,450,o),
(160,450,cs),
(112,450,o),
(74,412,o),
(74,364,cs),
(74,316,o),
(111,278,o),
(160,278,cs)
);
},
{
closed = 1;
nodes = (
(207,-5,o),
(245,34,o),
(245,80,cs),
(245,128,o),
(206,167,o),
(160,167,cs),
(112,167,o),
(74,129,o),
(74,81,cs),
(74,33,o),
(111,-5,o),
(160,-5,cs)
);
}
);
width = 319;
}
);
note = colon;
unicode = 58;
},
{
color = 6;
glyphname = semicolon;
layers = (
{
background = {
shapes = (
{
closed = 1;
nodes = (
(153,-87,o),
(196,-22,o),
(196,34,cs),
(196,84,o),
(174,114,o),
(133,114,cs),
(101,114,o),
(75,89,o),
(75,57,cs),
(75,24,o),
(102,1,o),
(133,1,cs),
(135,1,l),
(128,-27,o),
(93,-68,o),
(77,-84,c),
(106,-122,l)
);
},
{
closed = 1;
nodes = (
(148.33,377,o),
(162,382.5,o),
(174,393.5,cs),
(186,404.5,o),
(192,417.83,o),
(192,433.5,cs),
(192,449.17,o),
(186.17,462.5,o),
(174.5,473.5,cs),
(162.83,484.5,o),
(149,490,o),
(133,490,cs),
(117,490,o),
(103.33,484.33,o),
(92,473,cs),
(80.67,461.67,o),
(75,448.33,o),
(75,433,cs),
(75,417.67,o),
(80.83,404.5,o),
(92.5,393.5,cs),
(104.17,382.5,o),
(117.67,377,o),
(133,377,cs)
);
}
);
};
hints = (
{
horizontal = 1;
origin = (0,11);
target = up;
type = BottomGhost;
},
{
horizontal = 1;
place = (450,113);
type = Stem;
},
{
horizontal = 1;
origin = (0,11);
target = (0,5);
type = Stem;
},
{
origin = (0,8);
target = (0,2);
type = Stem;
},
{
origin = (0,8);
target = (0,2);
type = Stem;
}
);
layerId = m01;
shapes = (
{
closed = 1;
nodes = (
(155,-77,o),
(198,-24,o),
(198,32,cs),
(198,82,o),
(176,112,o),
(135,112,cs),
(103,112,o),
(77,87,o),
(77,55,cs),
(77,22,o),
(104,-1,o),
(135,-1,cs),
(137,-1,l),
(130,-29,o),
(99,-59,o),
(79,-74,c),
(108,-112,l)
);
},
{
closed = 1;
nodes = (
(163,337,o),
(192,362,o),
(192,394,cs),
(192,426,o),
(166,450,o),
(133,450,cs),
(101,450,o),
(75,425,o),
(75,393,cs),
(75,363,o),
(103,337,o),
(133,337,cs)
);
}
);
width = 267;
},
{
hints = (
{
horizontal = 1;
origin = (0,11);
target = up;
type = BottomGhost;
},
{
horizontal = 1;
place = (450,-310);
type = Stem;
},
{
horizontal = 1;
origin = (0,11);
target = (0,5);
type = Stem;
},
{
origin = (0,8);
target = (0,2);
type = Stem;
},
{
origin = (0,8);
target = (0,2);
type = Stem;
}
);
layerId = "B86D9C3C-D3FC-40C7-BC9B-EF4509240B31";
shapes = (
{
closed = 1;
nodes = (
(173,-100,o),
(233,-25,o),
(233,50,cs),
(233,103,o),
(197,140,o),
(151,140,cs),
(116,140,o),
(71,110,o),
(71,68,cs),
(71,31,o),
(99,-3,o),
(126,-3,cs),
(131,-3,l),
(119,-24,o),
(95,-45,o),
(74,-57,c),
(103,-125,l)
);
},
{
closed = 1;
nodes = (
(196,293,o),
(232,328,o),
(232,371,cs),
(232,415,o),
(196,450,o),
(153,450,cs),
(109,450,o),
(74,415,o),
(74,371,cs),
(74,328,o),
(109,293,o),
(153,293,cs)
);
}
);
width = 306;
},
{
hints = (
{
horizontal = 1;
origin = (0,11);
target = up;
type = BottomGhost;
},
{
horizontal = 1;
place = (450,-297);
type = Stem;
},
{
horizontal = 1;
origin = (0,11);
target = (0,5);
type = Stem;
},
{
origin = (0,8);
target = (0,2);
type = Stem;
},
{
origin = (0,8);
target = (0,2);
type = Stem;
}
);
layerId = "20FD933E-5CCA-4ADC-839D-1BAE82A4B007";
shapes = (
{
closed = 1;
nodes = (
(184,-106,o),
(244,-22,o),
(244,59,cs),
(244,113,o),
(204,153,o),
(156,153,cs),
(120,153,o),
(69,121,o),
(69,76,cs),
(69,37,o),
(99,0,o),
(125,0,cs),
(133,0,l),
(124,-21,o),
(98,-42,o),
(76,-53,c),
(105,-131,l)
);
},
{
closed = 1;
nodes = (
(207,278,o),
(245,317,o),
(245,363,cs),
(245,411,o),
(206,450,o),
(160,450,cs),
(112,450,o),
(74,412,o),
(74,364,cs),
(74,316,o),
(111,278,o),
(160,278,cs)
);
}
);
width = 319;
}
);
note = semicolon;
unicode = 59;
},
